<?xml version="1.0" encoding="UTF-8"?>
<svg id="Layer_2" data-name="Layer 2" xmlns="http://www.w3.org/2000/svg" viewBox="0 0 2506.8 1009.29">
  <defs>
    <style>
      .cls-1 {
        fill: #5ee34d;
      }
    </style>
  </defs>
  <g id="Layer_1-2" data-name="Layer 1">
    <g>
      <path class="cls-1" d="M265.88,737.56c-11.64,0-22.95-4.77-31.04-13.09-8.32-8.56-12.71-20.04-12.36-32.3.58-20.3,2.46-40.31,4.27-59.66,1.89-20.11,3.67-39.1,4.05-57.94.61-30.06-7.47-62.01-16.01-95.84-9.15-36.2-18.61-73.62-18.4-112.83.18-34.44,2.62-68.79,4.98-102.01,2.51-35.39,5.11-71.97,4.77-107.19-.13-13.08,6.29-25.23,17.17-32.49,6.37-4.25,13.78-6.5,21.44-6.5.67,0,1.35.02,2.02.05,6.82-2.94,14.23-4.47,21.71-4.47,24.93,0,44.64,18.66,44.87,42.49.26,26.73-8.24,50.2-16.46,72.89-6.1,16.85-11.86,32.77-11.85,45.51.04,30.38,6.27,61.81,12.86,95.08,7.3,36.83,14.85,74.91,14.31,114.38-.35,25.25-.51,50.93-.68,75.76-.29,44.21-.59,89.89-1.88,134.93-.7,24.24-19.92,43.24-43.78,43.24Z"/>
      <path class="cls-1" d="M52.33,649.48c-6.96,0-13.77-.78-20.25-2.33-12.68-3.02-28.55-14.35-31.54-36.37-.74-5.46-.71-11.47.1-18.38,1.14-9.71,3.88-21.14,7.34-30.57,2.28-6.23,4.78-11.41,7.62-15.84,8.59-13.37,21.84-21.03,36.37-21.03,3.15,0,6.3.37,9.36,1.1,18.08,4.3,27.52,17.84,33.05,28.21,3.63-.03,7.58-.27,12.01-.72,13.38-5.09,30.71-10.62,49.09-10.62.86,0,1.72.01,2.58.04,7.43.21,14.5.61,19.42.91,1.32-.06,2.62-.12,3.89-.15,29.96-.86,59.29-6,92.29-16.16,23.06-7.1,44.43-17.93,71.45-36.2,5.56-3.76,10.98-7.26,16.23-10.64,17.14-11.05,33.32-21.49,44.25-35.06,7.9-9.81,11.59-23.33,16.27-40.44,2.34-8.56,4.75-17.37,7.96-26.61,3.83-11.03,8.21-21.19,12.45-31.02,8.88-20.59,15.89-36.85,15.14-52.91-.2-4.14-.09-8.38.31-12.86-2.19-5.52-3.6-11.09-4.19-16.63-1.35-12.59-.19-24.55.74-34.15.73-7.5,1.48-15.25.6-19.91-.64-3.41-4.52-9.36-8.26-15.1-3.92-6.01-8.78-13.47-12.8-22.1-1.25-2.67-2.38-5.25-3.38-7.6-1.69-1.84-3.24-3.75-4.64-5.71-4.44-6.21-7.87-12.59-10.89-18.22-.17-.32-.34-.64-.51-.96-8.65-5.36-20.49-7.23-36.35-9.73-8-1.26-16.27-2.56-25.15-4.52-11.72-2.59-22.78-5.65-33.48-8.61-1.94-.54-3.81-1.05-5.65-1.56-11.47,1.54-23.84,4.98-36.87,8.61-16.43,4.57-33.41,9.3-52.02,11.37-1.41.16-2.85.24-4.28.24-15.98,0-30.5-10.06-36.13-25.03-.25-.67-.49-1.36-.71-2.05-.04-.03-.57-.53-.74-.68-15.65-7.95-21.28-23.47-21.28-34.79,0-21.52,17.47-39.03,38.95-39.03,3.76,0,7.48.54,11.1,1.6,4.97-.12,11.01-.49,15.2-.79,5.72-3.01,11.76-4.84,18-5.45,5.28-.51,10.7-.77,16.11-.77,22.25,0,42.67,4.34,59.9,8.76,1.53-.05,3.06-.07,4.56-.07,4.71,0,9.41.23,13.95.68,4.25.42,8.62.79,13.25,1.18l.22.02c32.05,2.72,68.36,5.8,99.56,27.06,8.28,5.65,15.47,13.26,21.94,23.25,9.09,9.13,14.9,18.81,18.75,26.42,1.54.87,3.16,1.77,4.75,2.65,15.76,8.7,37.33,20.6,44.28,45.32,4.72,16.8,2.67,33.29,1.02,46.53-.63,5.06-1.58,12.71-1.21,15.49,1.91,14.16-.21,27.23-2.67,38.42,11.02,13.21,25.2,31.04,24.64,55.12-1.24,53.53-8.33,94.21-21.69,124.38-12.92,29.19-41.39,42.45-64.26,53.1-9.25,4.31-21.91,10.2-25.72,14.32-24.14,26.1-48.18,45.5-77.95,62.93-36.51,21.37-67.79,34.42-101.4,42.31-15.55,3.65-31.46,5.35-50.06,5.35-13.4,0-26.43-.89-39.03-1.76-2.18-.15-4.35-.3-6.52-.44-9.58.75-19.9,2.51-30.81,4.37-6.8,1.16-13.77,2.34-20.92,3.35-2.19.9-4.4,1.83-6.7,2.78l-.16.07c-19.81,8.27-42.27,17.65-66.52,17.65Z"/>
      <path class="cls-1" d="M625.27,618.01c-10.59,0-20.76-.67-28.65-1.87-6.16-.94-11.33-2.25-15.81-4.01-20.17-7.92-27.36-25.05-27.36-38.44,0-14.16,1.69-27.28,3.32-39.98,1.39-10.76,2.69-20.92,2.69-30.12,0-26.31,7.15-50.04,14.06-72.99,5.55-18.41,10.78-35.79,10.78-50.71,0-18.02-2.64-36.85-5.44-56.78-2.61-18.57-5.3-37.74-6.01-57.62-6.88-15.93-4.69-28.53-1.36-36.61,5.75-16.22,21.25-27.08,38.76-27.08,15.32,0,28.49,8.37,34.98,13.35,18.45,14.18,22.32,29.82,22.32,40.45,0,5.34,2.98,14.17,5.86,22.7,4.42,13.09,9.92,29.37,9.92,47.4,0,22.3-1.89,44.1-3.73,65.19-1.77,20.36-3.44,39.57-3.44,58.51,0,15.93,4.5,33.8,9.27,52.71,5.71,22.66,11.61,46.08,11.61,71.58,0,13.39-7.18,30.51-27.34,38.44-4.48,1.76-9.65,3.08-15.81,4.02-7.89,1.21-18.06,1.87-28.64,1.87h0Z"/>
      <path class="cls-1" d="M676.72,1009.29c-5.92,0-12.36-.7-31.21-9.34-16.79-7.7-23.4-12.69-28.17-17.8-7.75-8.33-11.58-19.01-10.79-30.08,1.2-16.71,11.17-27.65,18.6-34.18,1.08-18.95,1.1-38.43,1.12-58.94.04-37.21.08-75.67,6.81-113.79,6.54-37.07,23.62-69.5,40.13-100.86,2.36-4.48,4.78-9.07,7.13-13.62,1.33-14.41,3.38-27.44,6.27-39.76,6.24-26.59,17.84-50.53,27.59-68.79,1.53-9.1,3-18.36,4.43-27.34,5.23-32.91,10.63-66.87,19.82-100.39,2.31-8.44,4.96-17.12,8.05-26.36-4.18-7.19-8.66-15.29-12.79-23.88-12.12-25.24-18.28-51.34-24.23-76.58-4.87-20.63-9.46-40.1-16.87-56.93-7.32-16.64-18.94-33.02-31.23-50.36-15.15-21.36-30.81-43.46-41.38-69.75-5.24-13.03-2.98-27.41,5.25-38.02-2.49-9.61-3.21-19.79,2.14-30.72,4.91-10.02,13.88-17.46,24.62-20.42,3.39-.93,6.88-1.4,10.39-1.4,16,0,29.87,9.34,37.12,25,1.44,3.12,2.77,6.69,4.18,11.24,1.9,6.16,3.64,13.15,4.91,18.25.22.86.45,1.79.65,2.61,2.42,3.64,10.57,10.49,15.59,14.71,12.89,10.83,28.92,24.3,37.49,44.52,7.55,17.82,14.49,35.79,21.2,53.17,4.82,12.49,9.72,25.18,14.84,37.76,5.11-10.75,10.49-20.25,15.03-27.88,3.97-11.55,8.12-23.02,12.18-34.19-.9-4.17-1.89-8.45-2.92-12.93-6.58-28.51-14.03-60.83-4.02-92.86,4.34-13.89,18.23-30.1,43.1-30.1,10.99,0,26.99,3.72,39.3,13.8,3,.19,6.01.71,8.99,1.53,10.03,2.77,18.65,9.59,23.63,18.73,3.62,6.64,5.18,14.27,4.57,21.75,6.02,10.13,7.81,21.41,5.04,32.38-7.58,29.97-22.53,56.06-36.47,78.39-.11,8.13-.95,15.73-2.55,23.11-3.14,14.49-9.77,29.05-20.22,44.43-1.5,8.04-2.92,16.08-4.22,23.93-5.12,30.86-9.21,64.19-12.5,101.79,1.52,5.12,2.41,10.25,2.66,15.31,1.86,16.08-6.31,31.31-20.62,38.69-2.42,1.86-5.08,3.51-7.95,4.93-1.1,5.32-2.32,10.44-3.69,15.49-8.9,32.74-25.28,61.53-41.12,89.36-2.81,4.93-5.69,10-8.48,15-2.94,16.47-5.79,30.29-8.92,43.32-5.58,23.21-14.98,44.23-22.93,60.41-.74,14.62-.71,29.63-.68,45.47.06,29.25.13,59.49-4.95,89.83-6.18,36.93-7.71,74.12-9.32,113.5-.8,19.61-1.63,39.89-3.09,60.21-1.7,23.62-22.1,34.38-30.81,38.98-16.12,8.5-24.57,9.65-30.7,9.65Z"/>
      <path class="cls-1" d="M1183.56,651.86c-23.52,0-44.57-7.9-64.92-15.53-3.18-1.19-6.21-2.33-9.18-3.41-1.11,0-2.23,0-3.34,0-18.42,0-37.59-.74-61.94-2.39l-3.7.66c-14.34,2.57-29.12,5.21-44.81,6.26-9.94,8.74-20.45,13-31.98,13-1.74,0-3.49-.11-5.21-.31-7.44-.9-25.65-5.49-34.25-28.54-.67-1.81-1.29-3.72-1.87-5.81-1.82-4.67-2.73-9.62-2.73-14.73,0-18.55,12.61-34.27,30.27-38.13,4.32-1.77,8.8-2.81,13.36-3.1,9.05-7.15,18.67-10.64,29.25-10.64,1.13,0,2.29.05,3.42.13,4.59.37,9.17.74,13.75,1.11,9.98.81,20.28,1.65,30.55,2.4.73-.12,1.47-.25,2.21-.37-1.57-4.32-2.42-8.97-2.42-13.8,0-19.13,2.45-37.23,4.83-54.74.37-2.72.74-5.44,1.1-8.16.03-9.55.07-19.1.1-28.65.06-16.84.13-33.69.17-50.53-1.46-12.98-3.38-26.4-5.24-39.39-4.18-29.23-8.5-59.41-8.76-90.41-10.03-.81-18.66-3.77-25.22-6.01-1.36-.47-3.77-1.29-5.45-1.79-2.26.33-4.46.49-6.66.49-18.84,0-34.56-11.98-39.13-29.81-.89-3.46-1.91-9.7-.54-17.15-.17-.42-.34-.83-.5-1.24-.44-1.09-.88-2.18-1.54-3.75-4.47-10.61-4-22.56,1.31-32.78,5.3-10.22,14.8-17.49,26.06-19.94,7.81-1.7,15.31-2.27,21.2-2.46,7.82-5.49,16.44-14.25,25.5-23.47,17.96-18.27,40.31-41,70.36-49.4,6.4-1.79,13.1-2.7,19.9-2.7,27.49,0,51.22,14.37,72.15,27.05,9.47,5.73,21.04,12.74,28.26,14.91l.36-.06c12.18-1.91,24.75-3.87,37.98-3.87,21.86,0,39.58,5.55,54.18,16.96,7.09,5.54,13.17,12.46,18.09,20.58.02.02.03.04.05.05,19.14,19.71,44.67,51.89,57.53,93.2,13.32,42.76,11.21,88.26,8.46,118.77-1.08,12.01.45,26.7,2.08,42.25,2.89,27.65,5.87,56.24-2.87,85.09-4.82,15.91-14.13,29.45-22.34,41.4-3.65,5.31-7.09,10.32-9.13,14.13-10.95,20.5-30.73,35.77-46.62,48.05l-.34.26c-1.09.84-2.15,1.66-3.18,2.46-29.91,23.29-71.1,43.03-107.49,51.5-6.74,1.57-13.85,2.37-21.11,2.37ZM1123.16,483.58c1.62.67,3.21,1.44,4.73,2.31,12.01,6.85,19.47,19.7,19.48,33.53,0,12.98-5.63,24.75-17.16,35.72,25.98-1.28,48.85-4.74,69.63-10.52,10.32-2.87,20.08-14.97,31.38-28.98,4.52-5.6,9.17-11.37,14.35-17.19,6.05-6.81,8.09-10.97,12.98-23.92,5.45-14.43,14.61-24.65,21.96-32.87,2.12-2.36,5.94-6.63,7.16-8.59,7.99-29.56,11.49-58.46,10.42-85.91-1.13-29-7.44-57.34-18.73-84.21-5.93-14.1-8.19-28.67-10.38-42.77-.98-6.29-1.98-12.72-3.24-18.14-6.15-1.86-15.19-2.59-27.15-3.37-6.84-.45-13.85-.9-21.2-1.78-6.72.92-15.16,1.85-23.9,1.85-1.86,0-3.72-.04-5.51-.13-7.2-.34-14.41-.52-21.43-.52-3.39,0-6.77.04-10.13.12,3.23,7.3,4.89,14.3,5.08,21.27.31,11.01-3.29,27.29-22.17,42.35-6.7,5.35-14.2,9.84-21.44,14.18-1.48.89-3.27,1.96-5.08,3.07.97,7.59,2.53,15.64,4.15,24.02,3.22,16.67,6.56,33.9,6.56,52.73,0,11.28,0,23.28-.04,36.63,1.87,17.64,2.74,32.63,2.75,47.1,0,14.99-1.6,29.84-3.05,41.29,0,.92,0,1.82,0,2.72Z"/>
      <path class="cls-1" d="M1464.23,553.1c-17.15-.02-35.95-12.22-38.71-35.51-.16-1.34-.28-2.77-.36-4.3-2.55-3.56-8.54-10.18-10.71-12.57-13.54-14.94-30.39-33.52-30.6-59.66-.1-13.55,2.03-27.53,6.71-43.78-.25-2.99-.38-5.96-.4-8.85-.12-28.93,12.19-54.5,23.17-77.09-.17-15.74-.8-31.85-1.4-47.46v-.1c-.23-5.89-.47-11.94-.68-18.08-9.13-12.77-17.61-28.2-17.44-47.22.12-13.91,6.84-27.2,20.56-40.65,20.02-19.63,34.88-19.63,39.76-19.63,10.81,0,20.91,4.19,28.45,11.79,3.71,3.75,6.6,8.11,8.59,12.98,3.89,8.35,4.86,17.97,2.8,27.87-.95,4.55-2.55,9.35-4.9,14.67-.44,1-.91,2.03-1.41,3.07.02,3.26.05,6.64.11,10.18,10.16,13.91,18.9,29.51,18.82,48.81-.09,22.92-8.13,44.08-16.36,61.97-1.78,23.02-9.39,43.71-16.76,63.75-1.22,3.31-2.39,6.49-3.5,9.59,2.73,9.23,7.29,19.51,12.08,30.31,9.81,22.13,20.93,47.21,21.28,75.18.26,21.28-8.02,29.66-11.56,33.24-7.22,7.3-17.25,11.49-27.51,11.49h-.03Z"/>
      <path class="cls-1" d="M1644.7,484.77c-6.75,0-13.49-.56-20.61-1.7-45.57-7.34-96.92-19.28-129.42-68.39-8.63-13.04-9.2-29.36-1.53-43.64,9.99-18.6,35.94-34.31,56.66-34.31,14.73,0,27.69,6.82,35.56,18.71,3.16,4.77,7.52,13.67,6.82,25.63,9.64,4,22.95,4.78,45.42,5.28h.32c4.09.1,8.32.19,12.66.33,7.04.23,12.81.86,17.91,1.42,1.18.13,2.31.25,3.38.36-1.34-7.64-1.94-14.75-2.48-21.17-.33-3.97-.98-11.58-1.84-15.07-1-.09-2.45-.18-4.48-.18-3.07,0-6.6.17-10.34.35-4.63.23-9.33.45-14.36.45-11.94,0-21.76-1.37-30.9-4.3-16.94-5.44-31.03-14.87-43.73-24.33-4.24-2.46-8.22-5.47-12.13-9.18-6.32-4.75-13.4-9.88-19.54-12.64-.95-.17-2.22-.39-2.82-.5-12.34-2.13-38-6.55-47.66-31.53-2.99-7.73-5.06-19.59,1.34-33.12,1.15-6.12,3.13-11.83,4.9-16.95.27-.77.84-2.42,1.1-3.22,3.3-14.7,10.75-32.22,20.51-48.18,8.07-13.2,21.3-31.21,38.53-42.09,9.36-5.91,19.92-8.9,31.38-8.9,6.64,0,13.37,1,20.47,3.04,4.52-.71,9.13-1.07,13.78-1.07,10.12,0,19.71,1.7,28.46,3.85,7.2-8.17,17.71-13.14,28.99-13.14,1.38,0,2.77.08,4.15.22,2.25.24,9.7,1.21,17.09,2.79,5.18,1.11,9.5,2.33,13.2,3.74,20.74,7.92,28.13,25.1,28.13,38.54,0,22.82-18.13,34.86-26.84,40.65-5.99,3.98-11.33,6.95-16.17,9-6.27,7.2-18.15,18.69-36.81,18.69-.3,0-.6,0-.89,0-20.21-.44-38.3-10.38-54.26-19.16-.39-.21-.78-.43-1.18-.65-6.73,4.76-12.36,11.19-17.7,20.07-1.06,1.77-1.96,3.29-2.72,4.62,10.11,6.87,16.99,16.02,22.4,23.22.93,1.24,1.83,2.44,2.67,3.51.38,0,.77.01,1.18.01,4.83,0,10.78-.67,17.09-1.38,8.1-.91,16.48-1.86,25.58-1.86,15.42,0,28.67,2.88,40.49,8.8,3.83,1.92,13.81,4.05,21.82,5.77,24.75,5.3,55.55,11.89,72.77,38.44,20.75,32,15.93,80.3,9.41,118.8-1.76,10.4-7.5,25.14-24.83,36.3-7.39,4.76-15.03,7.66-21.17,9.98-1.71.65-5.19,1.97-6.38,2.56-8.13,5.08-17.25,7.66-27.1,7.66-8.76,0-15.89-2.04-21.1-3.54-14.43,3.83-28.14,7.4-45.18,7.4Z"/>
      <path class="cls-1" d="M1825.68,578.03c-5.31,0-10.52-.97-15.47-2.88-19.7-7.61-29.56-25.27-36.08-36.95-.79-1.41-2.76-4.94-3.73-6.43-9.93-9.96-18.41-21.18-26.25-31.84-6.04-8.21-9.67-17.97-11.05-29.75-5.83-10.93-8.99-23.22-9.64-37.38-1.34-4.22-2.49-8.44-3.55-12.51-1.18-1.29-2.72-2.91-3.46-3.67-8.81-9.19-25.19-26.3-22.8-51.23.27-2.81.51-5.69.77-8.75,1.03-12.14,2.2-25.91,5.32-39.25,2.27-9.68,8.87-23.15,27.45-32.31,5.58-2.75,11.38-4.74,16.61-6.47.25-1.01.79-3.19.79-3.19,4-16.18,8.14-32.91,15.06-49.23,4.77-20.2,13.69-36.3,27.24-49.18,1.29-1.22,2.62-2.51,4.01-3.85,15.17-14.64,35.94-34.7,62.8-39.87.98-.19,1.97-.34,2.96-.45.69-1.21,1.41-2.42,2.15-3.61,12.45-19.82,28.14-23.99,39.11-23.99,1.49,0,2.99.08,4.47.24,11.14,1.22,20.85,6.09,29.51,14.84,4.34.4,8.54,1.5,12.54,3.28,9.25,2.78,17.68,8.97,27.12,19.87,8.09,9.35,16.36,20.92,16.36,35.84,0,10.43-4.04,20.21-11.39,27.55-7.32,7.32-17.06,11.34-27.42,11.34-8.38,0-16.11-2.54-23.09-7.52-.63-.01-1.26-.04-1.88-.08-.16-.01-.32-.02-.48-.03-3.22,3.05-7.29,6.82-12.32,10.17-.31.61-.62,1.21-.94,1.79-7.52,13.71-20.76,22.14-35.41,22.55-.37,0-.75.02-1.09.02-10.46,0-20.13-4.04-27.52-11.19-5.15,4.51-9.26,9.78-12.69,16.26-1.11,8-1.33,17.48-1.56,27.47-.38,16.75-.78,34.07-5.19,51.68-3.66,14.6-10.39,26.69-15.79,36.4-3.88,6.97-8.27,14.85-8.18,18.44.23,9.37-.57,18.06-1.34,26.46-.26,2.86-.51,5.59-.71,8.18.18.34.37.68.56,1.03,5.48,9.86,7.12,19.93,7.72,28.17.39.76.77,1.51,1.15,2.25,2.3,4.54,4.65,9.18,6.38,11.38,1.63,1.92,8.56,6.73,11.89,9.04,1.76,1.22,3.57,2.47,5.37,3.77,7.73-5.97,15.94-9.26,24.86-10q7.64-.63,18.41-10.13c1.85-1.63,3.94-3.47,6.18-5.4,11.94-10.29,17.85-19.87,27.64-35.72,1.16-1.88,2.35-3.82,3.59-5.8,1.56-2.52,3.09-4.87,4.43-6.95,1.7-2.63,3.3-5.11,4.77-7.54,11.41-18.93,26.34-22.91,36.87-22.91,14.04,0,27.04,7.59,33.95,19.81,5.35,9.46,9.25,24.85-2.54,44.42-5.13,8.51-10.06,20.76-15.29,33.74-7.37,18.28-14.98,37.16-26.18,54.3-15.8,24.18-35,38.95-58.7,45.15-6.01,1.57-12.44,2.37-19.11,2.37-5.98,0-12.24-.64-18.68-1.9-8.77,6.75-18.33,10.17-28.51,10.17Z"/>
      <path class="cls-1" d="M2142.04,652.61c-1.63,0-3.27-.05-4.88-.16-24.74-1.66-43.41-17.95-58.44-31.28-1.66.16-3.31.24-4.97.24-8.18,0-16.01-2.04-22.89-5.93-1.41-.12-2.96-.23-4-.3-13.13-.91-35.11-2.43-48.95-21.12-7.07-9.54-10.29-19.67-12.64-27.07-.46-1.46-1.38-4.35-1.91-5.66-6.59-9.99-10.27-21.77-11.2-35.9-12.17-25.67-21.87-52.89-30.45-77.01l-1.76-4.95c-8.25-23.13-10.67-49.32-12.3-72.05-1.64-22.92,8.67-41.79,16.19-55.56,2.71-4.96,6.07-11.12,6.79-14.01,7.51-30.52,17.1-65.64,35.97-97.26,1.06-3.38,2.1-6.89,3.2-10.57l.06-.2c8.41-28.18,18.87-63.25,49.31-84.09,17.96-12.3,39.33-14.75,56.5-16.72,5.57-.64,10.83-1.24,14.47-2.03,8.05-1.74,16.53-2.59,25.91-2.59,13.55,0,26.41,1.79,37.79,3.38,17.79.19,33.92,2.99,47.95,8.31,6.85,2.6,13.43,6.18,19.57,10.64,20.49,8.97,38.58,20.26,53.79,33.55,34.79,30.42,52.92,72.99,67.33,114.46,14.4,41.45,4.12,80.21-4.96,114.42l-.09.36c-.56,2.12-1.13,4.25-1.69,6.39-1.69,6.44-3,15.47-4.38,25.02-2.3,15.86-4.9,33.82-10.69,50.3-8.91,25.32-23.9,42.46-44.56,50.94-11.7,4.8-24.93,7.24-39.33,7.24-48.17,0-97.15-26.87-111.01-35.1-15.71-9.33-38.8-24.47-59.54-43.55-24.71-22.73-40.66-46.14-47.41-69.59-9.84-34.18,6.19-84.84,6.36-85.35,4.14-12.91,13.54-23.13,26.25-28.84,2.57-6.16,6.71-11.58,12.13-15.74,3.72-2.85,7.92-5,12.39-6.37,4.51-4.84,10.23-8.5,16.58-10.53,3.82-1.22,7.79-1.84,11.8-1.84,14.56,0,27.28,7.81,34.58,21.07,2.92-.22,5.79-.33,8.6-.33.7,0,1.41,0,2.11.02,5.89-3.03,13.31-5.81,22.21-5.81,10.13,0,19.78,3.72,27.17,10.47,3.59,3.28,11.34,11.79,12.98,25.28,2.85,3.86,5.31,8.03,7.36,12.43,4.74,10.17,4.95,21.93.59,32.28-3.25,7.71-8.59,14.01-15.85,18.7-5.07,3.28-10.06,5.15-13.92,6.51-6.94,4.84-16.99,11.28-30.43,11.28-1.84,0-3.65-.12-5.43-.36.64,3,1.15,5.79,1.62,8.35.49,2.71,1.29,7.11,1.87,8.72,12.06,13.31,25.02,17.82,50.91,17.82,1.53,0,3.13-.02,4.76-.05l1.73-.03c29.3-.58,30.12-1.85,34.1-7.93,3.21-4.91,2.9-9.65-1.96-29.83-1.86-7.73-3.78-15.71-5.2-24.8-.55-3.49-1.06-6.92-1.57-10.28-4.06-26.98-6.75-44.81-19.61-61.86-9.3-12.33-16.18-26.19-22.83-39.59-5.83-11.75-11.83-23.85-17.88-31.11-10.24-3.71-21.16-6.58-31.86-8.37-15.09.47-33.06,3.92-49.55,9.54-20.99,7.14-40.77,30.79-59.03,55.27-.95,1.28-1.9,2.6-2.82,3.96-3.93,11.31-7.78,20.03-12.39,28.06-15.11,26.31-16.44,50.57-16.83,87.4-.43,39.88-.73,68.69,14.32,97.52,9.77,18.72,8.56,38.75,7.6,54.84-.03.56-.07,1.12-.1,1.67,3.34,6.11,6.68,11.58,10.13,16.62.43.27,1.09.66,2.02,1.14,4.11,2.13,9.8,4.27,15.83,6.54,4.37,1.64,8.83,3.32,13.28,5.21,3.33-.62,6.59-.92,9.85-.92,4.75,0,9.4.67,13.83,1.99.08.02.51.07,2.03.07.8,0,1.6-.01,2.41-.02,1.23-.02,2.44-.03,3.68-.03,2.47,0,6.28.05,10.76.48l5.05.49c13.75,1.35,25.62,2.51,38.13,2.51,1.78,0,3.57-.02,5.31-.07,2.19-.06,4.43-.09,6.66-.09.23,0,.45,0,.68,0,11.83-8.64,27.06-17.97,44.9-21.4,4.94-.95,10.16-1.43,15.51-1.43,19.03,0,37.1,5.8,54.57,11.42,2.26.73,4.57,1.47,6.84,2.18,2.89-.52,5.75-1.03,8.55-1.51,5.92-1.04,11.58-2.03,16.94-3.12,1.32-5.72,2.47-12.3,3.58-18.74,3.74-21.56,7.98-46,22.56-65.06,8.93-11.68,18.85-20.64,27.59-28.54,10.63-9.6,18.3-16.54,20.53-24.15.82-2.79,1.58-5.66,2.29-8.56-1.22-10.11-1.22-19.24,0-27.83,4.47-31.67,2.55-56.29-1.99-85.76-.28-1.8-.5-3.66-.67-5.54-1.85-5.87-3.86-11.84-5.98-18.13-2.11-6.25-4.26-12.62-6.35-19.22-9.65-30.42-17.99-56.69-34.94-80.1-8.26-11.41-9.68-26.39-4.07-38.81-4.75-10.94-6.79-20.11-4.6-30.48,2.28-10.81,9.02-20.19,18.51-25.74,6-3.51,12.86-5.37,19.85-5.37,20.44,0,32.77,14.7,41.78,25.44,4.7,5.6,9.2,11.43,11.41,14.38,2.4,1.65,8.5,4.82,10.62,5.93,13.56,7.06,32.12,16.73,41.96,36.49,15.92,31.95,5.26,66.14-3.31,93.61-3.39,10.87-6.88,22.07-7.79,30.23,3.94,13.86,8.75,34.03,9.11,57.1.59,38.07-2.39,60.96-4.96,75.24.8,3.65,1.74,7.51,2.72,11.54,6,24.61,13.45,55.14-1.75,84.52-19.33,37.35-47.64,73.18-75.71,95.86-8.01,6.47-16.98,11.8-27.33,16.22-4.97,5.48-10.64,10.04-16.9,13.59-10.92,6.19-23.45,9.33-37.25,9.33-8.35,0-17.04-1.09-27.09-3.41-2.84.71-5.38,1.42-7.69,2.18-15.83,5.16-32.49,7.57-52.43,7.57-11.04,0-21.68-.72-31.97-1.42-.57-.04-1.13-.08-1.7-.12-19.31,15.56-42.96,32.99-72.51,32.99h0Z"/>
    </g>
  </g>
</svg>