<?xml version="1.0" encoding="UTF-8"?>
<svg id="Layer_2" data-name="Layer 2" xmlns="http://www.w3.org/2000/svg" viewBox="0 0 1291.65 497.86">
  <defs>
    <style>
      .cls-1 {
        fill: #5ee34d;
      }
    </style>
  </defs>
  <g id="Layer_1-2" data-name="Layer 1">
    <g>
      <path class="cls-1" d="M192.84,409.5c-8.75,0-15.61-7.03-15.61-16.01,0-12.27,1.08-24.45,2.13-36.23.27-3.06.55-6.22.81-9.33-.48-5.32-1.01-10.73-1.52-15.97-2.03-20.88-4.13-42.48-4.13-64.03,0-16.49,3.43-32.37,6.59-44.67-.02-9.31-.03-17.67-.03-25.51,0-20.3-2.03-41.26-4-61.53-2.03-20.88-4.12-42.47-4.12-64.02,0-5.1,2.94-9.78,7.61-11.84,1.61-.71,3.31-1.08,4.99-1.12,2.06-1.17,4.37-1.76,6.63-1.76,9.63,0,15.59,9.53,15.59,18.36,0,2.43-.69,4.77-1.93,6.78,1.69,6.18,4.54,12.74,7.49,19.55,5.51,12.71,11.21,25.85,11.21,40.22,0,22.76-6.42,44.93-12.64,66.37-1.7,5.86-3.45,11.89-5.02,17.8.03,11.31.07,22.62.11,33.93.08,20.59.16,41.88.16,62.83,0,8.91-.58,17.66-1.12,24.5,1.2,13.48,2.4,29.34,2.4,45.68,0,8.97-6.85,16.01-15.6,16.01Z"/>
      <path class="cls-1" d="M192.84,409.5c-8.75,0-15.61-7.03-15.61-16.01,0-12.27,1.08-24.45,2.13-36.23.27-3.06.55-6.22.81-9.33-.48-5.32-1.01-10.73-1.52-15.97-2.03-20.88-4.13-42.48-4.13-64.03,0-16.49,3.43-32.37,6.59-44.67-.02-9.31-.03-17.67-.03-25.51,0-20.3-2.03-41.26-4-61.53-2.03-20.88-4.12-42.47-4.12-64.02,0-5.1,2.94-9.78,7.61-11.84,1.61-.71,3.31-1.08,4.99-1.12,2.06-1.17,4.37-1.76,6.63-1.76,9.63,0,15.59,9.53,15.59,18.36,0,2.43-.69,4.77-1.93,6.78,1.69,6.18,4.54,12.74,7.49,19.55,5.51,12.71,11.21,25.85,11.21,40.22,0,22.76-6.42,44.93-12.64,66.37-1.7,5.86-3.45,11.89-5.02,17.8.03,11.31.07,22.62.11,33.93.08,20.59.16,41.88.16,62.83,0,8.91-.58,17.66-1.12,24.5,1.2,13.48,2.4,29.34,2.4,45.68,0,8.97-6.85,16.01-15.6,16.01Z"/>
    </g>
    <g>
      <path class="cls-1" d="M213.91,251.64c-32.42,0-65.02-1.43-96.55-2.81-30.84-1.35-62.72-2.75-93.73-2.75-6.85,0-13.25-2.17-17.02-5.79-3.59-3.44-4.35-7.74-2.11-11.58-2.89-2.95-4.5-6.33-4.5-9.56,0-8.39,10.38-14.97,23.63-14.97,8.52,0,17.03-.25,26.03-.51,9.07-.26,18.44-.53,27.9-.53,34.11,0,67.54,5.03,99.86,9.9,16.76,2.52,32.74,4.93,48.65,6.66.41-.23.82-.46,1.24-.7,11.14-6.27,23.77-13.39,40.53-13.39,8.23,0,18.61,3,23.04,11.42,1.88,3.57,2.28,7.29,2.28,9.79s-.39,6.21-2.28,9.78c-4.43,8.41-14.81,11.41-23.04,11.41-9.64,0-19.64-.4-30.35-1.2-6.38,2.56-14.4,4.83-23.58,4.83Z"/>
      <path class="cls-1" d="M213.91,251.64c-32.42,0-65.02-1.43-96.55-2.81-30.84-1.35-62.72-2.75-93.73-2.75-6.85,0-13.25-2.17-17.02-5.79-3.59-3.44-4.35-7.74-2.11-11.58-2.89-2.95-4.5-6.33-4.5-9.56,0-8.39,10.38-14.97,23.63-14.97,8.52,0,17.03-.25,26.03-.51,9.07-.26,18.44-.53,27.9-.53,34.11,0,67.54,5.03,99.86,9.9,16.76,2.52,32.74,4.93,48.65,6.66.41-.23.82-.46,1.24-.7,11.14-6.27,23.77-13.39,40.53-13.39,8.23,0,18.61,3,23.04,11.42,1.88,3.57,2.28,7.29,2.28,9.79s-.39,6.21-2.28,9.78c-4.43,8.41-14.81,11.41-23.04,11.41-9.64,0-19.64-.4-30.35-1.2-6.38,2.56-14.4,4.83-23.58,4.83Z"/>
    </g>
    <g>
      <path class="cls-1" d="M281.67,343.78c-7.01,0-14.47-5.6-14.49-15.99-.01-10.17-2.02-20.64-4.15-31.73-2.26-11.78-4.59-23.95-4.61-36.55-.03-20.46.47-41.18.96-61.22.48-19.87.98-40.43.95-60.56-.01-9.03.32-18.83,1-29.94-.96-8.46-1.43-16.17-1.44-23.52-.02-12.3,1.69-24.34,3.34-35.98,1.59-11.24,3.1-21.86,3.08-32.32,0-6.2,2.42-9.94,4.46-11.99,2.57-2.57,5.96-3.99,9.55-3.99,6.98,0,14.05,5.51,14.07,16.04,0,.77-.07,1.54-.2,2.3-.23,1.29-.65,2.52-1.23,3.64-.28,18.84-1.89,37.68-3.45,55.96-.82,9.58-1.67,19.48-2.3,29.17,1.44,11.75,3.74,23.88,5.97,35.62,3.9,20.53,7.93,41.76,7.96,63.26.03,20.71-1.27,41.55-2.53,61.71-1.23,19.75-2.51,40.18-2.48,60.07,0,4.7-1.62,8.92-4.58,11.88-2.67,2.67-6.18,4.14-9.9,4.14Z"/>
      <path class="cls-1" d="M281.67,343.78c-7.01,0-14.47-5.6-14.49-15.99-.01-10.17-2.02-20.64-4.15-31.73-2.26-11.78-4.59-23.95-4.61-36.55-.03-20.46.47-41.18.96-61.22.48-19.87.98-40.43.95-60.56-.01-9.03.32-18.83,1-29.94-.96-8.46-1.43-16.17-1.44-23.52-.02-12.3,1.69-24.34,3.34-35.98,1.59-11.24,3.1-21.86,3.08-32.32,0-6.2,2.42-9.94,4.46-11.99,2.57-2.57,5.96-3.99,9.55-3.99,6.98,0,14.05,5.51,14.07,16.04,0,.77-.07,1.54-.2,2.3-.23,1.29-.65,2.52-1.23,3.64-.28,18.84-1.89,37.68-3.45,55.96-.82,9.58-1.67,19.48-2.3,29.17,1.44,11.75,3.74,23.88,5.97,35.62,3.9,20.53,7.93,41.76,7.96,63.26.03,20.71-1.27,41.55-2.53,61.71-1.23,19.75-2.51,40.18-2.48,60.07,0,4.7-1.62,8.92-4.58,11.88-2.67,2.67-6.18,4.14-9.9,4.14Z"/>
    </g>
    <g>
      <path class="cls-1" d="M340,292.42c-9.48,0-16.93-6.88-17.09-15.72-.31-1.12-1.91-3.72-2.98-5.46-3.02-4.92-6.78-11.05-6.78-18.67,0-13.87-.2-28.02-.39-41.7-.19-13.77-.39-28.01-.39-42.07,0-2.7.84-5.27,2.33-7.39,2.48-4.25,7.09-7.05,12.46-7.05,8.58,0,18.83,7.6,20.11,17.41,2.43,1.66,4.84,3.4,6.98,5.3,5.32,4.75,8.02,9.99,8.02,15.58,0,14.56-1.35,29.06-2.65,43.08-1.31,14.05-2.54,27.33-2.54,40.69,0,8.97-7.5,16.01-17.08,16.01Z"/>
      <path class="cls-1" d="M340,292.42c-9.48,0-16.93-6.88-17.09-15.72-.31-1.12-1.91-3.72-2.98-5.46-3.02-4.92-6.78-11.05-6.78-18.67,0-13.87-.2-28.02-.39-41.7-.19-13.77-.39-28.01-.39-42.07,0-2.7.84-5.27,2.33-7.39,2.48-4.25,7.09-7.05,12.46-7.05,8.58,0,18.83,7.6,20.11,17.41,2.43,1.66,4.84,3.4,6.98,5.3,5.32,4.75,8.02,9.99,8.02,15.58,0,14.56-1.35,29.06-2.65,43.08-1.31,14.05-2.54,27.33-2.54,40.69,0,8.97-7.5,16.01-17.08,16.01Z"/>
    </g>
    <g>
      <path class="cls-1" d="M333.86,91.05c-4.7,0-9.14-2.37-11.4-6.49-1.54-2.8-2.02-5.94-1.37-8.92-1.71-2.34-2.52-5.13-2.52-7.71,0-5.63,3.74-11.86,12.09-13.11,1.43-.21,3.07-.32,4.87-.32,5.22,0,9.93,3.15,11.92,7.98.41.98.73,2,.98,3.05,2.17,5.39,1.92,12.02-.85,17.15-2.83,5.24-7.95,8.36-13.7,8.36Z"/>
      <path class="cls-1" d="M333.86,91.05c-4.7,0-9.14-2.37-11.4-6.49-1.54-2.8-2.02-5.94-1.37-8.92-1.71-2.34-2.52-5.13-2.52-7.71,0-5.63,3.74-11.86,12.09-13.11,1.43-.21,3.07-.32,4.87-.32,5.22,0,9.93,3.15,11.92,7.98.41.98.73,2,.98,3.05,2.17,5.39,1.92,12.02-.85,17.15-2.83,5.24-7.95,8.36-13.7,8.36Z"/>
    </g>
    <g>
      <path class="cls-1" d="M337.82,457.72c-.73,0-1.47-.05-2.2-.13-11.38-1.4-23.85-12.67-28.69-17.45-7.86-7.77-17.2-19.44-17.05-30.87.08-5.65,3.46-10.48,9.04-12.93,1.81-.79,3.95-1.39,6.53-1.82,4.44-.75,9.46-.9,12.88-.9,4.52,0,9.02.28,12.66.78,6.69.92,10.82,2.62,13.82,5.66,1.71,1.73,2.91,3.81,3.54,6.06.7-.16,1.39-.31,2.09-.45,2.85-.57,6.1-2.82,9.85-5.43,4.18-2.9,8.91-6.19,14.8-8.28,2.09-.74,4.38-1.12,6.79-1.12,6.63,0,13.65,2.89,20.45,5.68.23.1.47.19.7.29,1.14-.5,2.28-.98,3.41-1.46-.28-1.33-.58-2.7-.88-4.05-1.55-6.97-3.16-14.18-2.12-20.73.35-2.22.97-4.42,1.9-6.69-1.09-3.02-1.89-6.47-1.81-10.13.19-9.33,5.33-17.17,10.16-24.11-.13-.13-.27-.26-.4-.4-6.34-6.29-13.52-13.43-15.17-23.15-2.26-13.34-.37-26.71,1.46-39.63,1.77-12.49,3.44-24.3,1.06-34.23-2.15-8.95-5.81-17.73-9.69-27.03-3.91-9.37-7.92-18.99-10.53-29.27-.02,0-.05-.02-.07-.02-1.98-.66-3.56-1.37-4.97-2.24-4.02-2.49-6.55-6.45-6.96-10.87-.62-6.74,3.39-10.89,9.45-17.18.49-.51.99-1.03,1.46-1.52,3.64-7.58,10.32-8.24,12.5-8.24,5.16,0,9.85,3.03,11.94,7.71.84,1.88,2.31,6.52-.54,11.8,7.74,3.05,9.97,8.26,10.45,12.19,1.47,12.07,6.65,23.75,12.13,36.12,4.62,10.42,9.39,21.2,12.26,32.95,3.98,16.32,5.01,33.33,6,49.79.59,9.78,1.15,19.02,2.28,28,.62,4.91-.3,9.4-1.72,13.23,1.4,3.08,2.16,6.15,2.32,9.28.53,10.86-5.91,19.55-11.59,27.23-.14.18-.27.37-.41.55.05.07.09.14.14.21,5.91,9.34,13.26,20.97,8.17,33.24-2.44,5.89-6.7,9.98-10.9,12.9-1.05,3.9-2.95,7.21-5.7,9.89-2.41,2.35-6.68,5.16-13.38,5.16-2.62,0-5.26-.45-7.75-1.08-1.56,1.33-3.23,2.96-4.97,4.65-5.73,5.59-12.23,11.92-21.34,14.39-2.17.59-4.45.87-6.98.87-2.33,0-4.48-.24-6.38-.45-1.29-.14-2.51-.28-3.39-.29-1.16.76-3.17,2.43-4.56,3.6-5.58,4.65-11.91,9.93-20.11,9.93Z"/>
      <path class="cls-1" d="M337.82,457.72c-.73,0-1.47-.05-2.2-.13-11.38-1.4-23.85-12.67-28.69-17.45-7.86-7.77-17.2-19.44-17.05-30.87.08-5.65,3.46-10.48,9.04-12.93,1.81-.79,3.95-1.39,6.53-1.82,4.44-.75,9.46-.9,12.88-.9,4.52,0,9.02.28,12.66.78,6.69.92,10.82,2.62,13.82,5.66,1.71,1.73,2.91,3.81,3.54,6.06.7-.16,1.39-.31,2.09-.45,2.85-.57,6.1-2.82,9.85-5.43,4.18-2.9,8.91-6.19,14.8-8.28,2.09-.74,4.38-1.12,6.79-1.12,6.63,0,13.65,2.89,20.45,5.68.23.1.47.19.7.29,1.14-.5,2.28-.98,3.41-1.46-.28-1.33-.58-2.7-.88-4.05-1.55-6.97-3.16-14.18-2.12-20.73.35-2.22.97-4.42,1.9-6.69-1.09-3.02-1.89-6.47-1.81-10.13.19-9.33,5.33-17.17,10.16-24.11-.13-.13-.27-.26-.4-.4-6.34-6.29-13.52-13.43-15.17-23.15-2.26-13.34-.37-26.71,1.46-39.63,1.77-12.49,3.44-24.3,1.06-34.23-2.15-8.95-5.81-17.73-9.69-27.03-3.91-9.37-7.92-18.99-10.53-29.27-.02,0-.05-.02-.07-.02-1.98-.66-3.56-1.37-4.97-2.24-4.02-2.49-6.55-6.45-6.96-10.87-.62-6.74,3.39-10.89,9.45-17.18.49-.51.99-1.03,1.46-1.52,3.64-7.58,10.32-8.24,12.5-8.24,5.16,0,9.85,3.03,11.94,7.71.84,1.88,2.31,6.52-.54,11.8,7.74,3.05,9.97,8.26,10.45,12.19,1.47,12.07,6.65,23.75,12.13,36.12,4.62,10.42,9.39,21.2,12.26,32.95,3.98,16.32,5.01,33.33,6,49.79.59,9.78,1.15,19.02,2.28,28,.62,4.91-.3,9.4-1.72,13.23,1.4,3.08,2.16,6.15,2.32,9.28.53,10.86-5.91,19.55-11.59,27.23-.14.18-.27.37-.41.55.05.07.09.14.14.21,5.91,9.34,13.26,20.97,8.17,33.24-2.44,5.89-6.7,9.98-10.9,12.9-1.05,3.9-2.95,7.21-5.7,9.89-2.41,2.35-6.68,5.16-13.38,5.16-2.62,0-5.26-.45-7.75-1.08-1.56,1.33-3.23,2.96-4.97,4.65-5.73,5.59-12.23,11.92-21.34,14.39-2.17.59-4.45.87-6.98.87-2.33,0-4.48-.24-6.38-.45-1.29-.14-2.51-.28-3.39-.29-1.16.76-3.17,2.43-4.56,3.6-5.58,4.65-11.91,9.93-20.11,9.93Z"/>
    </g>
    <g>
      <path class="cls-1" d="M386.46,114.17c-3.68,0-7.07-1.16-9.8-3.35-3.52-2.82-5.53-7.09-5.53-11.72,0-3.84-.55-7.98-1.13-12.37-.66-5.02-1.35-10.22-1.35-15.75,0-6.2,3.83-11.65,9.98-14.23,3.51-1.47,7.12-1.78,9.52-1.78s6.01.31,9.52,1.78c6.16,2.58,9.99,8.03,9.99,14.23,0,6.92-2.77,12.96-5.43,18.01,1.67,2.21,2.61,4.93,2.61,7.77,0,5.3-2.58,10.26-7.09,13.6-3.32,2.46-7.33,3.81-11.3,3.81h0Z"/>
      <path class="cls-1" d="M386.46,114.17c-3.68,0-7.07-1.16-9.8-3.35-3.52-2.82-5.53-7.09-5.53-11.72,0-3.84-.55-7.98-1.13-12.37-.66-5.02-1.35-10.22-1.35-15.75,0-6.2,3.83-11.65,9.98-14.23,3.51-1.47,7.12-1.78,9.52-1.78s6.01.31,9.52,1.78c6.16,2.58,9.99,8.03,9.99,14.23,0,6.92-2.77,12.96-5.43,18.01,1.67,2.21,2.61,4.93,2.61,7.77,0,5.3-2.58,10.26-7.09,13.6-3.32,2.46-7.33,3.81-11.3,3.81h0Z"/>
    </g>
    <g>
      <path class="cls-1" d="M590.27,334.77c-5.13,0-9.8-3.04-11.89-7.75-4.03-9.05-4.13-18.87-4.22-27.54-.07-6.99-.14-13.58-2.18-17.72-.06-.13-.13-.26-.19-.39-8.78-7.28-17.43-15.49-22.98-25.93-.18-.33-.36-.67-.53-1-.27-.24-.53-.49-.8-.73-2.64-2.42-5.31-4.88-7.95-7.4-.27.47-.52.92-.74,1.35-.71,1.35-1.75,3.95-2.75,6.46-4.17,10.45-9.36,23.45-20.4,27.55-2.31.86-4.83,1.29-7.48,1.29-8.26,0-17.18-4.31-24.24-8.81-2.11-.24-4.18-.94-6.05-2.05-3.56-2.11-6.51-5.42-8.79-9.85-3.68-3.91-8.8-9.73-13.05-16.01-6.19-9.13-9.11-17.06-8.94-24.24.2-8.45,5.27-14.83,10.48-19.82,0-2.51.25-4.83.72-7.01,1.74-8.03,7.8-13.12,13.56-16.57.35-6.78.89-14.35,4.54-21.71,1.07-2.16,2.47-3.92,3.98-5.36-.01-.34-.01-.68,0-1.03.16-3.74,1.94-7.22,4.87-9.54.91-.76,4.84-4.31,8.33-7.47.35-1.66.95-3.32,1.8-4.92,2.57-4.87,8.34-10.55,16.11-10.55,2.34,0,4.62.54,6.67,1.57,2.87.83,5.38,2.63,7.08,5.13,1.61,2.37,2.87,5,3.79,7.96,3.63,2.92,5,7,4.98,10.37-.02,2.72-.93,5.63-2.82,8.04-.09.18-.19.37-.3.55-.04,1.3-.11,2.59-.18,3.88,8.7,8.48,16.45,18.18,18.03,31.57.28,2.38.99,5.34,1.73,8.47,1.14,4.77,2.4,10.05,2.69,15.47,6.08,10.08,11.17,18.9,15.79,27.38,8.61,7.99,16.77,16.11,22.9,26.03,1.41,1.13,2.83,2.26,4.23,3.37,12.82,10.16,26.07,20.66,32.87,35.95,1.81,4.06,1.44,8.69-.97,12.41-2.48,3.82-6.63,6.01-11.4,6.01-2.7,0-5.92-.68-11.79-1.99-.42,1.35-.83,2.61-1.22,3.72-.42,1.18-.78,2.1-1.16,2.89-3.52,7.42-10.16,7.99-12.11,7.99ZM484.89,212.35c.18.81.38,1.64.57,2.47,1.02,4.36,2.07,8.86,2.43,13.25v.12c.05.49.1,1.06.15,1.68,1.05-1.54,2.23-2.91,3.6-4.08,6.01-5.11,13.84-5.26,19.56-5.37.33,0,.7-.01,1.09-.02.9-4.52,1.04-9.14.42-13.79-1.16-3.61-2.19-7.5-3.2-12.07-.8-2.03-1.72-4.06-2.77-6.09-3.23,2.73-7.04,4.86-10.82,6.77-.12.51-.24,1.01-.37,1.51-1.67,6.32-6.01,11.29-10.67,15.62Z"/>
      <path class="cls-1" d="M590.27,334.77c-5.13,0-9.8-3.04-11.89-7.75-4.03-9.05-4.13-18.87-4.22-27.54-.07-6.99-.14-13.58-2.18-17.72-.06-.13-.13-.26-.19-.39-8.78-7.28-17.43-15.49-22.98-25.93-.18-.33-.36-.67-.53-1-.27-.24-.53-.49-.8-.73-2.64-2.42-5.31-4.88-7.95-7.4-.27.47-.52.92-.74,1.35-.71,1.35-1.75,3.95-2.75,6.46-4.17,10.45-9.36,23.45-20.4,27.55-2.31.86-4.83,1.29-7.48,1.29-8.26,0-17.18-4.31-24.24-8.81-2.11-.24-4.18-.94-6.05-2.05-3.56-2.11-6.51-5.42-8.79-9.85-3.68-3.91-8.8-9.73-13.05-16.01-6.19-9.13-9.11-17.06-8.94-24.24.2-8.45,5.27-14.83,10.48-19.82,0-2.51.25-4.83.72-7.01,1.74-8.03,7.8-13.12,13.56-16.57.35-6.78.89-14.35,4.54-21.71,1.07-2.16,2.47-3.92,3.98-5.36-.01-.34-.01-.68,0-1.03.16-3.74,1.94-7.22,4.87-9.54.91-.76,4.84-4.31,8.33-7.47.35-1.66.95-3.32,1.8-4.92,2.57-4.87,8.34-10.55,16.11-10.55,2.34,0,4.62.54,6.67,1.57,2.87.83,5.38,2.63,7.08,5.13,1.61,2.37,2.87,5,3.79,7.96,3.63,2.92,5,7,4.98,10.37-.02,2.72-.93,5.63-2.82,8.04-.09.18-.19.37-.3.55-.04,1.3-.11,2.59-.18,3.88,8.7,8.48,16.45,18.18,18.03,31.57.28,2.38.99,5.34,1.73,8.47,1.14,4.77,2.4,10.05,2.69,15.47,6.08,10.08,11.17,18.9,15.79,27.38,8.61,7.99,16.77,16.11,22.9,26.03,1.41,1.13,2.83,2.26,4.23,3.37,12.82,10.16,26.07,20.66,32.87,35.95,1.81,4.06,1.44,8.69-.97,12.41-2.48,3.82-6.63,6.01-11.4,6.01-2.7,0-5.92-.68-11.79-1.99-.42,1.35-.83,2.61-1.22,3.72-.42,1.18-.78,2.1-1.16,2.89-3.52,7.42-10.16,7.99-12.11,7.99ZM484.89,212.35c.18.81.38,1.64.57,2.47,1.02,4.36,2.07,8.86,2.43,13.25v.12c.05.49.1,1.06.15,1.68,1.05-1.54,2.23-2.91,3.6-4.08,6.01-5.11,13.84-5.26,19.56-5.37.33,0,.7-.01,1.09-.02.9-4.52,1.04-9.14.42-13.79-1.16-3.61-2.19-7.5-3.2-12.07-.8-2.03-1.72-4.06-2.77-6.09-3.23,2.73-7.04,4.86-10.82,6.77-.12.51-.24,1.01-.37,1.51-1.67,6.32-6.01,11.29-10.67,15.62Z"/>
    </g>
    <g>
      <path class="cls-1" d="M624.72,249.61c-.29,0-.59,0-.87,0-7.85-.09-13.62-4.99-17.83-8.57-.61-.52-1.19-1.01-1.74-1.46-.55-.32-1.09-.68-1.62-1.07-1.01-.05-2.5-.06-3.59-.06-7.17-.03-16.99-.07-23.19-7.36-1.79-2.11-5.36-7.56-2.95-15.52-2.72-2.56-5.02-5.96-5.17-10.75-.09-2.99.68-8.03,5.83-12.38-4.68-7.08-3.98-12.98-2.56-16.71,4.27-11.21,14.86-16.92,23.37-21.5,3.78-2.04,7.68-4.14,9.82-6.09.24-.87.51-2.38.7-3.44.87-4.85,2.05-11.49,7.27-16.56,5.47-5.32,12.62-7.33,19.31-8.11,1.51-.93,3.22-1.56,5.02-1.81.46-.06.92-.1,1.39-.12.14,0,.28,0,.42,0,2.69,0,11.72.96,14.93,13.32,1.03,3.97,1.3,8.19,1.34,11.04.04,2.73-.09,6.77-.95,10.53-2.79,12.11-11.7,13.31-14.37,13.39-.29,0-.57.01-.84.01-.07,0-.13,0-.2,0-2.21,1.69-4.42,2.99-6.31,4.11-1.99,1.18-3.87,2.29-4.69,3.22-4.97,5.7-6.65,11.06-9.43,19.96l-.47,1.5c-1.51,4.81-4.94,7.88-8.94,10.07-.06.24-.12.48-.19.72,2.03,1.54,3.68,3.4,5.11,5.27,3.67-4.27,8.26-8.5,14.96-8.87.82-.05,1.68-.07,2.54-.07,3.86,0,7.48.43,10.97.85,2.85.34,5.55.66,7.83.66,1.96,0,3.37-.24,4.3-.73,2.09-1.09,4.44-1.66,6.8-1.66,5.27,0,10.3,2.79,14.16,7.84,2.35,3.08,4.13,6.73,4.99,10.27,1.93,7.88-.98,15.14-7.42,18.49-13.32,6.93-32.5,11.58-47.74,11.58h0Z"/>
      <path class="cls-1" d="M624.72,249.61c-.29,0-.59,0-.87,0-7.85-.09-13.62-4.99-17.83-8.57-.61-.52-1.19-1.01-1.74-1.46-.55-.32-1.09-.68-1.62-1.07-1.01-.05-2.5-.06-3.59-.06-7.17-.03-16.99-.07-23.19-7.36-1.79-2.11-5.36-7.56-2.95-15.52-2.72-2.56-5.02-5.96-5.17-10.75-.09-2.99.68-8.03,5.83-12.38-4.68-7.08-3.98-12.98-2.56-16.71,4.27-11.21,14.86-16.92,23.37-21.5,3.78-2.04,7.68-4.14,9.82-6.09.24-.87.51-2.38.7-3.44.87-4.85,2.05-11.49,7.27-16.56,5.47-5.32,12.62-7.33,19.31-8.11,1.51-.93,3.22-1.56,5.02-1.81.46-.06.92-.1,1.39-.12.14,0,.28,0,.42,0,2.69,0,11.72.96,14.93,13.32,1.03,3.97,1.3,8.19,1.34,11.04.04,2.73-.09,6.77-.95,10.53-2.79,12.11-11.7,13.31-14.37,13.39-.29,0-.57.01-.84.01-.07,0-.13,0-.2,0-2.21,1.69-4.42,2.99-6.31,4.11-1.99,1.18-3.87,2.29-4.69,3.22-4.97,5.7-6.65,11.06-9.43,19.96l-.47,1.5c-1.51,4.81-4.94,7.88-8.94,10.07-.06.24-.12.48-.19.72,2.03,1.54,3.68,3.4,5.11,5.27,3.67-4.27,8.26-8.5,14.96-8.87.82-.05,1.68-.07,2.54-.07,3.86,0,7.48.43,10.97.85,2.85.34,5.55.66,7.83.66,1.96,0,3.37-.24,4.3-.73,2.09-1.09,4.44-1.66,6.8-1.66,5.27,0,10.3,2.79,14.16,7.84,2.35,3.08,4.13,6.73,4.99,10.27,1.93,7.88-.98,15.14-7.42,18.49-13.32,6.93-32.5,11.58-47.74,11.58h0Z"/>
    </g>
    <g>
      <path class="cls-1" d="M695.47,307.03c-2.95,0-7.28-.17-11.18-.97-12.85-2.65-14.06-11.76-14.13-14.49-.28-11.71,4.34-22.65,8.41-32.3,3.34-7.91,6.49-15.37,6.39-21.53-.05-3.28-.19-6.63-.41-10.22-2.56-12.01-3.8-21.96-3.88-31.24-.01-1.53-.04-3.11-.08-4.71-1.97-15.01-4.16-31.96-4.16-48.84,0-14-3.65-28.45-7.51-43.75-4.2-16.65-8.55-33.87-8.29-51.63.05-3.17,1.26-6.22,3.42-8.55,1.13-1.23,6.51-6.75,14.39-10.02,2.49-1.9,5.69-3.01,9.24-3.01,7.69,0,18.58,5.61,23.54,10.65,4.26,4.33,5.1,8.73,5.06,11.65-.17,11.33-4.56,21.91-8.44,31.25-3.31,7.96-6.43,15.49-6.47,21.91-.1,16.03,1.22,32.63,2.5,48.67,1.03,12.94,2.1,26.32,2.46,39.65l.05.35c1.45,11.08,2.96,22.52,3.77,34,1.25,5.67,2.73,11.5,4.17,17.15,4.04,15.93,8.23,32.39,8.63,49.42.09,3.78-1.35,7.39-4.05,10.15-2.84,2.91-6.71,4.64-12.54,5.59-4.09.67-8.18.81-10.89.81Z"/>
      <path class="cls-1" d="M695.47,307.03c-2.95,0-7.28-.17-11.18-.97-12.85-2.65-14.06-11.76-14.13-14.49-.28-11.71,4.34-22.65,8.41-32.3,3.34-7.91,6.49-15.37,6.39-21.53-.05-3.28-.19-6.63-.41-10.22-2.56-12.01-3.8-21.96-3.88-31.24-.01-1.53-.04-3.11-.08-4.71-1.97-15.01-4.16-31.96-4.16-48.84,0-14-3.65-28.45-7.51-43.75-4.2-16.65-8.55-33.87-8.29-51.63.05-3.17,1.26-6.22,3.42-8.55,1.13-1.23,6.51-6.75,14.39-10.02,2.49-1.9,5.69-3.01,9.24-3.01,7.69,0,18.58,5.61,23.54,10.65,4.26,4.33,5.1,8.73,5.06,11.65-.17,11.33-4.56,21.91-8.44,31.25-3.31,7.96-6.43,15.49-6.47,21.91-.1,16.03,1.22,32.63,2.5,48.67,1.03,12.94,2.1,26.32,2.46,39.65l.05.35c1.45,11.08,2.96,22.52,3.77,34,1.25,5.67,2.73,11.5,4.17,17.15,4.04,15.93,8.23,32.39,8.63,49.42.09,3.78-1.35,7.39-4.05,10.15-2.84,2.91-6.71,4.64-12.54,5.59-4.09.67-8.18.81-10.89.81Z"/>
    </g>
    <g>
      <path class="cls-1" d="M686.51,208.19c-5.35,0-10.08-3.21-12.05-8.17-.99-2.49-2.59-8.94,3.87-15.01,1.52-1.43,3.32-2.44,5.25-2.99.71-.52,1.38-1.04,1.81-1.42,1-1.73,1.63-7.54,2.01-11.04.98-9.01,2.09-19.23,9.34-26.44,9.04-8.98,20.98-13.32,32.53-17.52,6.75-2.45,13.17-4.79,18.14-7.78.49-.76.98-1.52,1.47-2.28,3.29-5.09,6.68-10.34,10.38-15.43,1.01-3.58,1.85-7.44,2.74-11.49,2.71-12.34,5.51-25.09,13.8-35.11,2.52-3.04,6.22-4.79,10.15-4.79,2.48,0,7.22.74,11,5.67.5.65.98,1.37,1.48,2.21,3.67,1.5,6.53,4.64,7.67,8.73.36,1.29.53,2.62.53,4.08,0,1.91-.31,4-.87,5.88-1.32,4.4-3.92,7.18-6.78,8.76-.71,1.52-1.41,3.13-2.12,4.78-2.64,6.11-5.64,13.03-10.81,18.94-1.16,1.32-2.31,2.72-3.5,4.25-2.68,7.88-6.03,13.88-10.46,18.73-1.73,1.9-3.7,3.7-5.86,5.38-5.56,8.4-10.67,15.42-16.88,21.86l-3.28,3.41c-12.97,13.46-26.39,27.37-40.19,40.36-.51.48-1.07.92-1.65,1.32-1.62,1.09-7.42,4.61-14.37,4.69-1.02.27-2.14.44-3.36.44h0Z"/>
      <path class="cls-1" d="M686.51,208.19c-5.35,0-10.08-3.21-12.05-8.17-.99-2.49-2.59-8.94,3.87-15.01,1.52-1.43,3.32-2.44,5.25-2.99.71-.52,1.38-1.04,1.81-1.42,1-1.73,1.63-7.54,2.01-11.04.98-9.01,2.09-19.23,9.34-26.44,9.04-8.98,20.98-13.32,32.53-17.52,6.75-2.45,13.17-4.79,18.14-7.78.49-.76.98-1.52,1.47-2.28,3.29-5.09,6.68-10.34,10.38-15.43,1.01-3.58,1.85-7.44,2.74-11.49,2.71-12.34,5.51-25.09,13.8-35.11,2.52-3.04,6.22-4.79,10.15-4.79,2.48,0,7.22.74,11,5.67.5.65.98,1.37,1.48,2.21,3.67,1.5,6.53,4.64,7.67,8.73.36,1.29.53,2.62.53,4.08,0,1.91-.31,4-.87,5.88-1.32,4.4-3.92,7.18-6.78,8.76-.71,1.52-1.41,3.13-2.12,4.78-2.64,6.11-5.64,13.03-10.81,18.94-1.16,1.32-2.31,2.72-3.5,4.25-2.68,7.88-6.03,13.88-10.46,18.73-1.73,1.9-3.7,3.7-5.86,5.38-5.56,8.4-10.67,15.42-16.88,21.86l-3.28,3.41c-12.97,13.46-26.39,27.37-40.19,40.36-.51.48-1.07.92-1.65,1.32-1.62,1.09-7.42,4.61-14.37,4.69-1.02.27-2.14.44-3.36.44h0Z"/>
    </g>
    <g>
      <path class="cls-1" d="M882.14,385.28c-5.33,0-9.78-2.87-13.23-8.53-1.11-1.82-2.11-3.83-2.92-5.44-.2-.41-.46-.93-.64-1.27-5.7-7.77-11.28-15.72-16.67-23.42-5.43-7.75-11.05-15.77-16.71-23.46-10.13-13.76-20.71-27.61-30.94-41.01-10.3-13.49-20.95-27.44-31.22-41.38-6.08-8.26-9.7-17.44-13.2-26.32-.16-.42-.33-.83-.49-1.25-4.44-4.92-8.31-9.62-11.77-14.32-.43-.58-.83-1.18-1.21-1.8-.24.02-.48.04-.72.06-2.74.21-5.57.43-8.37.43-5,0-12.26-.65-17.43-6.23-2.72-2.94-4.08-6.52-4.83-9.82-.42-.34-.82-.69-1.22-1.05-6.29-5.74-6.59-11.41-5.74-15.15.3-1.3.78-2.51,1.41-3.62.08-1.81.54-3.61,1.39-5.28,2.21-4.34,6.66-7.05,11.49-7.05.21,0,.42,0,.63.02,1.47.07,4.61.47,7.76,2.45,4.74-1.79,9.63-3.45,14.72-3.45,6.96,0,11.32,3.1,13.75,5.7,5.71,6.12,6.91,14.2,7.72,20.92,1.41,1.03,2.63,2.25,3.68,3.67,4.87,6.61,8.19,13.93,10.89,20.54,6.79,7.22,14.07,14.05,21.74,21.25,13.23,12.43,26.91,25.27,38.02,40.37,11.06,15.03,19.46,31.71,27.58,47.84,7.99,15.88,15.54,30.87,25.32,44.15.72.97,2.4,3.26,3.85,10.11,1.32,6.23.96,9.42.58,11.28-.82,3.97-3.12,7.24-6.48,9.21-2.05,1.2-4.39,1.83-6.77,1.83Z"/>
      <path class="cls-1" d="M882.14,385.28c-5.33,0-9.78-2.87-13.23-8.53-1.11-1.82-2.11-3.83-2.92-5.44-.2-.41-.46-.93-.64-1.27-5.7-7.77-11.28-15.72-16.67-23.42-5.43-7.75-11.05-15.77-16.71-23.46-10.13-13.76-20.71-27.61-30.94-41.01-10.3-13.49-20.95-27.44-31.22-41.38-6.08-8.26-9.7-17.44-13.2-26.32-.16-.42-.33-.83-.49-1.25-4.44-4.92-8.31-9.62-11.77-14.32-.43-.58-.83-1.18-1.21-1.8-.24.02-.48.04-.72.06-2.74.21-5.57.43-8.37.43-5,0-12.26-.65-17.43-6.23-2.72-2.94-4.08-6.52-4.83-9.82-.42-.34-.82-.69-1.22-1.05-6.29-5.74-6.59-11.41-5.74-15.15.3-1.3.78-2.51,1.41-3.62.08-1.81.54-3.61,1.39-5.28,2.21-4.34,6.66-7.05,11.49-7.05.21,0,.42,0,.63.02,1.47.07,4.61.47,7.76,2.45,4.74-1.79,9.63-3.45,14.72-3.45,6.96,0,11.32,3.1,13.75,5.7,5.71,6.12,6.91,14.2,7.72,20.92,1.41,1.03,2.63,2.25,3.68,3.67,4.87,6.61,8.19,13.93,10.89,20.54,6.79,7.22,14.07,14.05,21.74,21.25,13.23,12.43,26.91,25.27,38.02,40.37,11.06,15.03,19.46,31.71,27.58,47.84,7.99,15.88,15.54,30.87,25.32,44.15.72.97,2.4,3.26,3.85,10.11,1.32,6.23.96,9.42.58,11.28-.82,3.97-3.12,7.24-6.48,9.21-2.05,1.2-4.39,1.83-6.77,1.83Z"/>
    </g>
    <g>
      <path class="cls-1" d="M968.07,342.52c-3.63,0-7.03-1.44-9.58-4.04-4.37-4.48-4.24-10.1-4.13-14.19,0-.17,0-.36.01-.56-3.46-10.25-2.7-19.97-1.46-28.34-2.88-5.35-4.32-10.64-4.38-16.05-.06-5.03-2.67-11.25-5.44-17.84-3.51-8.36-7.5-17.84-7.46-28.15.07-16.69,3.19-33.02,6.21-48.82,2.93-15.31,5.7-29.78,5.75-44.07.03-7.16-1.86-14.91-3.86-23.12-2.28-9.35-4.64-19.02-4.6-29.33.05-12.78,15.1-19.46,23.15-19.46,4.23,0,8.08,1.54,10.86,4.32,2.03,2.04,3.37,4.61,3.89,7.42.78,3.36.37,7.38-2.4,11.36-.49.71-1.06,1.41-1.71,2.13.28,13.07,1.66,26.18,3.11,39.95,1.65,15.74,3.36,32.01,3.3,48.36-.06,15.85.46,32.08.97,47.77.47,14.66.96,29.82.99,44.84,0,5.13-.59,10.07-1.29,14.64.77.93,1.57,1.89,2.4,2.87,4.42,5.24,9.42,11.18,12.35,18.74,1.39,3.58,1.16,7.52-.64,11.1-.69,1.37-2.12,4.21-10.07,11.41-8.22,7.44-10.43,8.05-12.38,8.58-1.17.32-2.37.48-3.58.48Z"/>
      <path class="cls-1" d="M968.07,342.52c-3.63,0-7.03-1.44-9.58-4.04-4.37-4.48-4.24-10.1-4.13-14.19,0-.17,0-.36.01-.56-3.46-10.25-2.7-19.97-1.46-28.34-2.88-5.35-4.32-10.64-4.38-16.05-.06-5.03-2.67-11.25-5.44-17.84-3.51-8.36-7.5-17.84-7.46-28.15.07-16.69,3.19-33.02,6.21-48.82,2.93-15.31,5.7-29.78,5.75-44.07.03-7.16-1.86-14.91-3.86-23.12-2.28-9.35-4.64-19.02-4.6-29.33.05-12.78,15.1-19.46,23.15-19.46,4.23,0,8.08,1.54,10.86,4.32,2.03,2.04,3.37,4.61,3.89,7.42.78,3.36.37,7.38-2.4,11.36-.49.71-1.06,1.41-1.71,2.13.28,13.07,1.66,26.18,3.11,39.95,1.65,15.74,3.36,32.01,3.3,48.36-.06,15.85.46,32.08.97,47.77.47,14.66.96,29.82.99,44.84,0,5.13-.59,10.07-1.29,14.64.77.93,1.57,1.89,2.4,2.87,4.42,5.24,9.42,11.18,12.35,18.74,1.39,3.58,1.16,7.52-.64,11.1-.69,1.37-2.12,4.21-10.07,11.41-8.22,7.44-10.43,8.05-12.38,8.58-1.17.32-2.37.48-3.58.48Z"/>
    </g>
    <g>
      <path class="cls-1" d="M916.4,217.91c-7.7,0-12.51-2.22-15.52-4.98-3.42-2.48-5.58-6.5-5.54-11.08.03-3.56,1.15-8.67,9.63-16.68,7.96-7.52,13.21-8.76,16.58-8.88,1.28-.62,3.81-2.62,5.53-3.98,5.37-4.25,12.05-9.54,20.78-9.54h.15c10.17.07,20.4.27,30.3.47,12.23.24,24.88.49,37.28.49,7.94,0,15.12-.1,21.95-.3.15,0,.29,0,.44,0,6.28,0,11.77,3.96,14.31,10.33,1.39,3.48,1.72,7.07,1.76,9.48.04,2.42-.19,6.04-1.48,9.57-2.36,6.45-7.73,10.58-14.01,10.77-1.88.06-5.05,1.37-8.11,2.64-5.05,2.09-10.77,4.47-17.52,4.6-13.22.26-26.38,1.72-40.32,3.26-15.35,1.7-31.22,3.46-47.15,3.46-.9,0-1.81,0-2.7-.02-1.4.17-3.78.41-6.37.41Z"/>
      <path class="cls-1" d="M916.4,217.91c-7.7,0-12.51-2.22-15.52-4.98-3.42-2.48-5.58-6.5-5.54-11.08.03-3.56,1.15-8.67,9.63-16.68,7.96-7.52,13.21-8.76,16.58-8.88,1.28-.62,3.81-2.62,5.53-3.98,5.37-4.25,12.05-9.54,20.78-9.54h.15c10.17.07,20.4.27,30.3.47,12.23.24,24.88.49,37.28.49,7.94,0,15.12-.1,21.95-.3.15,0,.29,0,.44,0,6.28,0,11.77,3.96,14.31,10.33,1.39,3.48,1.72,7.07,1.76,9.48.04,2.42-.19,6.04-1.48,9.57-2.36,6.45-7.73,10.58-14.01,10.77-1.88.06-5.05,1.37-8.11,2.64-5.05,2.09-10.77,4.47-17.52,4.6-13.22.26-26.38,1.72-40.32,3.26-15.35,1.7-31.22,3.46-47.15,3.46-.9,0-1.81,0-2.7-.02-1.4.17-3.78.41-6.37.41Z"/>
    </g>
    <g>
      <path class="cls-1" d="M1034.18,497.86c-8.45,0-15.07-7.03-15.07-16.01,0-4.61,2.01-8.15,4.26-10.77-.17-9.77-.55-19.67-.91-29.29-.51-13.41-1.03-27.27-1.03-41.03s-.11-27.18-.22-40.44c-.11-13.32-.22-27.08-.22-40.65s.04-27.29.09-40.59c.04-13.28.09-27.01.09-40.51,0-14.81,5.1-28.69,10.45-42.12-.43-1.99-.87-3.99-1.3-5.95-3.08-13.96-6.27-28.4-6.27-43.32,0-13.35-.35-27.01-.69-40.21-.35-13.37-.7-27.2-.7-40.88,0-5.25,3.16-10.01,8.04-11.98,1.57-.64,3.22-.95,4.85-.95.93,0,1.85.1,2.76.3,1.89-1.08,4.06-1.68,6.36-1.68,4.38,0,10.31,2.5,12.64,9.56.32.97.6,2.09.85,3.35.27,1.42.74,4.25.74,7.29,0,4.51-2.36,8.7-6.22,11.03-.27.16-.55.32-.82.46,1.18,9.29,4.31,19.02,7.58,29.19,4.58,14.24,9.31,28.96,9.31,44.49,0,14.72-5,28.42-10.27,41.66,1.75,8.9,3.32,19.04,3.32,29.46,0,13.62-.23,27.42-.45,40.76-.22,13.24-.44,26.93-.44,40.34,0,14.53-2.14,28.81-4.2,42.62-2.01,13.47-3.92,26.19-3.92,38.8,0,13.52-.01,27.04-.02,40.56-.01,13.51-.02,27.02-.02,40.54,0,4.11-1.59,7.36-3.46,9.81,0,.05,0,.11,0,.16,0,8.97-6.62,16.01-15.07,16.01Z"/>
      <path class="cls-1" d="M1034.18,497.86c-8.45,0-15.07-7.03-15.07-16.01,0-4.61,2.01-8.15,4.26-10.77-.17-9.77-.55-19.67-.91-29.29-.51-13.41-1.03-27.27-1.03-41.03s-.11-27.18-.22-40.44c-.11-13.32-.22-27.08-.22-40.65s.04-27.29.09-40.59c.04-13.28.09-27.01.09-40.51,0-14.81,5.1-28.69,10.45-42.12-.43-1.99-.87-3.99-1.3-5.95-3.08-13.96-6.27-28.4-6.27-43.32,0-13.35-.35-27.01-.69-40.21-.35-13.37-.7-27.2-.7-40.88,0-5.25,3.16-10.01,8.04-11.98,1.57-.64,3.22-.95,4.85-.95.93,0,1.85.1,2.76.3,1.89-1.08,4.06-1.68,6.36-1.68,4.38,0,10.31,2.5,12.64,9.56.32.97.6,2.09.85,3.35.27,1.42.74,4.25.74,7.29,0,4.51-2.36,8.7-6.22,11.03-.27.16-.55.32-.82.46,1.18,9.29,4.31,19.02,7.58,29.19,4.58,14.24,9.31,28.96,9.31,44.49,0,14.72-5,28.42-10.27,41.66,1.75,8.9,3.32,19.04,3.32,29.46,0,13.62-.23,27.42-.45,40.76-.22,13.24-.44,26.93-.44,40.34,0,14.53-2.14,28.81-4.2,42.62-2.01,13.47-3.92,26.19-3.92,38.8,0,13.52-.01,27.04-.02,40.56-.01,13.51-.02,27.02-.02,40.54,0,4.11-1.59,7.36-3.46,9.81,0,.05,0,.11,0,.16,0,8.97-6.62,16.01-15.07,16.01Z"/>
    </g>
    <g>
      <path class="cls-1" d="M1091.52,374.35c-8.86,0-15.79-7.03-15.79-16.01,0-4.41-1.82-9.78-3.74-15.47-2.39-7.06-5.1-15.07-5.1-23.72,0-10.12,2.89-19.52,6-27.59-.02-.77-.02-1.53-.02-2.28,0-14.63,6.73-27.74,13.24-40.42.23-.45.46-.89.69-1.34-.12-10.13-.94-20.26-1.79-30.93-.44-5.45-.88-10.99-1.23-16.58-.32.01-.61.02-.89.02h-.07c-4.89,0-9.34-2.65-11.62-6.9-1-1.87-1.53-3.96-1.53-6.09,0-3.24,1.17-9.33,9.01-13.73,2.22-1.25,5.01-2.41,8.28-3.45,4.75-1.51,11.84-3.12,17.48-3.12,2.66,0,4.94.35,6.97,1.08,5.81,2.07,9.56,7.26,9.56,13.21s.31,12.39.65,18.94c.33,6.58.68,13.39.68,20.25,0,12.16-4.87,23.66-9.83,33.68-.88,12.71-5.96,24.45-10.89,35.84-.93,2.14-1.82,4.2-2.67,6.23.61,8.22,2.19,16.62,3.85,25.46,2.24,11.9,4.55,24.2,4.55,36.91,0,8.97-6.94,16.01-15.79,16.01Z"/>
      <path class="cls-1" d="M1091.52,374.35c-8.86,0-15.79-7.03-15.79-16.01,0-4.41-1.82-9.78-3.74-15.47-2.39-7.06-5.1-15.07-5.1-23.72,0-10.12,2.89-19.52,6-27.59-.02-.77-.02-1.53-.02-2.28,0-14.63,6.73-27.74,13.24-40.42.23-.45.46-.89.69-1.34-.12-10.13-.94-20.26-1.79-30.93-.44-5.45-.88-10.99-1.23-16.58-.32.01-.61.02-.89.02h-.07c-4.89,0-9.34-2.65-11.62-6.9-1-1.87-1.53-3.96-1.53-6.09,0-3.24,1.17-9.33,9.01-13.73,2.22-1.25,5.01-2.41,8.28-3.45,4.75-1.51,11.84-3.12,17.48-3.12,2.66,0,4.94.35,6.97,1.08,5.81,2.07,9.56,7.26,9.56,13.21s.31,12.39.65,18.94c.33,6.58.68,13.39.68,20.25,0,12.16-4.87,23.66-9.83,33.68-.88,12.71-5.96,24.45-10.89,35.84-.93,2.14-1.82,4.2-2.67,6.23.61,8.22,2.19,16.62,3.85,25.46,2.24,11.9,4.55,24.2,4.55,36.91,0,8.97-6.94,16.01-15.79,16.01Z"/>
    </g>
    <g>
      <path class="cls-1" d="M1106.79,126.03c-8.33,0-12.94-5.59-13.81-11.14-.54-3.47.33-8.11,4.03-11.6,0-.25-.01-.5-.03-.75-3.06-3.53-3.98-8.49-2.3-12.95,1.89-5.03,6.73-8.33,12.1-8.33s9.67,2.63,12.5,7.18c8.29,9.05,11.22,17.63,8.71,25.52-1.69,5.31-6.6,8.93-12.16,8.98-.06,0-.12.01-.19.02-2.51,1.98-5.55,3.06-8.85,3.06Z"/>
      <path class="cls-1" d="M1106.79,126.03c-8.33,0-12.94-5.59-13.81-11.14-.54-3.47.33-8.11,4.03-11.6,0-.25-.01-.5-.03-.75-3.06-3.53-3.98-8.49-2.3-12.95,1.89-5.03,6.73-8.33,12.1-8.33s9.67,2.63,12.5,7.18c8.29,9.05,11.22,17.63,8.71,25.52-1.69,5.31-6.6,8.93-12.16,8.98-.06,0-.12.01-.19.02-2.51,1.98-5.55,3.06-8.85,3.06Z"/>
    </g>
    <g>
      <path class="cls-1" d="M1186.22,408.57c-3.52,0-6.83-1.38-9.32-3.89-3.84-3.86-4.46-8.61-4.53-16.29-2.01-.41-4.03-.84-5.89-1.41-1.89-.58-3.48-1.26-4.86-2.08-3.92-2.33-6.42-5.95-7.04-10.21-1.53-10.43-3.49-21.14-5.39-31.49-2.37-12.93-4.81-26.3-6.54-39.66-1.79-13.9-1.8-27.93-1.81-41.51,0-10.8,0-21-.85-31.05-.71-8.57-1.78-17.1-2.91-26.14-1.88-15.11-3.83-30.74-3.97-46.33-.18-19.91,13.1-35.57,24.81-49.39,3.43-4.05,6.68-7.88,9.46-11.63,4.89-6.61,10.38-14.02,17.45-19.08,7.64-8.97,16.24-10.93,22.26-10.93,1.25,0,2.52.08,3.79.24.75.1,1.68.28,2.71.63.85-.18,1.73-.27,2.6-.27,1.43,0,2.88.24,4.29.74,5.96,2.1,9.54,7.86,8.71,14.01-.24,1.79-.92,3.66-2.02,5.35-.04,2.1-.57,3.76-.88,4.56-1.95,5.01-6.69,8.24-12.07,8.24-1.51,0-3.03-.26-4.5-.79-1.58-.56-3.02-1.37-4.3-2.44-.32-.03-.63-.05-.93-.05-.74,0-1.42.09-2.08.3-2.32,3.84-4.41,9.03-6.43,14.08-1.25,3.1-2.54,6.31-3.91,9.28-2.41,5.2-5.84,9.23-8.6,12.48-2.35,2.77-4.57,5.38-4.69,7.03-.39,5.33.17,10.97.77,16.94.43,4.32.87,8.8,1,13.48.32,12.38-2.26,24.35-4.75,35.93-2.54,11.78-4.94,22.91-3.99,33.1,1.02,11,4.23,22.09,7.62,33.82,3.16,10.94,6.44,22.26,8,34.03,1.3,9.76,5.71,19.72,10.37,30.27,5.06,11.44,10.3,23.28,12.21,36.31.58,3.97-.18,7.55-6.26,18.22-5.89,10.33-9.04,13.72-14.07,15.1-1.14.31-2.31.47-3.48.47Z"/>
      <path class="cls-1" d="M1186.22,408.57c-3.52,0-6.83-1.38-9.32-3.89-3.84-3.86-4.46-8.61-4.53-16.29-2.01-.41-4.03-.84-5.89-1.41-1.89-.58-3.48-1.26-4.86-2.08-3.92-2.33-6.42-5.95-7.04-10.21-1.53-10.43-3.49-21.14-5.39-31.49-2.37-12.93-4.81-26.3-6.54-39.66-1.79-13.9-1.8-27.93-1.81-41.51,0-10.8,0-21-.85-31.05-.71-8.57-1.78-17.1-2.91-26.14-1.88-15.11-3.83-30.74-3.97-46.33-.18-19.91,13.1-35.57,24.81-49.39,3.43-4.05,6.68-7.88,9.46-11.63,4.89-6.61,10.38-14.02,17.45-19.08,7.64-8.97,16.24-10.93,22.26-10.93,1.25,0,2.52.08,3.79.24.75.1,1.68.28,2.71.63.85-.18,1.73-.27,2.6-.27,1.43,0,2.88.24,4.29.74,5.96,2.1,9.54,7.86,8.71,14.01-.24,1.79-.92,3.66-2.02,5.35-.04,2.1-.57,3.76-.88,4.56-1.95,5.01-6.69,8.24-12.07,8.24-1.51,0-3.03-.26-4.5-.79-1.58-.56-3.02-1.37-4.3-2.44-.32-.03-.63-.05-.93-.05-.74,0-1.42.09-2.08.3-2.32,3.84-4.41,9.03-6.43,14.08-1.25,3.1-2.54,6.31-3.91,9.28-2.41,5.2-5.84,9.23-8.6,12.48-2.35,2.77-4.57,5.38-4.69,7.03-.39,5.33.17,10.97.77,16.94.43,4.32.87,8.8,1,13.48.32,12.38-2.26,24.35-4.75,35.93-2.54,11.78-4.94,22.91-3.99,33.1,1.02,11,4.23,22.09,7.62,33.82,3.16,10.94,6.44,22.26,8,34.03,1.3,9.76,5.71,19.72,10.37,30.27,5.06,11.44,10.3,23.28,12.21,36.31.58,3.97-.18,7.55-6.26,18.22-5.89,10.33-9.04,13.72-14.07,15.1-1.14.31-2.31.47-3.48.47Z"/>
    </g>
    <g>
      <path class="cls-1" d="M1207.06,222.6c-11.02,0-19.83-7.23-27.6-14.21-2.36,2.35-5.6,3.76-9.1,3.76-2.73,0-7.98-.83-12.39-6.4-1.45-1.83-2.75-4.09-3.86-6.72-1.94-4.61-3.1-9.83-3.1-13.97,0-2.87.54-5.47,1.6-7.73,2.4-5.08,7.33-8.24,12.87-8.24,7.54,0,14.89.7,22.01,1.37,6.81.65,13.25,1.26,19.57,1.26,2.77,0,12.05,1.01,14.92,14.03.89,4.05,1.08,8.43,1.08,11.4s-.19,7.35-1.08,11.41c-2.87,13.03-12.15,14.04-14.92,14.04Z"/>
      <path class="cls-1" d="M1207.06,222.6c-11.02,0-19.83-7.23-27.6-14.21-2.36,2.35-5.6,3.76-9.1,3.76-2.73,0-7.98-.83-12.39-6.4-1.45-1.83-2.75-4.09-3.86-6.72-1.94-4.61-3.1-9.83-3.1-13.97,0-2.87.54-5.47,1.6-7.73,2.4-5.08,7.33-8.24,12.87-8.24,7.54,0,14.89.7,22.01,1.37,6.81.65,13.25,1.26,19.57,1.26,2.77,0,12.05,1.01,14.92,14.03.89,4.05,1.08,8.43,1.08,11.4s-.19,7.35-1.08,11.41c-2.87,13.03-12.15,14.04-14.92,14.04Z"/>
    </g>
    <g>
      <path class="cls-1" d="M1249.66,347.45c-9.43,0-16.81-7.03-16.81-16.01,0-20.46,1.43-41.03,2.82-60.92.85-12.23,1.73-24.86,2.26-37.24-6.05-17.76-11.73-36.64-11.73-55.92,0-6.15,4.34-11.44,10.37-12.64.03,0,2.7-.54,6.26-1.46,2.39-2.47,5.7-3.94,9.32-3.94,1.77,0,10.73.56,13.26,11.51.47,2.02.71,4.27.71,6.53,0,6.21-.51,12.25-1,18.09-.47,5.55-.91,10.8-.91,15.93,0,5.73-.11,11.67-.33,18.07.43,1.23.85,2.46,1.28,3.69,7.18,20.69,14.61,42.07,14.61,64.26,0,9.17-4.47,16.8-8.42,23.53-2.06,3.51-4.88,8.32-4.88,10.49,0,8.97-7.39,16.01-16.81,16.01Z"/>
      <path class="cls-1" d="M1249.66,347.45c-9.43,0-16.81-7.03-16.81-16.01,0-20.46,1.43-41.03,2.82-60.92.85-12.23,1.73-24.86,2.26-37.24-6.05-17.76-11.73-36.64-11.73-55.92,0-6.15,4.34-11.44,10.37-12.64.03,0,2.7-.54,6.26-1.46,2.39-2.47,5.7-3.94,9.32-3.94,1.77,0,10.73.56,13.26,11.51.47,2.02.71,4.27.71,6.53,0,6.21-.51,12.25-1,18.09-.47,5.55-.91,10.8-.91,15.93,0,5.73-.11,11.67-.33,18.07.43,1.23.85,2.46,1.28,3.69,7.18,20.69,14.61,42.07,14.61,64.26,0,9.17-4.47,16.8-8.42,23.53-2.06,3.51-4.88,8.32-4.88,10.49,0,8.97-7.39,16.01-16.81,16.01Z"/>
    </g>
    <g>
      <path class="cls-1" d="M1260.31,104.1c-2.9,0-7.2-.19-11.19-1.1-12.8-2.93-13.79-12.15-13.79-14.9,0-5.82,2.97-10.17,4.75-12.77.16-.23.34-.5.51-.75.47-2.34,1.58-4.53,3.23-6.29.49-.53,2.68-2.77,6.12-5.03,2.75-2.97,7.08-5.03,13.12-5.03,4.28,0,9.61.98,14.27,2.61,2.76.97,5.13,2.12,7.05,3.44,6.32,4.32,7.27,9.89,7.27,12.83,0,6.65-3.97,11.23-6.35,13.96-.15.17-.32.37-.49.57-1,3.87-4.09,9.27-13.32,11.38-3.98.91-8.28,1.1-11.18,1.1Z"/>
      <path class="cls-1" d="M1260.31,104.1c-2.9,0-7.2-.19-11.19-1.1-12.8-2.93-13.79-12.15-13.79-14.9,0-5.82,2.97-10.17,4.75-12.77.16-.23.34-.5.51-.75.47-2.34,1.58-4.53,3.23-6.29.49-.53,2.68-2.77,6.12-5.03,2.75-2.97,7.08-5.03,13.12-5.03,4.28,0,9.61.98,14.27,2.61,2.76.97,5.13,2.12,7.05,3.44,6.32,4.32,7.27,9.89,7.27,12.83,0,6.65-3.97,11.23-6.35,13.96-.15.17-.32.37-.49.57-1,3.87-4.09,9.27-13.32,11.38-3.98.91-8.28,1.1-11.18,1.1Z"/>
    </g>
  </g>
</svg>