<?xml version="1.0" encoding="UTF-8"?>
<svg id="Layer_2" data-name="Layer 2" xmlns="http://www.w3.org/2000/svg" viewBox="0 0 901 857.86">
  <defs>
    <style>
      .cls-1 {
        fill: #620097;
      }
    </style>
  </defs>
  <g id="Layer_1-2" data-name="Layer 1">
    <path class="cls-1" d="M456.18,666.29l261.07,189.68c7.58,5.5,17.77-1.9,14.88-10.81l-99.72-306.91c-1.29-3.98.12-8.35,3.51-10.81l261.07-189.68c7.58-5.5,3.68-17.49-5.68-17.49h-322.7c-4.19,0-7.9-2.7-9.19-6.68L459.69,6.68c-2.89-8.91-15.49-8.91-18.39,0l-99.72,306.91c-1.29,3.98-5.01,6.68-9.19,6.68H9.69c-9.37,0-13.26,11.98-5.68,17.49l261.07,189.68c3.39,2.46,4.81,6.83,3.51,10.81l-99.72,306.91c-2.89,8.91,7.3,16.31,14.88,10.81l261.07-189.68c3.39-2.46,7.98-2.46,11.36,0Z"/>
  </g>
</svg>