<?xml version="1.0" encoding="UTF-8"?>
<svg id="Layer_2" data-name="Layer 2" xmlns="http://www.w3.org/2000/svg" viewBox="0 0 4731.95 929.49">
  <defs>
    <style>
      .cls-1 {
        fill: #5ee34d;
      }
    </style>
  </defs>
  <g id="Layer_1-2" data-name="Layer 1">
    <path class="cls-1" d="M2243.29,760.58c-29.54,0-45.27-28.11-51.19-38.69-7.57-13.53-14.26-29.73-17.88-43.33-2.23-8.38-3.33-15.7-3.34-22.39-.05-25.63,15.66-37.43,22.42-41.31,10.11-5.81,19.97-7.39,26.5-8.43.58-.09,1.25-.2,1.87-.3,26.26-15.45,50.77-35.3,76.66-56.28,28.01-22.69,56.97-46.15,89.75-64.98,36.34-20.88,77.06-27.81,116.44-34.52,33.96-5.78,66.05-11.24,90.02-25.02,14.03-8.06,29.28-15.57,47.38-23.3,23.58-31.87,48.19-64.47,84-85.05,17-9.76,34.33-16.89,51.09-23.79,15.04-6.19,29.24-12.03,41.68-19.17,3.58-2.06,7.45-3.63,11.48-4.68,6.11-6.95,13.74-13.77,23.28-19.02,7.17-3.95,15.33-6.04,23.59-6.04,15.34,0,27.74,6.68,38.17,14.19,11.1-10.13,22.65-12.62,31.34-12.62,4.98,0,9.97.86,14.68,2.53,6.83-2.61,13.89-4.24,21.4-4.24,13.85,0,26.8,5.9,35.53,16.17,8.69,10.23,16.64,28.22,5.19,55.84-1.85,4.47-4.08,8.98-6.47,13.47.22,1.84.35,3.67.42,5.47,14.79,4,30.19,11.2,39.7,27.6,11.63,20.05,16.66,41.76,21.1,60.92,2.03,8.75,3.98,17.19,6.37,24.63,5.3,4.24,8.54,8.9,10.23,11.81,13.05,22.5,8.88,39.22,3.08,49.29-7.25,12.6-20.79,20.43-35.33,20.43h-.01c-6.85,0-15.42-1.65-23.98-7.62-11.51,2.67-22.4,5.11-32.27,5.11-24.51,0-35.88-15.04-39.63-21.5-12.59-21.71-15.43-45.41-17.93-66.33-1.66-13.88-3.38-28.24-7.69-35.67-2.88-4.96-4.75-10.03-5.94-14.89-3.08-3.12-5.72-6.59-7.92-10.37-.31-.54-.62-1.08-.91-1.63-5.86,2.47-12.15,3.72-18.74,3.72-14.95,0-28.15-6.3-41.32-14.47-9.4,17.26-21.22,34.24-40.16,45.13-32.88,18.89-67.89,31.93-101.75,44.53-10.83,4.03-21.21,7.9-31.42,11.9-21.32,28.15-43.69,54.26-74.02,71.68-28.52,16.38-57.16,34.58-84.85,52.17-28.43,18.07-57.84,36.75-87.9,54.02-31.65,18.19-64.99,32.04-97.23,45.43-22.12,9.19-43.37,18.02-63.54,27.92.02,7.71-1.66,14.7-5.92,21.77-3.57,5.92-8.61,10.79-14.53,14.19h0c-6.52,3.75-13.96,5.73-21.49,5.73h-.01Z"/>
    <path class="cls-1" d="M846.83,929.49c-12.66,0-24.76-6.05-32.36-16.19-8.5-11.34-8.93-23.56-7.67-32.9-2.11-.76-4.17-1.71-6.16-2.84-12.49-7.09-20.03-20.04-20.47-33.77-6.73-54.37,6.28-105.74,19.08-145.35,6.25-48.36,17.54-99.69,35.44-161.1,6.39-21.93,6.25-46.87,6.1-73.29-.09-16.43-.19-33.42,1.24-50.95,1.26-15.54,8.55-28.05,17.87-38.88-7.9-12.55-15.47-26.2-20.32-41.04-.49-1.5-.91-3.02-1.27-4.56-1.3-1.9-2.46-3.85-3.49-5.87-8.96-17.61-7.21-37.5-5.35-58.56.28-3.15.64-7.23.9-11.14-12.76-3.44-29.82-6.42-42.94-6.81-3.2,4.11-7.37,10.5-10.41,15.16-12.31,18.85-26.26,40.22-50.26,47.94-7.05,2.27-14.66,3.42-22.63,3.42-15.81,0-30.57-4.43-43.59-8.35-6.3-1.89-13.92-4.18-18.52-4.8-35.38,16.63-69.27,37.55-105.04,59.64-41.71,25.75-84.83,52.38-131.42,72.21-48.95,20.84-101.85,29.68-153.01,38.22-10.8,1.8-21.9,3.66-32.77,5.6-26.34,13.97-52.91,28.46-78.67,42.52-1.44.79-2.89,1.58-4.35,2.37,2.41,6.02,3.25,11.83,3.29,16.93.12,14.86-8,28.57-21.1,35.59-6.36,3.41-13.64,5.21-21.04,5.21h-.02c-6.35,0-22.45,0-52-24.56-9.76-3.78-17.56-11.22-21.86-20.6C5.32,512.67-1.83,496.17.39,479.19c1.79-13.66,10.08-25.68,22.18-32.17,13.95-7.48,27.8-7.95,37.92-8.3,1.69-.06,4.02-.14,5.58-.26,41.73-21.33,87.24-32.12,127.18-39.65,48.67-25.59,89.2-45.35,127.15-62,102.02-44.75,206.57-82.45,295.38-113.43.64-.22,1.28-.44,1.93-.64,14.44-6.46,28.23-11.87,42.07-16.53,10.99-3.7,23.28-8.84,36.3-14.28,34.57-14.46,73.76-30.85,113.87-30.85,6.58,0,13.08.45,19.32,1.33,39.1,5.55,79.3,41.74,90.69,52.69,8.09,7.78,20.67,25.23,14.05,54.65-1.65,7.35-4.2,14.39-6.98,21.23,5.86,2.59,11.68,5.41,17.19,8.76,22.13,13.48,28.45,30.36,29.85,42.15,2.09,17.56-4.43,32.22-13.18,44.08,7.82,16.82,14.13,38.06,11.05,61.29-4.41,33.26-17.07,62.85-29.32,91.47-7.05,16.48-13.71,32.04-18.26,47.16-7.49,24.88-17.09,50.11-26.38,74.51-6.96,18.28-14.14,37.15-20.33,55.61-2.46,20.76-3.84,40.74-4.18,60.33,16.36-9.5,32.56-21,49.32-32.9,25.63-18.19,52.14-37,82.34-50.88,16.15-7.42,34.13-12.2,56.17-14.89,31.72-13.64,65.18-28.52,97.92-46.65,16.28-9.01,32.64-17.72,48.47-26.15,39.87-21.22,77.54-41.27,113.8-65.74,25.74-17.38,53.14-30.52,79.63-43.23,3.1-1.49,6.26-3,9.42-4.53,2.81-3.58,5.62-7.2,8.37-10.75,19.18-24.72,39-50.28,64.21-71.36,17.22-14.4,33.21-30.37,49.06-47.31-61.68-43.53-115.85-99.77-168.28-154.21-16.15-16.76-31.4-32.6-46.86-48.08-18.48-18.5-11.84-44.35-9.66-52.85,2.59-10.09,6.99-22.26,11.76-32.55,6.94-14.96,16.52-30.99,35.07-36.38,6.89-2,13.93-3.59,21.26-4.79,4.6-4.14,10.17-7.23,16.35-8.89,3.44-.93,6.94-1.38,10.41-1.38,8.48,0,16.8,2.7,23.69,7.77,10.92.48,21.66,1.46,32.03,2.62,19.33-7.88,43.17-15.66,68.93-16.88,1.74-.08,3.52-.12,5.28-.12,25.88,0,49.73,8.77,71.85,19.45,5.83-.76,11.67-1.55,17.4-2.33,29.29-3.97,59.58-8.07,90.66-8.63,26.81-.49,53.48-2.77,81.72-5.19,28.32-2.43,57.6-4.94,87.11-5.47,17.67-.32,36.14-.68,56.35-1.1,33.96-8.29,63-12.4,91.05-12.9.68-.01,1.37-.02,2.05-.02,15.64,0,31.73,3.19,48.96,9.71,44.62-1.03,91.86-2.09,139.5-2.95.24,0,.54,0,.78,0,8.43,0,36.68,3.02,46.25,41.9,3.02,12.27,3.75,25.42,3.83,34.3.08,8.76-.4,21.73-3.14,33.79-8.8,38.68-36.91,42.18-45.32,42.34-.69.01-1.36.02-2.05.02-42.71,0-79.78-23.2-115.62-45.65-13.99-8.76-27.33-17.11-39.93-23.35l-12.06.28c-33.93.79-68.97,1.6-103.54,2.33-24.24,6.29-48.45,14.11-74,22.37-57.53,18.6-117.01,37.83-178.93,38.95-.68.01-1.35.02-2.02.02-36.51,0-69.88-17.89-99.32-33.67-1.5-.81-2.98-1.6-4.44-2.38-14.9,1.6-27.82,2.57-39.95,3.02-3.08.11-6.26.17-9.47.17-23.21,0-46.19-2.92-68.42-5.75-.48-.06-.96-.12-1.44-.18-5.69,2.63-11.46,5.4-17.44,8.26-.69.33-1.38.66-2.07.99-.1,7.57-.09,16.29.59,21.47,46.05,41.03,100.78,82.36,166.56,125.76,6.17-3.64,13.19-5.54,20.32-5.54,4.28,0,8.6.69,12.8,2.1,7.64,2.58,14.15,7.34,18.89,13.49.63.43,1.26.87,1.8,1.24,10.11,6.91,25.39,17.35,28.02,37.76,1.22,9.45-.99,18.81-5.91,26.56-1.06,5.49-3.21,11.51-7.32,17.21-7.69,10.68-20.11,17.05-33.21,17.06-1.61,0-3.22-.1-4.82-.28-11.67,13.22-22.79,27.59-34.37,42.55-22.86,29.54-46.5,60.09-77.51,85.39-23.53,19.19-49.44,33.58-74.46,46.07-16.2,19.79-35.74,41.2-59.84,57.84-20.03,13.84-39.48,29.61-60.07,46.3-31.04,25.16-63.13,51.18-98.92,71.51-38.1,21.65-83.44,22.65-123.44,23.53-13.34.29-26.04.57-38.03,1.52-3.71,1.58-7.42,3.17-11.14,4.75-16.42,7-33.41,14.24-50.08,21.68-20.27,9.04-40.54,34.36-60.13,58.85-26.57,33.2-56.68,70.83-100.03,85.91-4.32,1.5-8.81,2.26-13.36,2.26Z"/>
    <path class="cls-1" d="M4560.64,676.76c-11.98,0-21.46-4.55-28.72-10.19-.45.05-.89.1-1.33.15-.37.09-.74.17-1.12.25-.99.21-2.32.47-3.65.72-.2.04-.41.08-.61.12-3.11.91-6.37,1.45-9.73,1.57-4.92,2.03-10.23,3.09-15.76,3.09-5.15,0-10.2-.95-15.01-2.83-11.31-4.41-19.62-13.11-23.73-24.35-19.91-14.4-37.24-32.11-53.89-49.92-2.67.26-5.38.54-8.14.82-13.89,1.42-28.25,2.89-42.88,2.89-19.85,0-36.76-2.83-51.68-8.65-48.08-18.77-91.56-46.23-133.62-72.78-11.51-7.27-23.38-14.76-35.08-21.9-5.63-1.72-11.09-3.62-16.31-5.65-28.18-11-60.5-15.49-94.72-20.24-37.3-5.18-75.86-10.53-112.81-24.96-40.28-15.73-70.58-46.21-99.88-75.7-7.6-7.65-14.87-14.96-22.14-21.85-1.75-.68-3.49-1.37-5.24-2.05-36.75-14.35-73.76-27.4-108.82-39.57-9.15.5-18.52,1.25-28.33,2.04-17.68,1.42-35.97,2.89-54.22,2.89-29.25,0-52.63-3.81-73.58-11.99-5.45-2.13-22.55-10.57-26.45-33.58-1.43-.94-2.78-1.86-4.01-2.74-5.54-3.93-9.99-7.74-13.61-11.64-16.49-17.73-13.76-36.06-11.82-43.12,1.29-4.7,3.45-12.57,24.52-38.17,16.04-19.49,30-34.4,51.33-34.4,5.15,0,10.18.94,14.95,2.81,15.15,5.91,25.22,19.86,26.95,37.31.37,3.77.42,7.85.12,12.67,31.68,11.65,63.87,22.78,95.24,33.63,3.63,1.25,7.26,2.51,10.89,3.77,2.57-.05,5.06-.08,7.52-.08,29.25,0,52.63,3.81,73.58,11.99,26.49,10.34,48.51,27.49,64.04,41.19,38.33,15.11,76.94,30.73,114.35,45.87,43.44,17.58,88.36,35.76,132.63,53.04,33.65,13.14,64.22,30.27,87.9,44.44,22.6,5.71,47.74,7.83,74.25,10.08,38.39,3.25,78.09,6.6,115.9,21.36,32.27,12.6,57.86,35.34,82.36,60.73,17.04.57,31.84,3.38,45.07,8.55,7.74,3.02,14.48,6.6,20.44,9.76,4.43,2.35,8.62,4.57,12.05,5.91,6.7,2.61,12.36,6.75,16.71,12.03,11.63-18.46,25.13-36.11,38.45-52.94,16.75-41.29,33.84-83.65,40.54-124.34-.74-.7-1.46-1.43-2.15-2.19-2.81-.97-5.33-1.95-7.63-2.98-23.26-10.43-28.16-28.1-29.01-37.71-1.01-11.39,2.82-22.73,10.49-31.12,7.7-8.41,18.72-13.23,30.24-13.23,4.11,0,8.94.49,15.29,2.76,6.13-4.45,14.18-8.04,24.41-8.04,18.27,0,33.72,11.94,38.78,28.87,6.23,2.07,11.18,4.27,15.53,6.89,13.9,8.38,22.06,21.87,22.38,37.02,1.5,71.42-45.03,129.67-86.08,181.07-1,1.25-2,2.5-3,3.75-2.18,5.39-4.51,11.18-6.75,16.85-.89,2.89-.67,11.79-.52,17.69.38,15.49.86,34.54-7.84,53.14-1.77,4.24-4.38,8.44-8.03,12.4-.51.55-1.25,1.33-2.13,2.25-1.27,1.32-2.98,3.05-4.69,4.78-1.16,1.18-2.73,2.77-3.83,3.9-1.9,2.31-4.08,4.44-6.53,6.32-2.55,1.96-5.13,3.49-7.65,4.66-9.48,12.06-21.33,15.51-28.18,16.46-1.99.28-4.02.42-6.04.42Z"/>
  </g>
</svg>