<?xml version="1.0" encoding="UTF-8"?>
<svg id="Layer_2" data-name="Layer 2" xmlns="http://www.w3.org/2000/svg" viewBox="0 0 5196.46 1645.43">
  <defs>
    <style>
      .cls-1 {
        fill: #5ee34d;
      }
    </style>
  </defs>
  <g id="Layer_1-2" data-name="Layer 1">
    <path class="cls-1" d="M416.2,1628.43c-4.1,0-16.57,0-47.4-12.57-32.25-13.15-40.71-22.46-43.89-25.96-8.46-9.31-12.49-21.04-11.33-33.01,1.74-18.05,4.45-35.39,7.07-52.16,3.37-21.6,6.56-42,7.56-62.63,2.11-43.55,24.36-82.35,45.89-119.88,7.33-12.78,14.38-25.08,20.28-36.95-3.54-6.26-7.27-12.63-11.11-19.2-21.46-36.65-43.64-74.55-46.81-117.64-.58-7.89-.07-15.53,1.22-22.94-.11.02-.23.05-.34.07-86.76,17.7-142.99,39.21-191.65,102.12-7.84,10.14-19.66,15.53-31.67,15.53-7.47,0-15.01-2.09-21.7-6.42-.03-.02-1-.65-2.66-1.68-15.3,9.21-26.14,13.01-36.86,13.01-11.27,0-21.79-4.31-29.61-12.13-8.26-8.26-13.26-18.4-19.33-53.69-5.53-32.14-6.09-48.94,5.18-63.52,11.66-15.07,29.69-22.72,53.6-22.72,13.79,0,28.41,2.38,42.54,4.69,10.63,1.73,21.61,3.52,28.92,3.63,40.26-33.38,77.43-56.6,116.53-72.88,40.25-16.75,82.33-25.74,128.2-27.36,7.11-9.72,17.79-22.37,37.67-22.37.11,0,.22,0,.33,0,3.04-.72,6.14-1.08,9.22-1.08,10.38,0,20.62,4.04,28.3,11.72,7.37,7.37,11.48,17.15,11.89,27.24,2.19,17.7,4.66,35.89,7.06,53.51,7,51.45,14.24,104.66,16.18,157.56.59,16.15-1.8,32.84-7.27,50.63,15.66,35.35,17.45,58.59,17.28,73.58-.16,13.53-2.34,26.58-5.9,39.18,4.16-2.79,8.31-5.38,12.36-7.81,3.69-7.48,7.91-14.17,12.75-20.21,19.96-24.91,37.69-52.29,56.46-81.27,25.39-39.21,51.64-79.75,84.64-115.09,14.71-15.75,31.41-31.63,52.31-49.72,13.12-17.75,25.24-36.68,38.02-56.65,22.77-35.58,46.31-72.36,77.09-103.99,49.19-50.55,94.83-101.23,143.15-154.88l14.04-15.58c22.37-24.82,46.27-47.36,69.39-69.15,32.99-31.11,64.16-60.5,89.83-94.91,7.68-10.29,19.88-16.43,32.64-16.43,7.95,0,21.03,2.27,31.63,15.08,7.89,2.47,15.32,7.42,20.71,14.76,9.71,5.76,16.52,15.35,18.77,26.43.57,2.79.83,5.61.79,8.41.65,1.34,1.35,2.75,1.93,3.89,2.71,5.43,5.78,11.58,7.99,18.07,7.95,23.34-.31,39.11-5.94,46.44-21.02,27.36-48.85,47.4-75.27,63.43-3.55,12.72-6.96,25.66-10.29,38.29-9.5,36.09-19.32,73.4-33.41,109.64-31.82,81.9-64.17,169.89-79.47,265.9-2.78,17.42-8.65,33.52-14.3,46.37,1.86,9.3,3.64,18.71,5.25,28.2,20.14-8.95,41.42-10.44,60.45-11.77,4.56-.32,9.02-.63,13.22-1.03,7.73-16.35,17.36-32.93,32.64-45.56,25.49-21.06,54.63-37.31,82.81-53.02,35.29-19.67,68.61-38.26,90.45-63.57,22.77-26.4,37.42-62.68,52.92-101.09,11.92-29.55,24.25-60.1,41.21-87.99,18.76-30.86,32.38-65.32,46.79-101.81,13.05-33.04,26.55-67.2,44.54-99.68,22.02-39.75,49.06-75.54,77.4-111.4,1.76-8.6,3.92-16.67,6.49-24.25-1.22-1.19-2.43-2.37-3.63-3.54-19.26-18.79-37.45-36.53-57.42-49.52-38.62-25.11-83.51-39.43-131.04-54.58-34.07-10.86-69.3-22.09-103.48-37.88-37.87-17.49-71.11-41.88-103.25-65.46-24.38-17.89-47.68-34.98-71.7-48.25-3.81,1.17-7.77,1.77-11.76,1.77-4.3,0-8.63-.69-12.82-2.11-9.99-3.38-18.13-10.52-22.82-19.73-18.4-7.04-35.7-27.5-39.44-47.27-3.22-17.02,3.02-33.99,16.29-44.28,8.68-6.73,17.34-17.04,26.51-27.95,12.59-14.98,26.86-31.96,45.65-44.78,66.46-45.35,143.93-67.93,218.85-89.77,40.12-11.69,78.03-22.74,114.02-36.98,1.13-.54,3.69-1.82,5.78-2.87,28.5-14.27,40.13-19.02,52.81-19.02,19.01,0,35.1,12.1,40.05,30.11,5.09,18.53-2.38,34.11-19.95,60-20.61,30.37-28.96,35.45-37.74,38.93-14.16,5.62-27.92,9.78-41.22,13.8-15.72,4.75-30.57,9.23-44.04,15.58-72.96,34.36-138.75,71.23-199.85,112.05,9.82,9.05,19.43,16.6,28.13,19.96,17.07,6.6,34.51,13.12,51.38,19.43,65.07,24.33,132.36,49.49,195.91,85.39,16.09,9.09,32.65,18.2,48.67,27.01,61.05,33.58,124.19,68.31,181.5,112.75,12.02,9.32,18.02,24.27,15.65,39.01-1.35,8.44-6.48,23.28-25.41,31.64-1.4,1.04-2.87,2.01-4.4,2.89-1.72,12.01-8.86,22.82-19.73,29.04-5.24,3-10.96,4.71-16.73,5.16-1.54,1.94-5.24,6.59-5.56,6.99-1.82,16.09-2.27,33.68-2.76,52.11-1.18,45.35-2.41,92.24-24.18,131.98-7.62,13.9-15.4,28.28-22.92,42.19-28.53,52.74-58.03,107.27-90.53,158.22-29.18,45.75-68.43,85.42-106.38,123.77-16.36,16.54-31.82,32.16-46.21,47.96-33.46,36.75-75.21,63.19-115.57,88.75-23.11,14.64-44.94,28.46-64.53,43.7-4.28,3.33-8.83,6.24-13.73,8.78-7.81,15.96-19.02,34.29-37.01,46.71-24.52,16.93-62.18,25.85-111.98,26.52-11.57,10.13-28.71,21.06-50.37,21.06-8.39,0-16.71-1.64-24.72-4.89-11.03-4.47-19.66-13.16-28.85-29.06-10.62-18.37-11.68-28.82-11.41-35.87,1.47-39.24,20.18-73.58,36.69-103.89,2.47-4.54,4.87-8.94,7.17-13.28-13.04-62.42-26.4-126.93-10.2-189.85,9.23-35.83,23.89-69.88,40.91-102.79-.79.97-1.58,1.94-2.37,2.91-27.77,34.05-56.48,69.26-88.35,101.94-27.9,28.61-58.76,53.9-88.61,78.36-11.97,9.8-24.3,19.92-36.14,30-9.05,11.8-17.87,22.22-26.9,31.78-25.26,26.74-43.92,61.11-63.67,97.5-18.22,33.56-37.06,68.27-62.49,99.17-13.42,16.3-30.3,27.7-46.52,37.36-1.3,5.17-2.51,10.71-3.75,16.41-4.98,22.89-10.62,48.83-26.85,70.88-31.14,42.31-75.58,76.21-99.3,92.65-5,3.47-13.42,7.6-25.11,7.6Z"/>
    <path class="cls-1" d="M4835.68,1510.77c-16.99,0-33.45-.38-48.93-1.13-40.38-1.96-72.89-29.78-101.57-54.32-7.72-6.61-15.06-12.89-22.19-18.41-2.53-1.27-5.05-2.54-7.58-3.81-8.79-4.42-17.82-8.96-26.72-13.31-16.75-1.93-31.71-6.98-45.02-11.46-9-3.03-17.57-5.92-25.14-7.28-3.39,1.84-8.71,5.51-12.49,8.11-14.62,10.07-32.81,22.6-55.68,22.6-5.27,0-10.49-.69-15.51-2.05-2.42-.65-4.77-1.44-7.06-2.35-3.66.79-7.54,1.26-11.62,1.26h-.01c-9.13,0-18.03-2.44-25.75-7.05-9.86-5.89-25.88-20.1-25.13-49.99-.03,0-.06,0-.1,0-12.37-.61-25.16-1.23-36.87-3.57-30.54-6.09-42.47-22.92-47.1-35.97-12.98-36.58-9.42-76.93-6.27-112.54,1.86-21.03,3.61-40.89,1.94-57.21-7.91-77.16.38-154.42,8.39-229.15.23-2.16.46-4.33.7-6.49-7.08-18.76-10.06-36.03-9.09-52.5,1.64-27.75,7.45-56.15,18.21-88.87-.54-27.72-2.38-56.45-4.17-84.3-1.34-20.9-2.7-42.09-3.57-63.42-26.63,29.49-51.94,58-75.39,84.94-17.97,20.64-25.54,56.43-33.55,94.32-9.46,44.74-19.24,91-48.63,126.93-23.46,28.67-49.7,54.16-75.08,78.81-27.86,27.06-54.18,52.62-76.25,81.36-20.77,27.05-42.54,53.57-63.59,79.21-24.34,29.65-49.51,60.31-72.63,91.23-23.58,31.54-53.28,55.22-80.45,74.96-10.4,20.44-24.31,44.31-43.71,65.39-.24.33-.48.67-.73,1-5.9,9.02-16.04,16.81-31.35,18.36-2.14.22-4.65.36-7.89.46-4.66.14-10.51.16-16.16.18-3.7.01-8.65.03-12.28.1-3.15.78-6.37,1.17-9.61,1.17-1.08,0-2.17-.04-3.25-.13-7.72,2.44-16.13,4.22-24.02,4.22-12.86,0-24.56-4.68-32.93-13.19-8.07-8.2-12.41-19.09-12.23-30.69.63-40.49,14.74-78,28.48-114.28-3.54-46-9.03-92.78-14.35-138.11-4.36-37.13-8.86-75.52-12.39-114.01-1.39-15.17-1.86-30.78-1.44-47.53-14.84-42.92-32.28-94.72-41.12-147.24-3.89,30.48-7.29,61.3-10.76,92.7-1.37,12.42-2.75,24.9-4.17,37.45-2.78,24.6-5.88,49.12-8.88,72.84-10.75,85.02-20.91,165.33-17.19,249.2.77,17.36-9.76,33.24-26.06,39.28-4.54,1.68-9.24,2.5-13.89,2.5-8.36,0-16.56-2.63-23.39-7.54-7.47,7.31-17.53,11.42-28,11.42-.08,0-.16,0-.24,0-20.38-.12-37.43-15.71-39.67-36.27-.14-1.29-.24-2.7-.32-4.44-1.77-40,4.62-78.25,10.8-115.24,4.45-26.64,8.66-51.8,9.76-76.64.9-20.31,1.65-41,2.38-61.01,3.3-91.04,6.71-185.17,25.53-278.16,14.87-73.46,46.23-139.78,76.57-203.92,1.93-4.09,3.87-8.18,5.8-12.28-5.42-28.65-11.28-54.81-17.82-79.61-3.16-12-.58-24.78,6.99-34.61,7.57-9.83,19.28-15.59,31.69-15.59,1.02,0,2.26.03,4.18.13,8-6.95,18.55-10.83,30-10.83,13.76,0,32.31,5.98,45.91,16.46,12.75.3,24.61,6.66,31.91,17.17,7.48,10.76,9.21,24.5,4.63,36.78-3.52,9.45-7.08,18.9-10.64,28.37-.55,1.46-1.1,2.91-1.64,4.37,2.47,3.75,4.99,7.55,7.57,11.43,23.54,35.41,47.88,72.02,56.61,115.58,14.78,73.79,1.87,149.04-10.62,221.82-6.81,39.7-13.27,77.33-15.37,114.01,23.67,68.27,48.07,138.87,51.39,213.49,1.69,38.05-9.4,73.76-22.73,109.78.38,5.7.72,11.32,1.03,16.87,4.08-2.89,8.15-5.75,12.21-8.6,2.76-1.94,5.56-3.91,8.37-5.89,3.79-8.11,7.5-16.42,11.37-25.08,13.91-31.14,28.3-63.34,49.22-91.68,24.54-33.23,52.75-62.98,80.04-91.74,24.26-25.58,47.17-49.74,67.42-75.88,25.8-33.32,55.65-62.25,84.52-90.23,25.02-24.25,48.65-47.15,69.39-72.31,18.5-22.44,29.68-55,41.51-89.47,14.22-41.44,28.93-84.29,59.05-118.63,24.74-28.2,53.95-51.99,81.97-73.9,15.46-17.02,31.72-34.77,48.49-52.94,2.6-10.43,9.32-19.44,18.72-24.9,6.18-3.59,13.12-5.41,20.09-5.41,3.08,0,6.17.36,9.19,1.07,7.71-5.22,16.87-8.01,26.63-8.01,15.12,0,30.27,6.95,40.53,18.6,5.46,6.19,9.26,13.47,11.19,21.15,1.35,1.19,2.79,2.43,3.97,3.44,13.37,11.49,33.58,28.85,30.11,56.41-6.88,54.64-28.8,105.79-50,155.25-9.81,22.89-19.12,44.62-26.91,66.38.06,18.16-.46,34.8-1.59,50.66-1.56,21.85-3.69,43.92-5.88,64.97,3.84,7.55,8.33,15.43,13,23.63,15.98,28.04,34.08,59.82,34.57,95.26.37,26.98-5.1,51.98-10.39,76.16-5.39,24.65-10.49,47.93-7.73,68.22,1.01,7.39,5.26,16.28,10.19,26.56,5.25,10.96,11.2,23.39,14.9,37.8,1.66,6.48,6.1,13.18,11.71,21.66,5.17,7.81,11.03,16.67,16.1,27.51,3.46,7.4,4.99,15.02,5.29,22.71,9.89-5.81,20.51-9.69,32.41-9.69,2.01,0,4.04.12,6.02.35,43.29,5.1,84.27,22.14,119.09,38.71,21.34,5.01,39.5,16.56,52.32,25.94,46.31,23.11,88.11,42.12,128.92,43.67,38.31,1.46,79.55,2.19,122.57,2.19,56.99,0,118.71-1.26,188.68-3.84.72-.03,1.42-.04,2.11-.04,26.94,0,48.42,20.09,48.9,45.75.48,26.07-20.72,47.3-48.27,48.32-.89.03-1.77.05-2.66.05-11.74,0-21.75-2.79-29.8-5.03-2.74-.76-6.84-1.91-8.46-2.09-37.78,1.05-77.06,3.68-115.06,6.22-51.23,3.43-104.19,6.97-156.52,6.97Z"/>
    <path class="cls-1" d="M3316.96,1645.43c-7.84,0-15.58-2.05-22.36-5.92-29.35-16.76-37.64-50.54-44.96-80.34-.7-2.86-1.39-5.66-2.08-8.38-23.15-16.58-45.74-34.03-68.6-51.9-30.78-12.42-62.52-22.85-96.03-33.87-58.63-19.28-119.26-39.21-174.45-70.74-15.95-9.11-23.83-27.74-19.17-45.3,3.44-12.97,13.09-23.05,25.26-27.43.38-4.54.8-9.69.9-12.31-1.24-13.52,4.48-26.95,15.5-35.4,5.38-4.13,11.58-6.72,18-7.75,4.16-12.78,7.99-26.09,11.94-39.8,11.51-39.97,23.42-81.3,46.21-118.27,13.46-21.84,24.9-43.78,37.01-67.01,5.67-10.87,11.53-22.1,17.66-33.45,11.2-20.69,30.66-33.29,51.11-43-3.21-18.18-4.1-37,2.09-55.03,5.83-16.98,5.09-30.4.63-51.84-2.39.19-4.8.33-7.24.41-52.61,1.85-104.68,18.13-159.8,35.36-38.41,12.01-78.14,24.43-119.02,31.96-2.56.47-5.17.71-7.77.71-13.63,0-26.22-6.39-34.55-17.53-7.09-9.49-10.62-21.56-11.11-37.98-.18-6-.06-17.29,2.58-27.18-6.71-6.26-14.32-13.54-21.01-22.3-1.43-1.08-2.79-2.26-4.08-3.53-.73-.72-1.43-1.46-2.09-2.22-8.82,12.01-20.47,23.69-37.43,28.74-8.96,2.66-18.67,4.02-28.87,4.02-22.6,0-44.17-6.34-65.03-12.47-15.43-4.54-31.38-9.22-42.47-9.22-2.47,0-4.51.23-6.06.7-35.29,10.5-68.93,36.34-104.53,63.7-39.81,30.59-80.98,62.22-130.47,76.94-4.09,1.22-8.29,1.83-12.46,1.83-14.41,0-27.6-7.25-35.28-19.39-7.94-12.56-7.55-25.64-5.21-36.1-9.8-1.67-18.77-6.97-24.99-15.06-7.39-9.61-10.28-21.87-7.94-33.64.91-4.55,3.17-11.64,8.79-18.48,17.55-33.65,40.27-62.89,62.29-91.22,22.67-29.17,44.09-56.73,58.45-87.01,3.77-7.96,7.74-15.59,11.63-22.71-6.44-16.83-12.98-38.34-2.74-59.94,4.95-10.44,12.44-17.52,21.16-22.49-6.22-4.88-11.46-10.28-15.33-16.64-12.56-9.85-21.65-21.91-29.15-31.87-4.19-5.56-11.16-14.81-14.35-16.55-15.85-4.1-32.97-6.25-51.09-8.53-17.55-2.2-35.71-4.48-54.14-8.74-29.8-6.88-59.24-15.36-87.7-23.57-39.88-11.5-77.6-22.37-116.16-29.18-.53,5.23-1.19,10.35-1.83,15.24-.97,7.49-2.45,18.82-1.95,22.59,1.19,6.98,3.01,14.65,4.94,22.77,5.41,22.77,11.54,48.57,7.44,76.03-3.87,25.87-1.9,54.13.17,84.05,2.32,33.46,4.73,68.05-.78,103.16-10.16,64.81-30.79,127.38-50.74,187.89-17.48,53.01-34.11,103.44-44.06,154.63,2.42,5.97,3.39,12.5,2.73,19.04-.07.73-.17,1.46-.28,2.19-.64,4.06-1.96,12.51-17.77,38.74-10.09,16.74-23.91,39.67-50.07,39.67h-.02c-3.66,0-7.3-.49-10.82-1.46-14.79-4.06-30.73-17.67-31.13-43.68-.08-5.06.34-10.86,1.33-18.23,1.43-10.7,3.76-22.41,5.15-29.4.34-1.72.62-3.07.76-3.89,5.39-34.32,12.2-68.59,18.78-101.73,6.44-32.42,13.1-65.95,18.24-98.73,3.87-24.7.82-52.48-2.4-81.89-3.66-33.32-7.44-67.77-1.91-103,4.81-30.67,7.67-61.22,10.71-93.57,2.58-27.45,5.24-55.83,9.19-84.1,3.09-22.1,16.38-38.79,27.06-52.2,2.86-3.59,6.85-8.6,9.05-12-1.37-6.69-2.32-13.6-3.24-20.34-1.06-7.71-2.96-21.63-5.29-26.97-6.96-4.98-19.69-7.23-27.27-8.26-9.89.91-19.08,1.36-27.97,1.36-9.67,0-19.08-.55-27.98-1.64-4.01-.49-11.2-2.05-18.56-6.96-5.26-.95-10.12-2.06-14.67-3.34-20.15-5.67-39.58-26.9-33.7-69.46,5.7-41.26,29.86-55.96,50.58-55.96,1.69,0,3.39.1,5.07.29,1.17.14,2.61.36,4.24.72,4,.28,7.9,1.17,11.59,2.59,39.31,6.18,74.79,21.46,109.19,36.27,3.31,1.42,6.67,2.87,10.04,4.31,25.53-4.54,50.67-8.22,75.9-8.22,13.97,0,26.82,1.09,39.3,3.35,44.69,8.07,88.15,21.29,130.17,34.09,29.93,9.11,58.19,17.71,86.92,24.62,3.77.91,8.35,1.35,13.99,1.35,8.46,0,18.02-.99,28.13-2.04,11.7-1.21,23.79-2.47,36.4-2.47,13.52,0,25.45,1.48,36.47,4.53,65.98,18.27,101.72,36.27,119.5,60.18,15.74,21.17,17.66,48.99,5.69,82.69-3.97,11.19-9.05,22.15-14.71,33.08,6.14,12.03,6.9,25.51,1.79,37.98-7.8,19.02-24.31,27.63-39.44,32.06-5.86,10.83-11.98,21.31-17.97,31.56,1.1,9.77.36,20.78-4.89,31.85-11.77,24.81-24.43,49.27-37.11,73.22.48-.15.96-.29,1.45-.44,44.59-13.26,89.99-26.01,133.9-38.34,43.61-12.25,88.71-24.91,132.72-38,20.27-6.03,51.24-12.47,77.37-12.47,7.94,0,14.97.57,21.5,1.75,12.65,2.29,23.63,9.94,30.13,20.99,7.85,13.34,7.58,27.54,4.2,42.4,15.96,2.55,29.02,13.6,33.62,29.07,5.79,19.48-2.69,34.83-10.61,44.92,9.53-2.42,19.57-4.63,30.68-6.21,30.15-4.28,61.08-9.93,90.99-15.39,66.06-12.07,134.37-24.55,204.33-24.55,1.12,0,2.25,0,3.36,0,18.02.1,33.52,11.71,38.56,28.89,1.83,6.25,5.94,27.26-14.79,43.98,2.85,5.22,6.02,10.62,9.15,15.96,18.07,30.76,40.55,69.04,24.74,111.56-8.1,21.77-25.14,35.8-42.61,45.69,2.78,19.52,2.4,40.71-7.99,60.11-23.8,44.43-54.57,85.24-84.33,124.7-18.78,24.9-36.51,48.41-52.45,72.56-7.42,11.24-13.7,24.12-19.89,37.84,8.63,4.65,17.22,9.36,25.49,14.08,54.22,30.97,103.54,69.6,151.24,106.97l2.47,1.93c23.25,9.78,43.83,19.83,62.76,30.65,17.29,9.88,27.11,26.14,33.19,40.91,15.08,10.18,29.28,19.06,43.15,26.98,15.13,8.64,28.53,28.3,20.77,57.54-6.18,23.29-28.62,60.24-62.53,60.24Z"/>
  </g>
</svg>