<?xml version="1.0" encoding="UTF-8"?>
<svg id="Layer_2" data-name="Layer 2" xmlns="http://www.w3.org/2000/svg" viewBox="0 0 2947.34 476.44">
  <defs>
    <style>
      .cls-1 {
        fill: #5ee34d;
      }
    </style>
  </defs>
  <g id="Layer_1-2" data-name="Layer 1">
    <path class="cls-1" d="M2897.67,188.09c-14.58,0-28.35-7.36-35.39-20.13-4.79-8.7-6.26-18.44-4.25-27.66-5.29-7.27-7.83-15.92-7.83-23.92,0-17.46,11.6-36.81,37.5-40.69,4.44-.67,9.53-1,15.11-1,16.21,0,30.81,9.78,36.98,24.76,1.26,3.05,2.27,6.22,3.03,9.47,6.74,16.73,5.96,37.29-2.64,53.21-8.78,16.25-24.68,25.96-42.52,25.96Z"/>
    <path class="cls-1" d="M2698.38,458.85c-11.41,0-21.92-3.6-30.4-10.4-10.91-8.76-17.17-22.01-17.17-36.35,0-11.91-1.7-24.77-3.5-38.39-2.06-15.58-4.19-31.7-4.19-48.88,0-19.24,11.87-36.16,30.98-44.15,10.89-4.56,22.08-5.51,29.55-5.51s18.65.96,29.55,5.51c19.12,7.99,31,24.91,31,44.15,0,21.46-8.6,40.22-16.83,55.88,5.19,6.87,8.08,15.31,8.08,24.11,0,16.46-8.02,31.84-21.99,42.2-10.29,7.63-22.74,11.83-35.06,11.83h0Z"/>
    <path class="cls-1" d="M374.33,142.36c-9.01,0-22.35-.59-34.71-3.43-39.71-9.09-42.79-37.69-42.79-46.23,0-18.05,9.23-31.56,14.74-39.63.49-.72,1.06-1.56,1.58-2.32,1.45-7.27,4.89-14.04,10.03-19.52,1.53-1.64,8.32-8.61,18.98-15.61,8.54-9.21,21.96-15.61,40.72-15.61,13.28,0,29.83,3.03,44.28,8.1,8.57,3.01,15.93,6.59,21.88,10.66,19.62,13.4,22.55,30.68,22.55,39.79,0,20.64-12.33,34.83-19.7,43.31-.45.52-.99,1.14-1.52,1.75-3.11,12.01-12.67,28.75-41.34,35.32-12.35,2.83-25.68,3.42-34.69,3.42h0Z"/>
    <path class="cls-1" d="M82.24,402.15c-15.34-.1-33.33-9.8-38.96-31.25-.41-1.56-.82-3.36-1.34-5.83-.4-1.89-.83-4.09-1.31-6.54-.16,0-.31,0-.46,0-11.57,0-22.57-4.99-30.19-13.68-7.66-8.74-11.17-20.45-9.62-32.13,1.27-9.57,1.99-19.52,2.75-30.06.82-11.23,1.66-22.84,3.24-34.76.57-4.32,1.91-14.44,18.33-37.68,12.01-17,26.14-32.74,47.97-32.74,14.85,0,26.09,7.18,45.68,23.28,4.65,3.82,20.55,17.12,29.88,27.78,3.87,4.42,15.67,17.88,13.1,37.23-2.76,20.82-14.13,36.44-23.27,48.99-2.74,3.76-6.69,9.18-8.29,12.27-.05,4.44-.24,10.9-.8,17.62-.69,8.2-1.78,14.99-3.34,20.77-4.45,16.48-13.36,25.47-21.5,30.36-6.27,4.04-13.7,6.37-21.6,6.37-.09,0-.17,0-.26,0Z"/>
    <path class="cls-1" d="M1027.21,476.44c-11.59,0-19.94-4.24-24.91-7.79-17.27-12.35-23.12-31.29-26.99-43.83-.4-1.29-.89-2.89-1.37-4.37-3.28-1.87-7.1-4.14-10.94-6.62-6.91-4.46-12.39-8.62-16.76-12.72-11.7-10.98-15.71-22.33-16.56-31.53-.7-5.65-.21-11.5,1.62-17.18,5.34-16.65,20.7-27.83,38.23-27.83,6.46,0,10.26.96,23.39,5.2.52-.99,1.08-1.96,1.69-2.93,7.4-11.76,20.11-18.78,34-18.78,8.49,0,16.69,2.65,23.7,7.66,4.94,3.54,10.73,6.99,16.86,10.64,7.26,4.33,14.76,8.8,22.4,14.27,4.33,3.09,12.38,8.85,24.78,35.84,5.91,12.87,16.92,36.83,4.36,58.3-6.98,11.94-17.53,18.6-47.02,29.69-31.56,11.87-41.92,11.97-46.37,11.97h-.11Z"/>
    <path class="cls-1" d="M2206.83,336.46c-11.59,0-19.94-4.24-24.91-7.79-17.27-12.35-23.12-31.29-26.99-43.83-.4-1.29-.89-2.89-1.37-4.37-3.28-1.87-7.1-4.14-10.94-6.62-6.91-4.46-12.39-8.62-16.76-12.72-11.7-10.98-15.71-22.33-16.56-31.53-.7-5.65-.21-11.5,1.62-17.18,5.34-16.65,20.7-27.83,38.23-27.83,6.46,0,10.26.96,23.39,5.2.52-.99,1.08-1.96,1.69-2.93,7.4-11.76,20.11-18.78,34-18.78,8.49,0,16.69,2.65,23.7,7.66,4.95,3.54,10.73,6.99,16.86,10.64,7.26,4.33,14.76,8.8,22.4,14.27,4.33,3.09,12.38,8.85,24.78,35.85,5.91,12.87,16.92,36.83,4.36,58.3-6.98,11.94-17.53,18.6-47.02,29.69-31.59,11.88-41.95,11.97-46.39,11.97h-.1Z"/>
  </g>
</svg>