<?xml version="1.0" encoding="UTF-8"?>
<svg id="Layer_2" data-name="Layer 2" xmlns="http://www.w3.org/2000/svg" viewBox="0 0 1426.61 504.82">
  <defs>
    <style>
      .cls-1 {
        fill: #5ee34d;
      }
    </style>
  </defs>
  <g id="Layer_1-2" data-name="Layer 1">
    <path class="cls-1" d="M87.31,504.82c-12.35,0-25.13-4.9-36.98-14.16-9.11-7.13-17.78-16.95-24.41-27.68-7.38-11.95-13.34-24.01-17.7-35.85C3.01,412.98.25,399.52.01,387.11c-.33-17.53,5.5-33.89,11.14-49.72,3.31-9.3,6.45-18.09,8.17-26.63,1.37-6.79,3.2-13.66,5.56-20.91-1.45-12.04-1.88-24.7,2.71-36.81,2.82-7.44,9.54-10.85,14.45-13.34.91-.46,2.17-1.1,2.99-1.58.05-.1.27-.54.33-.65.12-1.05.25-2.13.44-3.13.27-1.52.62-2.77,1.09-3.93,2.11-5.22,6.99-8.6,12.43-8.6,2.34,0,4.64.63,6.67,1.81,4.53,2.65,8.47,8.54,5.94,17.14-.34,1.15-.79,2.39-1.4,3.79-.26,2.08-.61,3.78-1.38,5.52-1.27,2.88-2.57,5.77-3.82,8.57-5.17,11.56-10.08,22.54-14.1,33.81.25,1.71.51,3.43.77,5.22,1.82,12.09,3.71,24.59,1.86,36.88-.77,5.16-1.63,10.29-2.47,15.25-3,17.84-5.82,34.7-4.52,51.9,1.36,17.92,7.63,31.18,21.64,45.77,4.5,4.69,6.78,10.62,8.61,15.39.43,1.12.97,2.53,1.5,3.76.93-.8,1.93-1.73,2.72-2.48,3.65-3.39,8.18-7.61,14.13-9.89,1.6-.61,3.2-1.22,4.8-1.82,18.77-7.07,30.46-12.17,34.42-23.34,5.36-15.1,5.5-33.12,5.63-50.54.04-5.21.08-10.59.26-15.86.4-11.81-3.4-24.07-7.42-37.05-3.6-11.6-7.32-23.6-8.36-36.35-1.15-14.06,1.86-27.71,4.76-40.9,2.81-12.79,5.47-24.86,3.97-35.67-1.66-11.92-4.55-23.65-7.61-36.07-3.13-12.68-6.36-25.79-8.19-39.22-1.44-10.56-5.3-21.34-9.39-32.75-4.97-13.87-10.11-28.22-11.26-43.52-.38-5.01,2.1-9.85,6.5-12.3,1.98-1.1,4.16-1.65,6.32-1.65,2.61,0,5.21.81,7.43,2.41,1.05.7,2.5,1.4,3.63,1.79,1.16-.34,2.37-.51,3.59-.51.36,0,.77.02,1.21.06,0,0,.01,0,.02,0,5.27-3.39,8.75-5.63,13.44-5.63,6.98,0,12.63,5.23,13.15,12.16.63,8.4-4.63,14.65-8.48,19.22-.68.8-1.59,1.88-2.23,2.73,1.53,10.34,6.7,20.96,12.16,32.15,6.14,12.59,12.48,25.6,14.54,40.04,3.34,23.35,6.7,48.29,10.56,78.47,2.2,17.18,2.49,34.8,2.78,51.84.15,9.23.31,18.78.78,27.89.27,5.28.61,10.79.94,16.11,1.32,21.32,2.68,43.37.84,64.72-1.83,21.19-11.96,45.98-30.13,73.69-12.48,19.04-38.37,39.83-65.71,40.49-.39,0-.77.01-1.16.01Z"/>
    <path class="cls-1" d="M254.82,378.74c-2.35,0-4.6-.43-6.66-1.29-.47-.14-1.68-.39-2.49-.55-2.55-.51-5.54-1.11-8.47-2.44-2,.46-3.83.67-5.6.67-6.17,0-10.17-2.65-12.44-4.88-5.19-5.09-8.26-11.86-9.31-20.6-4.61-5.7-9.84-13.24-12.89-21.14-5.54-14.34-3.16-30.59-1.06-44.93.89-6.05,1.73-11.77,1.89-16.72.12-3.58.19-7.2.25-11.03.3-16.8.61-34.18,5.74-50.57,2.59-8.26,9.77-12.36,16.26-15.13.69-2.48,1.41-5.54,2.12-8.55.48-2.04.97-4.15,1.5-6.28-1.59-.65-3.05-1.63-4.3-2.88-1.98-1.98-4.29-5.23-5.01-12.99-1.22-4.63-2.46-11.04,2.23-16.44.8-.92,1.64-1.78,2.54-2.58,1.23-3.07,2.95-7.06,6.27-10.38.61-.61,1.28-1.29,1.98-2,9.75-9.89,19.37-18.96,29.93-21.2,1.44-.31,2.95-.46,4.49-.46,9.95,0,19.98,6.3,30.25,13.32.98.67,1.91,1.3,2.66,1.8,10.22,6.75,13.26,17.09,14.21,24.29.35.24.71.49,1.07.74,6.68,4.63,15,10.4,17.52,19.66,3.98,14.62.97,30.67-1.68,44.83-.03.17-.06.34-.09.5,6.85,10.38,12.63,21.54,11.54,34.07-1.3,14.95-11.02,27.35-19.59,38.29-6.03,7.69-12.26,15.63-13.82,22.43-3.67,15.92-8.34,28.16-15.25,39.69.96,4.09,1,8.99-2.26,13.62-2.86,4.07-6.9,9.14-12.74,12.33-.39.21-.83.46-1.29.72-5.7,3.21-11.32,6.09-17.51,6.09ZM235.24,339.55c1.93,2.03,3.93,3.99,5.94,5.82,5.29-2.33,10.74-4.49,16.23-4.49.71,0,1.4.04,2.08.11-.65-3.34-.55-7.04,1.38-10.82.76-1.48,1.51-2.95,2.26-4.41,7.15-13.94,13.32-25.98,16.03-40.22,1.9-10.01,5.74-19.25,9.45-28.2,4.18-10.06,8.12-19.55,8.63-28.61.22-3.83.71-7.7,1.27-11.32-6.68-9.59-13.33-19.54-15.17-30.95-1.17-7.22-.67-14.67-.19-21.87.04-.61.08-1.21.12-1.81-3.29,1.15-6.92,2.19-10.88,2.19-1.66,0-3.27-.19-4.81-.56-.21,1.21-.46,2.34-.68,3.29-.28,1.2-.58,2.32-.86,3.24-2.59,8.42-8.99,9.86-11.89,10.06.83,5.89,1.39,12.33-1.73,18.08-2.63,4.85-7,7.94-11.11,10.06-.27,1.86-.45,3.86-.64,6.01-.36,4.16-.78,8.87-2.07,13.87-2.12,8.19-2.94,15.23-3.98,24.15l-.28,2.42-.3,2.54c-2.09,17.61-3.6,30.34.76,45.82,2.4,8.53,1.69,17.85.99,26.86-.23,3.05-.46,6-.55,8.75Z"/>
    <path class="cls-1" d="M675.68,467.18c-3.43,0-6.71-.79-9.47-2.27-5.1-2.75-8.2-7.73-8.31-13.33-.1-5.53.7-11.33,2.47-17.66-.77-7.69-2.22-15.47-3.75-23.67-2.21-11.83-4.49-24.07-4.73-36.68-.18-9.62.22-19.23.72-28.62-3.75,4.01-8.56,6.53-12.67,8.69-1.87.98-4.7,2.46-5.47,3.22-2.56,2.75-5.64,4.63-9.07,5.57-5.25,3.61-18.05,10.84-29.23,10.84-6.21,0-10.35-2.25-12.72-4.13-8.1-6.42-15.27-20.09-18.21-27.82-4.62-2.22-9.68-6.07-11.25-12.95-3.89-17.04-3.34-36.7,1.62-58.45,5.03-22.05,13.52-41.37,19.76-53.69,7.51-14.84,18.07-28.54,30.55-39.64,12.38-11.01,26.11-18.83,40-22.85.83-.84,1.7-1.51,2.57-2.04,1.75-8.71,4.94-16.99,8.07-25.09.41-1.06.82-2.13,1.23-3.21-1.36-4.42-2.26-8.52-2.74-12.48-1.79-1.98-3.02-4.18-3.67-6.59-.34-.96-.57-1.96-.67-3.01-.42-4.24,1.37-9.38,6.05-12.26.74-1.59,1.75-3.05,3-4.32,2.86-2.91,6.83-4.58,10.9-4.58,4.35,0,8.23,1.78,11.01,4.7,4.34,1.57,7.62,5.34,8.38,10.1.23,1.45.21,2.88-.03,4.26-.15,6.19-1.28,12.67-3.5,20.09-.13,2.02-.3,4.07-.5,6.15,1.18,2.81,2.46,5.65,3.8,8.62,5.6,12.44,11.39,25.31,11.66,39.5.27,14.25-5.22,27.35-10.53,40.01,2.63,7.55,3.93,14.19,4.06,20.59.25,13.08-3.64,25.37-7.61,37.26.29,1.1.58,2.2.87,3.28,3.18,12.04,6.48,24.49,6.73,37.59.2,10.49,2.17,21.16,4.26,32.47,2.19,11.83,4.44,24.06,4.68,36.66.27,14.41-5.58,27.58-11.23,40.32-2.33,5.26-4.56,10.26-6.23,15.09.01.23.03.45.04.68,3.02,2.47,7.3,6.6,7.42,13.28.08,4.13-1.49,8.04-4.42,11.02-3.36,3.42-8.4,5.39-13.84,5.39ZM587.51,321.01c9.41,2.14,18.84,4.65,23.25,12.99.02.04.04.07.06.1.49-3.16,1.31-6.6,3.07-9.84,3.3-6.06,8.95-9.57,13.48-12.39,1.41-.87,3.43-2.13,4.39-2.94,1.92-6.74,1.55-15.05,1.16-23.82-.4-9.09-.82-18.49,1.13-27.92,2.27-10.98,4.01-20.02,5.44-28.3-.13-2.71-.02-5.33.35-7.82.92-6.26,2.15-12.91,3.77-20.32.1-.74.21-1.48.31-2.22-11.48,8.11-17.54,22.37-25.43,42.68-.68,1.75-1.36,3.5-2.05,5.26-3.35,8.52-7.7,17.15-11.9,25.5-8.4,16.69-17.05,33.86-17.04,49.02Z"/>
    <path class="cls-1" d="M783.72,384.26c-3.43,0-6.86-.3-9.89-.56-2.52-.22-4.9-.42-6.81-.42-.12,0-.56,0-.67,0-8.31,0-14.54-4.57-19.54-8.25-.44-.32-.94-.69-1.46-1.07-4.13,2.63-8.48,4.61-13.33,4.61-3.33,0-6.5-.97-9.18-2.79-6.92-4.72-17.69-17.18-20.7-25.57-4.55-12.71-7.38-30.12-7.35-44.66-3.23-5.41-6.2-12.63-5.03-20.98,1.67-11.87,8.69-22.26,14.88-31.44,3.45-5.11,6.71-9.94,8.56-14.22,3.35-7.77,9.28-12.49,15.23-15.68,1.08-3.26,2.68-6.16,4.8-8.68,5.15-6.13,12.19-9.37,20.34-9.37,2.43,0,4.95.28,7.69.86,2.16-.96,4.8-1.58,8.14-1.58.53,0,1.08.01,1.66.04.72-.28,1.95-.9,2.81-1.34,3.39-1.72,7.61-3.86,12.8-3.86,4.62,0,8.97,1.79,12.27,5.03,6.61,6.51,11.3,15.26,13.54,25.33,2,8.96,1.94,18.71-.17,27.45-1.39,5.78-4.22,10.87-8.44,15.2-.09,2.28-.35,4.38-.8,6.34-1.69,7.5-5.78,11.84-8.9,14.16-3.79,2.81-8.36,4.3-13.2,4.3-5.17,0-10.15-1.68-14.7-3.88-9.49,4.79-20.08,9.51-31.88,9.51h0c-2.16,0-4.33-.16-6.45-.48-.82-.05-2.2-.16-3.78-.36.43.51.86,1.02,1.3,1.54,6.54,7.75,13.3,15.77,15.48,25.51.89,3.97.93,7.37.96,10.1.03,2.89.11,3.62.41,4.07.24.36.46.7.66,1.02,3.82-2.38,7.85-4.14,12.32-4.14.29,0,.58,0,.87.02,7.54.4,14.82,3.51,21.87,6.52,5.2,2.22,11.09,4.74,14.43,4.74.11,0,.2,0,.28,0,.24-.5.64-1.54,1.02-3.48.56-2.84.84-6.23,1.13-9.82.41-5.01.84-10.19,2.15-14.94,1.46-5.24,6.44-10.84,16.05-10.84,3.79,0,8.51.86,12.97,2.36,6,2.02,10.18,4.67,12.78,8.1,2.83,3.72,3.76,8.35,2.55,12.7-1.93,6.95-7.86,10.26-11.4,12.23-.23.13-.52.29-.79.44-6.6,12.48-16.9,28.55-32.24,34.16-3.79,1.38-8.11,2.06-13.23,2.06ZM754.49,256.86c4.36,1.86,8.58,4.45,12.71,7.05,1.84-.86,3.65-1.66,5.4-2.44,1.44-.64,2.85-1.26,4.19-1.88-.12-.67-.24-1.34-.36-2-.92-5.11-1.8-9.94-1.85-14.54-.03-2.84-.25-4.12-.38-4.62-.51-.38-1.93-1.23-5.68-2.73,0,0-1.75-.7-2.23-.89-4.27,2.71-8.88,4.6-13.23,6.22.11.92.23,1.87.36,2.83.53,4.11,1.1,8.53,1.07,13.01Z"/>
    <path class="cls-1" d="M908.05,495.79c-3.93,0-8.71-.58-13.11-1.59-6.6-1.51-11.01-3.66-13.89-6.76-2.76-2.98-4.12-6.78-3.83-10.71.41-5.41,3.42-10.04,8.96-13.79,2.63-1.78,5.58-3.23,8.43-4.64,1.06-.52,2.41-1.19,3.56-1.8.77-6.86,1.87-14.15,3.46-22.94-.02-8.02.19-18.3,1.7-28.75,1.46-10.16,3.69-20.05,5.78-28.62-.81-5.15-2.11-10.53-3.47-16.19-3.31-13.73-6.73-27.93-4.06-42.39,2.27-12.33,5.98-24.2,9.56-35.68,3.52-11.28,6.85-21.93,8.84-32.76,1.38-7.56,2.86-15.19,4.28-22.58,2.93-15.23,5.97-30.98,8.31-46.45,1.97-13.06,2.43-26.23,2.92-40.18.33-9.5.67-19.32,1.54-29.12.27-3.07-1.04-7.32-2.44-11.81-1.78-5.76-3.81-12.29-3.62-19.56.22-8.82,6.14-15.5,10.89-20.86,1.08-1.22,2.53-2.85,3.53-4.15-5.11-1.97-9.94-4.68-13.15-9.29-.69-1-1.32-1.97-1.9-2.91-3.37,1.09-6.92,1.89-10.54,1.89h-.54c-1.32,0-2.66-.02-4.02-.02-3.16,0-6.64.04-10.03.24-.53.98-1.1,2.07-1.73,3.29-3.41,6.65-9.72,10.66-16.06,13.9.02.71.05,1.43.08,2.16.24,6.15.51,13.12-1.13,19.83-1.05,4.3-.62,9.83-.17,15.68.46,5.85.93,11.9.16,18.27-.5,4.16-2.14,7.68-3.46,10.51-.24.51-.53,1.15-.79,1.73.06.07.13.13.2.2,1.3-.19,3.3-.77,4.97-1.25,3.8-1.09,8.1-2.33,12.86-2.33.54,0,1.08.02,1.6.05,5.4.33,10.02,4,11.56,9.18.74,2.48.7,5.05-.01,7.42.94,1.93,1.39,4.04,1.33,6.08-.08,2.61-1.14,9.03-9.24,12.33-1.26.51-2.77,1.01-4.49,1.46-2.18.58-6.39,1.54-10.19,1.54-.44,0-.88-.01-1.29-.04-4.5-.28-8.53-2.88-10.63-6.88-.2-.38-.44-.88-.66-1.48-2.81-.23-5.84-.63-8.93-1.7-5.91-2.05-10.5-6.1-13.29-11.72-4.12-8.32-1.06-15.73.69-19.6-.7-.7-1.46-1.43-2.08-2.02-5.24-5.04-12.42-11.94-10.86-21.65.64-3.97,1.07-8.29,1.52-12.86.84-8.57,1.72-17.42,4.16-25.87,2.16-7.45,8.08-12.26,13.41-15.44.4-1.75.91-3.41,1.53-4.99,4.01-10.3,12.94-16.99,26.56-19.91,2.25-2.36,4.79-4.52,7.76-6.6,6.09-4.27,12.27-8.09,20.92-8.09,3.18,0,6.49.5,10.41,1.57,3.79,1.04,7.06,2.58,9.92,4.7,1.61-.3,3.28-.48,4.97-.48,6.07,0,11.48,2.41,15.23,6.78,4.02,4.69,6.4,10.5,8.08,16.55,2.07.72,4.1,1.51,6.01,2.45,8.99,4.42,11.76,10.66,12.49,15.1,1.31,7.88-.4,15.8-1.91,22.79-.8,3.71-1.55,7.21-1.67,9.85-.41,9.35-5.19,16.99-9.41,23.72-2.45,3.92-5.24,8.36-5.49,10.98-.96,10.12-.22,20.7.57,31.91.97,13.8,1.98,28.06-.27,42.43-.77,4.94-1.53,9.88-2.29,14.83-2.9,18.87-5.91,38.38-9.44,57.5-2.29,12.4-4.37,25.11-6.38,37.41-1.38,8.44-2.79,17.1-4.29,25.74.06-.08.11-.16.17-.24,2.96-18.28,6.05-37.16,13.9-54.8,8.29-18.63,18.59-36.23,28.55-53.25.79-1.36,1.59-2.71,2.38-4.07,2.65-7.87,5.51-14.79,8.74-21.12,3.72-7.31,8.57-14.67,14.79-22.47,3.67-7.74,7.23-15.74,10.68-23.49,7.94-17.82,16.14-36.26,26.47-53.59,7.24-12.15,13.27-25.04,19.66-38.7,8.09-17.3,16.46-35.18,27.52-51.46,2.68-3.94,7.08-6.2,12.08-6.2,4.7,0,10.46,2.17,17.11,6.45,4.41,2.83,10.23,7.28,12.92,12.36,2.66,5.03,2.45,10.67-.56,15.11-3.84,5.64-9.98,7.3-13.65,8.29-.15.04-.32.09-.5.14-8.54,13.37-14.7,28.34-21.21,44.14-5.9,14.32-12,29.13-20.13,42.99-8.63,14.71-20.33,27.17-31.64,39.21-5.97,6.35-11.62,12.37-16.8,18.65-1.92,3.98-3.74,7.65-5.56,11.16-5.36,10.34-11.17,20.43-16.28,29.2-2.9,9.01-5.19,18.3-7.6,28.11-3.8,15.42-7.72,31.36-14.29,46.4-5.74,13.15-13.68,25.06-22.09,37-2.52,15.25-5.17,29.12-10.29,42.75-5.08,13.55-11.09,26.64-16.91,39.31-3.8,8.28-7.72,16.82-11.28,25.28-.98,9.99-2.27,20.56-4.75,31.01-.06,1.11-.13,2.2-.21,3.26-.22,2.89-1.4,5.61-3.33,7.72-1.52,2.46-4.3,5.3-9.32,6.56-1.91.48-4.06.71-6.58.71Z"/>
    <path class="cls-1" d="M1041.44,422.95c-4.03,0-7.76-1.82-10.24-5-4.21-5.39-2.66-11.59-2-14.24,0,0,.21-.9-.49-3.49-.72-2.68-2.02-5.83-3.4-9.16-3.58-8.66-7.63-18.48-5.07-28.74,2.37-9.49,2.62-19.96,2.88-31.04.28-12,.58-24.41,3.64-36.68,2.97-11.9,7.76-23,12.4-33.73,4.42-10.23,8.59-19.9,11.05-29.76.49-1.94,1.42-3.75,2.72-5.27.58-.68,2.3-2.54,5.03-4.34,2.88-3.55,6.46-5.35,10.69-5.35s7.79,1.83,10.28,5.02c2.7,3.46,3.45,7.69,2.23,12.59-.6,2.41-1.87,4.55-3.61,6.2-.85,4.38-.99,9.36-1.15,14.59-.21,7.06-.42,14.35-2.29,21.85-2.57,10.29-4.17,20.82-5.87,31.97-1.71,11.24-3.48,22.87-6.35,34.33-2.38,9.53-2.69,20-3.01,31.08-.35,11.97-.71,24.34-3.77,36.58-.4,1.62-.85,2.98-1.37,4.16-3.41,7.83-10.29,8.44-12.32,8.44Z"/>
    <path class="cls-1" d="M1083.1,467.88c-3.14,0-7.88-.81-16.78-7.09-3.25-2.3-9.16-6.85-12.14-11.53-4.12-6.48-2.27-12.09-1.28-14.2,3.57-7.62,8.33-13.88,12.93-19.93,4.79-6.29,9.31-12.24,11.34-18.53,4.57-14.16,5.89-29.21,7.29-45.14,1.08-12.26,2.19-24.94,4.89-37.58,1.93-9,7.73-16.07,13.56-22.28.05-5.07.29-10.35,1.13-15.69.88-5.58,4.33-9.66,8.25-12.71-.55-2.27-.94-4.71-.95-7.26,0-2.63.48-5.2,1.06-7.61-.38-.38-.74-.78-1.07-1.21-3.17-4.05-3.78-9.37-1.58-13.88,1.57-3.23,4.33-5.58,7.62-6.64.64-.57,1.33-1.06,2.06-1.49.3-.53.61-1.02.94-1.48,2.67-3.77,6.72-5.94,11.12-5.94,4.07,0,7.86,1.85,10.39,5.08.45.58.96,1.22,1.5,1.9,8.25,10.37,15.66,20.53,15.71,30.82.04,6.39-3.4,11.99-10.21,16.65-2.2,1.51-4.66,2.88-7.19,4.19-.03.89-.12,1.81-.26,2.74-1.41,9.37-7.11,16.71-12.7,22.79.05,7.59-.1,15.42-1.84,23.51-3.43,15.97-7.22,31.26-10.13,42.81-1.27,5.04-2.07,10.38-2.62,15.95,2.3-5.55,3.78-12.13,5.32-18.98,2.4-10.64,4.87-21.65,10.86-31.58,4.07-6.76,8.34-13.3,12.47-19.63,6.75-10.35,13.12-20.12,18.64-30.66,4.9-9.37,15.52-12.33,24.88-14.94.4-.11.8-.22,1.19-.33.85-9.52,1.89-19.28,5.09-28.6.6-1.74,1.4-3.37,2.35-4.9-5.92-4.79-11.49-9.98-13.36-17.24-2.25-8.76,2.3-17.16,7.27-25.3-.42-2.94.02-6.73,2.75-11.1.7-1.11,1.49-2.21,2.3-3.29-.7-3.75.21-6.77,1.38-8.91,2.3-4.25,6.73-6.89,11.57-6.89,3.56,0,8.74,1.42,13.14,8.17,1.52,2.34,3.41,6.78,1.26,12.66-.21,2.03-.69,4.02-1.36,5.96.41.25.82.49,1.22.72,8.57,5.05,19.25,11.34,20.78,22.95,1.35,10.19-5.1,17.82-12.04,24.07.84,3.59.48,6.75-.24,9.23-2.48,8.57-6.31,21.16-10.97,31.6-1.7,3.8-4.38,6.54-7.01,8.49-1.2,9.15-3.26,18.45-7.79,26.93-6.36,11.9-16.98,19.81-27.24,27.47-7.9,5.89-15.37,11.45-19.25,17.8-4.07,6.65-6.4,15.3-8.87,24.45-3.19,11.86-6.5,24.11-14.14,34.77-2.11,2.95-3.89,6.91-5.77,11.1-2.47,5.5-5.27,11.73-9.59,17.24-3.61,4.6-8.78,9-15.71,13.39-.15.33-.3.67-.46,1-1.78,3.81-5.31,6.51-9.45,7.24-.74.13-1.49.19-2.23.19-.95,0-1.89-.1-2.8-.31-1.65.65-3.41.98-5.26.98Z"/>
    <path class="cls-1" d="M1210.51,451.51c-6.31,0-14.71-2.59-19.23-8.38-2.92-3.74-3.96-8.45-2.85-12.91,1.63-6.52,3.26-13.04,4.89-19.56,1.64-6.57,3.29-13.14,4.93-19.71,3.17-12.69,8.45-24.47,13.56-35.87,4.86-10.85,9.45-21.09,12.07-31.57,2.69-10.78,4-21.99,5.38-33.87,1.42-12.16,2.88-24.74,5.98-37.13,1.24-4.98,5.29-8.81,10.35-9.65.72-.12,1.44-.18,2.15-.18,2.8,0,5.5.91,7.7,2.56,1.65-.6,3.36-.93,5.08-.93,4.31,0,8.28,1.92,10.89,5.27,1.59,2.04,4.03,6.4,2.45,12.74-2.18,8.73-7.08,16.05-11.41,22.51-3.46,5.17-6.73,10.05-7.82,14.41-2.42,9.71-1.83,20.88-1.2,32.72.7,13.21,1.43,26.88-1.93,40.34-3.14,12.57-8.16,24.36-13.01,35.76-4.67,10.96-9.08,21.31-11.72,31.9-1.33,5.33-6.39,11.56-16.26,11.56Z"/>
    <path class="cls-1" d="M1255.3,304.54c-5.03,0-9.67-2.93-11.81-7.45-.9-1.9-2.57-6.79.58-12.36.5-3.64.92-9.87,1.12-13.02-1.61-2.38-3.14-4.84-4.34-7.44-3.96-8.6-2.18-14.94.02-18.75,2.91-5.04,8.08-7.93,14.19-7.93,5.03,0,9.8,1.95,14.41,3.84.91.37,2.04.84,3.09,1.23.88-.99,1.84-2.13,2.54-2.97,4.93-5.89,10.53-12.57,19.21-12.57,3.51,0,6.84,1.16,9.62,3.37,4.83,3.82,10.41,11.11,9.6,24.12-.42,6.79-2.46,13.78-4.25,19.96-.22.77-.45,1.55-.67,2.32,1.42,2.11,2.22,4.63,2.22,7.24,0,3.02-1.07,8.66-8.22,12.52-1.88,1.01-3.75,1.7-5.58,2.05-1.15.36-2.51.62-4.03.62-3.63,0-7.13-1.52-9.6-4.16-1.62-1.73-2.72-3.83-3.23-6.1-1.88,2.13-4.45,3.64-7.38,4.16-.76.13-1.52.2-2.27.2-.08,0-.17,0-.25,0-.47.52-.96,1.06-1.46,1.63-.42.47-.86.95-1.26,1.39-3.55,7.68-10.68,8.12-12.24,8.12Z"/>
    <path class="cls-1" d="M1325.63,502.44c-1.73,0-3.45-.24-5.12-.7-12.47-3.49-18.82-18.59-24.27-33.75-.24-.66-.46-1.27-.66-1.81-.91-2.49-3.83-6.01-6.65-9.42-4.8-5.78-10.23-12.34-12.2-20.76-4.18-17.82-4.58-37.04-4.97-55.64-.09-4.47-.18-8.7-.32-12.85-.56-16.66,8.42-31.24,16.34-44.11,4.18-6.79,8.13-13.21,10.37-19.23,1.64-4.39,2.45-10.5,3.31-16.98,1.94-14.54,4.13-31.03,17.38-40.86,8.89-6.6,20.86-9.81,36.59-9.81,7.9,0,16.48.79,27.01,2.48,1.35.22,4.36.28,7.02.33,4.68.09,9.99.19,14.99,1.05,8.49,1.46,14.46,5.06,17.75,10.7,2.52,4.3,2.81,9.36.87,15.04-.89,2.61-2.16,5.16-3.29,7.41-.06.13-.13.26-.2.4,2.9,2.84,6.4,6.89,6.95,12.86.9,9.74-5.21,17.39-9.66,22.97-1.38,1.72-3.46,4.32-3.88,5.37-4.96,12.44-13.59,18.3-21.38,22.39-10.93,5.74-23.1,8.41-38.32,8.41-4,0-7.93-.19-11.46-.42-2.67,1.59-5.28,2.04-7.36,2.04h0c-.43,0-.86-.02-1.29-.06-5.12-.47-9.44-3.77-11.2-8.5-.12-.06-.24-.13-.36-.19.55,5.56,1.99,11.4,3.55,17.75,1.84,7.47,3.74,15.19,4.41,23.54.99,12.32-3.95,24.05-8.72,35.39-4,9.5-8.13,19.32-6.44,25.31.24.7,1.42,2.48,2.21,3.67,1.69,2.55,3.8,5.73,5.1,9.55.63,1.86,1.02,3.8,1.36,5.71.79-.02,1.58-.04,2.35-.04,1.95,0,4.25.09,6.54.77,1.32.39,2.64.94,4.03,1.63,2.39-3.02,4.8-5.72,7.46-7.71,1.65-1.24,3.25-4.36,4.93-7.68.98-1.92,2.04-4,3.3-6.11-.01-.44-.03-.88-.04-1.34-.24-6.9-.54-15.49,4.93-22.38,4.25-5.36,9.06-9.67,13.31-13.48,6.36-5.7,11.38-10.2,13.27-16.42,2.07-6.78,8.28-11.33,15.45-11.33,5.38,0,10.45,2.51,13.56,6.72,2.99,4.04,3.85,9.14,2.37,14-2.32,7.6-9,10.61-12.6,12.23-.03.01-.06.03-.09.04-6.41,15.15-12.72,28.08-24.79,41.12-.64,3.91-2.25,9.02-6.52,13-.84,1.23-2.09,5-2.92,7.52-2.44,7.38-5.48,16.56-13.66,21.32-2.33,1.35-4.95,2.04-7.79,2.04-.78,0-1.56-.05-2.36-.15-5.08,5.17-10.91,9-18.18,9ZM1326.97,313.62c1.71,0,3.3.33,4.81.88.66-1.3,1.33-2.57,2.04-3.74,3.77-6.25,8.6-9.42,14.34-9.42.24,0,.48,0,.72.02,6.89.35,13.48,2.55,19.3,4.48,4.5,1.5,9.15,3.04,12.1,3.04.91,0,1.25-.12,1.55-.36-.51-1.9-2.56-5.63-3.84-7.97-2.65-4.83-5.65-10.3-7.02-16.57-.55-2.54-.55-4.69-.39-6.34-.62-1.8-.83-3.59-.75-5.37-.57.11-1.15.21-1.74.3-7.47,1.04-12.73,6.64-20.7,15.69-1.86,2.12-3.79,4.31-5.85,6.5-6.38,6.79-11.19,12.59-14.57,18.86Z"/>
    <path class="cls-1" d="M363.04,396.01c-5.67,0-13.44-1.03-18.3-5.94-2.78-2.81-4.29-6.49-4.24-10.36.21-18.02,6.29-35.12,12.18-51.65,2.17-6.11,4.24-11.92,6-17.7-.24-10.17-.75-20.55-1.24-30.61-.46-9.42-.93-19.14-1.2-28.8-1.07-3.14-2.22-6.34-3.33-9.45-5.97-16.74-12.15-34.04-11.94-52.22.07-6.04.04-11.97,0-17.16-3.06-10.08-6.3-22.97-6.14-36.24.06-5.48,3.58-10.32,8.78-12.07,1.35-.45,2.74-.67,4.11-.67.5,0,.99.03,1.49.09,1.58-.64,3.31-.99,5.13-.99,5.99,0,10.5,3.85,13.36,6.75,3.58,3.63,9.59,10.85,9.5,18.47-.06,5.63-3.78,10.57-9.17,12.2-.46.14-.93.26-1.4.36.01.86.02,1.71.03,2.56.02,1.84.04,3.67.06,5.51,1.22,3.83,2.54,7.74,3.83,11.54,5.66,16.69,11.5,33.94,11.3,52.01-.05,4.64-.02,9.5.09,14.79,3.76,11.43,7.38,24.78,7.22,38.62-.1,8.75-1.57,17.93-4.61,28.75.08,4.61.09,8.91.04,13.09-.1,8.76-.02,17.74.07,26.43.08,8.82.17,17.94.07,26.97-.03,2.62-1.21,15.72-21.67,15.72Z"/>
    <path class="cls-1" d="M334.51,87.9c-4.94-.03-10.75-3.16-12.56-10.07-.13-.5-.27-1.08-.43-1.88-.13-.61-.27-1.32-.42-2.11-.05,0-.1,0-.15,0-3.73,0-7.28-1.61-9.73-4.41-2.47-2.82-3.6-6.59-3.1-10.36.41-3.08.64-6.29.89-9.68.26-3.62.53-7.36,1.04-11.21.18-1.39.62-4.65,5.91-12.14,3.87-5.48,8.42-10.55,15.46-10.55,4.79,0,8.41,2.31,14.72,7.5,1.5,1.23,6.62,5.52,9.63,8.95,1.25,1.43,5.05,5.76,4.22,12-.89,6.71-4.55,11.75-7.5,15.79-.88,1.21-2.16,2.96-2.67,3.95-.02,1.43-.08,3.51-.26,5.68-.22,2.64-.57,4.83-1.08,6.69-1.44,5.32-4.31,8.21-6.94,9.79-2.02,1.3-4.41,2.05-6.95,2.05-.03,0-.05,0-.08,0Z"/>
    <path class="cls-1" d="M1094.41,197.67c-.64,0-1.29-.05-1.93-.15h0c-.41-.06-.81-.14-1.2-.24-.25-.06-.5-.13-.75-.21h0c-2.66-.84-5.02-2.53-6.66-4.82-1.84-2.58-2.42-5.06-2.42-7.54-.87-.77-1.64-1.66-2.29-2.67h0c-.88-1.37-1.51-2.92-1.83-4.57-6-3.47-7.62-9.71-6.55-14.44,1.45-6.35,6.69-8.94,9.5-10.33,1.65-.81,3.53-1.66,4.91-2.28.5-.23.92-.41,1.19-.54,1.83-.94,3.87-1.44,5.93-1.44,1.41,0,4.14.26,6.86,1.96,3.38-3.24,6.37-5.65,11.36-5.65,3.4,0,6.7,1.36,9.11,3.75.4.4.78.83,1.12,1.28,3.56,4.62,4.15,12.12-1.63,17.54-.24.23-.53.49-.9.81.46,1.92.49,3.94.03,5.93-.18.79-.55,2.42-2.67,6.27-.87,1.58-1.71,2.95-2.66,4.14-.05.09-.09.17-.13.24-.38.73-.82,1.56-1.26,2.31-1.7,2.9-3.71,4.68-5.71,5.75-.24.16-.53.36-.75.52-3.54,2.44-6.33,4.38-10.69,4.38h0Z"/>
    <path class="cls-1" d="M437.89,431.7c-2.4,0-4.81-.62-6.97-1.78-5.24-2.83-8.8-8.32-11.54-17.81-1.57-5.41-2.55-11.09-2.8-14.08-.7-8.29,1.51-16.01,3.46-22.81,1.47-5.13,2.86-9.98,2.56-13.56-.91-10.77.27-21.48,1.78-31.65-3.35-7.74-5.19-14.52-5.74-21.11-.95-11.28-1.72-22.72-2.46-33.78-.74-10.95-1.5-22.27-2.43-33.33-.49-5.86-1.24-11.8-2.03-17.41-1.22-.37-2.39-.74-3.43-1.08-1.84-.6-3.64-1.2-5.06-1.71-.74-.26-1.34-.48-1.81-.67-7.14-2.79-9.12-9.06-8.65-13.58.39-3.73,2.35-6.96,5.19-9.05,2.09-1.65,5.13-3.09,9.43-3.17-.46-3.38-.88-6.82-1.25-10.27-6.95-10.85-13.33-22.53-13.71-35.7-.22-7.52,5.02-12.02,8.74-14.68-.03-2.21.16-4.67.97-7.13,1.53-4.68,4.86-8.35,9.38-10.35,2.38-1.05,5.03-1.62,8.05-1.73,1.67-1.17,3.6-1.95,5.64-2.25.66-.1,1.32-.15,1.99-.15,1.47,0,3.69.25,6.04,1.41,1.62-.88,3.38-1.94,4.7-2.72,6.43-3.85,13.71-8.21,21.81-8.21,2.11,0,4.18.3,6.13.89,8.91,2.7,19.37,9.71,32.9,22.07,7.89,7.21,10.33,18.75,12.29,28.02.54,2.57,1.06,5,1.58,6.79.69,2.35.99,4.79.91,7.26.99,8.01.9,16.07-.28,23.41-1.56,9.71-4.9,17.46-9.92,23.05-3.77,4.19-10.55,9.18-21.5,9.18-.21,0-.42,0-.63,0-7.6,3.57-15.89,5.32-25.21,5.32-1.88,0-3.75-.07-5.59-.2.51,7.87.91,15.72,1.3,23.39.58,11.55,1.19,23.49,2.16,35.09,1.11,13.18-.87,26.04-2.83,38.49,1.37,2.68,2.85,5.4,4.4,8.24,1.32,2.42,2.64,4.85,3.93,7.32.03-.09.06-.18.08-.27.74-4.98,1.65-10.67,2.98-16.33.61-2.6,1.24-5.19,1.84-7.69,2.88-11.91,5.63-23.25,6.46-34.65-2.14-2.39-3.95-5.61-4.12-9.82-.19-4.68,1.38-9,4.42-12.17,2.8-2.91,6.68-4.58,10.66-4.58,7.22,0,13.09,5.11,14.61,12.29,2.65,1.24,5.33,2.53,7.7,4.02,7.85,4.95,9.35,10.9,9.23,15.03-.46,15.73-9.38,28.78-17.26,40.3-4.69,6.85-9.13,13.35-11.35,19.54-.08.56-.16,1.11-.24,1.67-1.52,10.49-3.08,21.29-7.01,31.8,1.57,4.81,2.72,10.94-.72,16.94-.85,1.49-1.9,2.79-3.13,3.92-.45,1.94-1.21,3.97-2.46,5.92-1.59,2.49-5.43,7.4-8.62,10.05-2.33,1.93-5.27,2.99-8.29,2.99-.48,0-.97-.03-1.46-.09-.83,1.91-1.74,3.52-2.77,4.89-3.01,3.98-7.41,6.26-12.07,6.26ZM436.43,184.06c.35.03.7.06,1.05.11,7.59,1.02,15.6,4.33,23.35,7.53,4.63,1.91,9.36,3.87,13.56,5.14.54-1.28,1.13-3.08,1.91-5.66.63-2.08,1.34-4.43,2.25-6.87,1.54-4.1,3.81-7.65,5.82-10.78,1.02-1.59,2.45-3.82,3.11-5.26-1.05-5.81-2.71-9.85-4.02-11.79-2.59-3.86-10.8-10.57-36.7-14.11-1.62,2.14-3.85,4.49-6.96,5.85-1.15,4.94-3.17,9.47-5.03,13.65-1.84,4.13-3.92,8.82-3.75,11.36.06.93.13,1.89.21,2.87.19.29.38.57.57.86,1.54,2.33,3.1,4.69,4.63,7.1Z"/>
  </g>
</svg>