<?xml version="1.0" encoding="UTF-8"?>
<svg id="Layer_2" data-name="Layer 2" xmlns="http://www.w3.org/2000/svg" viewBox="0 0 1562.67 736.86">
  <defs>
    <style>
      .cls-1 {
        fill: #5ee34d;
      }

      .cls-2 {
        fill: #620097;
      }
    </style>
  </defs>
  <g id="Layer_1-2" data-name="Layer 1">
    <path class="cls-1" d="M892.25,9.61c2.46-.59,4.96-1.14,7.43-1.63,38.39-7.68,72.49.05,102.58,6.87,3.49.79,6.93,1.57,10.23,2.29,5.52-2.16,11.45-4.12,17.82-5.64,12.58-3.01,24.69-3.8,35.42-2.36,4.01-.61,10.7-1.93,15.43-2.88,22.9-4.55,54.26-10.79,76.12-1.32,12.55,5.43,19.76,13.1,25.55,19.26,2.69,2.86,6.37,6.77,8.51,7.81,16.1,7.77,22.58,19.21,25.78,29.6,30.22,21.55,56.14,46.47,79.17,68.61l4.62,4.44c19.92,19.12,30.61,44.5,39.07,66.8,7.21,18.99-5.37,39.85-15.48,56.6-5.2,8.62-10.11,16.76-11.15,22.36-6.51,35.16-15.76,75.88-43.12,116.14-1.44,4.91-2.77,9.93-4.16,15.19-8.62,32.55-18.38,69.44-63.53,100.18-25.81,17.57-60.56,28.25-91.22,37.67-11.17,3.43-21.73,6.67-29.79,9.66-12.96,4.79-26.96,8.96-42.78,12.74-24.07,5.75-48.21,9.57-69.51,12.95,0,0-1.24.2-1.27.2-31.29,7.39-59.95,11.47-85.21,12.15-12.21.33-24.13-.46-35.53-2.35-39.74.03-75.42-3.38-106.14-10.16-68.41-15.09-111.32-50.07-147.49-85.62-33.97-33.38-25.16-74.44-16.63-114.16.57-2.66,1.14-5.33,1.7-8,1.79-8.55,2.01-19.15,2.24-30.37.35-17.04.75-36.36,7.06-54.76,8.82-25.71,28.41-46.21,58.21-60.93,17.81-8.8,38.86-16.13,62.57-21.79,84.55-20.21,178.56-14.43,205.36-12.18,31.05,2.61,76.94,7.87,119.29,18.11,48.46,11.72,81.46,27.42,98.11,46.66,19.85,22.95,12.15,68.33,7.51,83.88-2.18,7.29-10.04,21.29-38.29,33.24-.78.33-1.57.66-2.37.98-.13,6.61-4.55,13.89-13.26,20.34-5.8,4.29-13.13,7.9-21.08,10.4-4.77,6.57-12.96,12.24-21.79,16.08-4.25,1.85-8.83,3.37-13.48,4.48-8.79,2.1-30.95,5.73-46.66-5.95-1.67-1.24-3.57-2.81-5.98-4.96-.42-.37-.84-.75-1.28-1.15-11.47,3.9-22.76,7.2-33.62,9.79-3.65.87-7.27,1.67-10.86,2.39-10.81,6.6-21.37,11.79-34.03,14.81-12.16,2.91-24.3,3.21-34.16.85-6.1-1.46-18.65-5.8-21.05-17.14-7.41-2.61-13.95-5.98-19.44-10.05-7.23-5.36-9.34-13.05-5.79-21.11,6.19-14.04,25-22.58,37.45-28.23.51-.23,1.12-.51,1.71-.78.15-.1.3-.21.45-.31,10.46-7.26,23.49-16.3,41.9-20.71,18.71-4.47,36.58-2.62,46.63,4.83,1.56,1.16,2.86,2.36,3.93,3.61.96-1.69,2.16-3.35,3.55-4.95,2.69-3.08,6.14-5.97,10.15-8.53-7.92-2.58-14.88-5.95-19.9-10.61-7.41-6.88-11.69-13.84-15.47-19.98-4.9-7.98-7.73-12.23-13.39-14.13-33.17-11.11-67.1-10.08-125.18,3.8-3.1.74-6.34,1.54-9.65,2.36l-3.27.82c-58.28,14.61-71.98,19.37-84.67,36.71-10.7,14.61-4.17,24.58,10.38,43.98,5.29,7.05,10.76,14.34,15.44,22.71,1.91,3.42,3.74,6.77,5.54,10.07,15.23,27.89,26.23,48.05,60.2,62.39,18.95,8,34.81,19,50.14,29.64,16.94,11.75,34.4,23.87,52.62,29.04,25.23-.6,51.96-2.91,77.97-6.76,32.07-8.04,69.38-21.15,102.99-36.21,45.25-20.28,80.06-57.25,110.93-94.17,2.32-2.78,4.57-5.64,6.72-8.54,4.44-13.66,9.34-24.35,15.68-34.29,24.76-38.8,20.8-68.25,11.94-108.76-9.41-43.02-16.85-76.99-56.99-103.37-18.75-12.32-21.1-30.76-23.17-47.02-.28-2.22-.56-4.38-.86-6.45-11.06-7.19-21.86-13.21-32.83-18.3-.11-.05-2.73-1.2-13.18-1.67-9.97-.45-22.17-.1-35.09.27-11.42.33-23.08.66-34.28.46-6.39,2.63-13.48,5.09-21.21,6.93-6.27,1.5-12.51,2.48-18.53,2.9-3.51.25-6.48.77-12.22,2.14-1.67.4-3.34.81-5.03,1.23-2.15.53-4.33,1.07-6.57,1.6-4.12.99-10.46,2.45-17.88,3.81-3.28.6-6.52,1.19-9.73,1.78-27.32,4.98-50.91,9.28-76.13,15.31-3.63.87-7.29,1.77-10.87,2.68-3.85.98-7.85,1.97-11.9,2.94-3.45.82-6.99,1.65-10.65,2.48-21.35,15.71-46.22,31.88-76.16,42.5-7.44,2.64-15.47,5-23.88,7.01-31.81,7.6-65.46,9.56-98,11.46-7.19.42-14.13.82-20.87,1.28-7.58,2.67-15.15,5.28-22.56,7.82-17.19,5.92-33.7,11.6-48.87,17.52-3.11,9.69-3.93,21.68-4.73,33.38-1.63,23.69-3.31,48.18-22.75,70.87-12.75,14.88-28.47,28.11-42.35,39.77-20.11,16.92-35.99,30.28-39.55,44.19-1.19,4.67-2.17,9.4-2.91,14.11,5.18,9.89,7.56,18.85,7.43,27.86-.54,37.58,9.79,63.99,26.64,94.43,1.09,1.96,2.03,4.02,2.83,6.17,5.53,6,11.43,11.96,17.63,18.22,5.49,5.54,11.16,11.27,16.74,17.21,27.15,28.91,50.61,53.87,92.03,72.34,12.89,5.75,16.64,16.76,8.62,27.83-.81,1.12-1.72,2.22-2.71,3.29,15.29,10.64,21.53,17.48,20.33,26.8-.99,7.7-7.45,15.72-17.73,22-6.52,3.98-14.33,7.13-22.57,9.1-23.74,5.67-41.74.25-62.82-7.44-11.93-4.35-23.29-9.12-26.08-10.36-3.96-1.63-20.69-2.41-30.69-2.88-25.23-1.18-56.63-2.65-75.14-15.44-31.94-22.06-21.79-57.7-12.83-89.14,4.38-15.39,8.91-31.27,7.3-42.26-12.03-13.73-25.65-31.95-31.79-54.79-10.55-39.23-10.71-64.29-9.01-81.93-3.05-4.61-6.63-9.34-10.38-14.27-16.7-22.02-35.62-46.97-17.72-78.51,26.13-46.05,68.7-94.3,113.87-129.08,13.06-10.05,28.67-19.45,47.44-28.54,6.99-7.71,15.63-14.66,25.82-20.76,15.22-9.11,33.74-16.32,55.03-21.41,15.36-3.67,31.9-6.29,52.54-8.27,8.77-3.3,16.15-6.27,22.75-9.17,26.05-11.44,54.44-20.65,89.35-28.99,20.06-4.79,40.04-8.78,59.37-12.64,4.82-.96,9.71-1.94,14.6-2.93,32.91-25.45,70.25-54.08,120.49-66.09Z"/>
    <path class="cls-1" d="M153.19,576.34l87.2,16.87c2.53.49,4.21-2.55,2.45-4.43l-60.63-64.91c-.79-.84-.94-2.1-.38-3.1l42.99-77.72c1.25-2.26-1.12-4.79-3.45-3.7l-80.47,37.61c-1.04.49-2.28.25-3.07-.59l-60.63-64.91c-1.76-1.88-4.9-.42-4.59,2.14l10.9,88.15c.14,1.14-.47,2.25-1.51,2.74L1.54,542.09c-2.34,1.09-1.91,4.53.62,5.02l87.2,16.87c1.13.22,1.99,1.14,2.14,2.29l10.9,88.15c.32,2.56,3.72,3.22,4.97.96l42.99-77.72c.56-1.01,1.7-1.54,2.83-1.32Z"/>
    <path class="cls-1" d="M1435.6,510.63l41.27,64.22c1.2,1.86,4.08,1.11,4.21-1.11l4.36-76.21c.06-.99.74-1.83,1.7-2.08l73.83-19.41c2.14-.56,2.31-3.54.25-4.34l-71.13-27.69c-.92-.36-1.51-1.27-1.45-2.26l4.36-76.21c.13-2.21-2.65-3.29-4.05-1.58l-48.32,59.09c-.63.77-1.68,1.04-2.6.68l-71.13-27.69c-2.06-.8-3.95,1.5-2.75,3.37l41.27,64.22c.54.83.47,1.92-.15,2.68l-48.32,59.09c-1.4,1.71.21,4.22,2.35,3.66l73.83-19.41c.96-.25,1.97.14,2.51.98Z"/>
    <path class="cls-2" d="M314.09,167.56l-32.32-2.26,10.32-147.64,32.32,2.26-4.12,58.86,55.07,3.85,4.12-58.86,32.52,2.27-10.32,147.64-32.52-2.27,4.2-60.05-55.07-3.85-4.2,60.05Z"/>
    <path class="cls-2" d="M463.08,29.61l-10.32,147.64-32.32-2.26,10.32-147.64,32.32,2.26Z"/>
    <path class="cls-2" d="M463.08,135.67l31.12,2.18c-.15,2.13.23,4.4,1.13,6.8.9,2.4,2.52,4.49,4.88,6.26,2.35,1.77,5.58,2.8,9.71,3.08,5.99.42,10.35-.88,13.1-3.9,2.75-3.02,4.28-6.72,4.59-11.11l.8-11.37,32.32,2.26-.93,13.37c-.59,8.38-3.08,15.79-7.47,22.23-4.39,6.44-10.35,11.31-17.86,14.59-7.52,3.28-16.26,4.58-26.23,3.88-10.76-.89-19.6-3.54-26.51-7.97-6.91-4.42-11.89-10.12-14.94-17.08-3.06-6.96-4.28-14.7-3.69-23.21ZM463.08,135.67l.73-10.37,31.12,2.18-.73,10.37-31.12-2.18ZM528.4,127.61l6.5-92.97,32.32,2.26-6.5,92.97-32.32-2.26Z"/>
    <path class="cls-2" d="M596.6,187.31l-33.72-2.36,63-143.96,31.52,2.2,42.15,151.31-34.32-2.4-8.2-31.85-47.68-3.33-12.75,30.38ZM633.6,99.68l-12.98,30.77,29.13,2.04-8.37-32.26c-.76-2.59-1.41-5.24-1.95-7.96-.55-2.71-.89-4.94-1.04-6.69-.26,1.72-.84,3.89-1.76,6.49-.92,2.61-1.93,5.15-3.04,7.61Z"/>
    <path class="cls-2" d="M762.03,201.28c-14.23-1-26.56-4.83-36.99-11.51-10.43-6.68-18.27-15.91-23.52-27.71-5.26-11.8-7.32-25.74-6.2-41.83s5.03-28.48,11.89-39.57c6.86-11.08,16.03-19.43,27.51-25.04,11.48-5.61,24.61-7.9,39.37-6.87,11.57.81,21.86,3.77,30.86,8.87,9,5.11,16.21,11.93,21.63,20.46,5.42,8.53,8.47,18.37,9.16,29.51l-34.12-2.39c-1.61-7.6-5.2-13.56-10.78-17.9-5.58-4.33-12.16-6.76-19.74-7.3-8.25-.58-15.36.8-21.34,4.12-5.98,3.33-10.7,8.27-14.17,14.85-3.47,6.57-5.52,14.38-6.15,23.43-.66,9.45.37,17.6,3.1,24.48,2.73,6.88,6.86,12.24,12.41,16.1,5.54,3.86,12.17,6.06,19.89,6.6,8.25.58,15.77-1,22.59-4.74,6.81-3.73,11.65-8.97,14.53-15.72l33.52,2.34c-2.5,10.92-7.23,20.28-14.19,28.08-6.96,7.8-15.52,13.59-25.67,17.35-10.16,3.77-21.35,5.22-33.59,4.37Z"/>
    <path class="cls-2" d="M886.04,59.19l-10.37,148.24-32.32-2.26,10.37-148.24,32.32,2.26ZM977.41,65.58l-108.65,123.12,3.54-50.68,65.01-75.25,40.1,2.8ZM898.98,149.31l24.33-26.77,44.18,90.7-38.71-2.71-29.8-61.23Z"/>
    <path class="cls-2" d="M1046.14,210.19l-32.39.65-2.96-147.97,32.39-.65,1.18,58.99,55.19-1.1-1.18-58.99,32.59-.65,2.96,147.97-32.59.65-1.2-60.19-55.19,1.1,1.2,60.19Z"/>
    <path class="cls-2" d="M1182.15,59.44l2.96,147.97-32.39.65-2.96-147.97,32.39-.65Z"/>
    <path class="cls-2" d="M1233.14,58.42l2.96,147.97-32.39.65-2.96-147.97,32.39-.65ZM1286.93,147.56l-82.38,1.65-.38-29.2,82.38-1.65.38,29.2ZM1295.53,87.57l-91.18,1.82-.61-30.39,91.38-1.83.41,30.4Z"/>
    <path class="cls-2" d="M1339.52,56.29l2.96,147.97-32.39.65-2.96-147.97,32.39-.65Z"/>
    <path class="cls-2" d="M100.78,239.7l16.76,147.05-32.19,3.67-16.76-147.05,32.19-3.67ZM139.22,334.97l-37.56,4.28-3.17-27.82,31.6-3.6c5.56-.63,9.85-2.19,12.85-4.69,3-2.49,5.01-5.5,6.02-9.04,1.01-3.54,1.3-7.16.87-10.87-.35-3.05-1.39-6.05-3.14-9-1.75-2.95-4.36-5.27-7.84-6.96-3.48-1.68-8-2.21-13.57-1.57l-29.21,3.33-3.24-28.42,35.57-4.05c15.63-1.78,28.35,1.23,38.17,9.04,9.81,7.81,15.58,19.26,17.3,34.36,1.1,9.67.09,18.44-3.04,26.31-3.13,7.87-8.2,14.32-15.21,19.35-7.01,5.03-15.81,8.14-26.41,9.35Z"/>
    <path class="cls-2" d="M328.32,327.81c-4.72,12.15-12.11,22.11-22.16,29.9-10.05,7.79-22.36,12.51-36.93,14.17-14.44,1.65-27.4-.2-38.88-5.53-11.48-5.33-20.85-13.36-28.11-24.07-7.26-10.71-11.73-23.42-13.4-38.13s-.19-28.13,4.47-40.27c4.66-12.14,12.01-22.1,22.06-29.89,10.05-7.79,22.29-12.5,36.73-14.15,14.57-1.66,27.62.14,39.16,5.4,11.54,5.26,20.94,13.28,28.21,24.06,7.27,10.78,11.74,23.52,13.41,38.23s.15,28.13-4.57,40.28ZM291.6,267.88c-3.8-6.27-8.72-10.88-14.76-13.82-6.04-2.94-13.03-3.95-20.98-3.04-7.95.91-14.57,3.47-19.86,7.7-5.29,4.23-9.08,9.83-11.37,16.8-2.29,6.97-2.9,15.16-1.83,24.57s3.49,17.08,7.3,23.42c3.81,6.34,8.77,10.98,14.87,13.91,6.1,2.93,13.13,3.94,21.08,3.03,7.82-.89,14.37-3.45,19.66-7.67,5.29-4.23,9.07-9.86,11.36-16.89,2.28-7.04,2.9-15.19,1.84-24.47s-3.51-17.24-7.31-23.52Z"/>
    <path class="cls-2" d="M369.05,209.13l16.76,147.05-32.19,3.67-16.76-147.05,32.19-3.67ZM407.48,304.39l-37.56,4.28-3.17-27.82,31.6-3.6c5.56-.63,9.85-2.19,12.85-4.69,3-2.49,5.01-5.5,6.02-9.04,1.01-3.54,1.3-7.16.87-10.87-.35-3.05-1.39-6.05-3.14-9-1.75-2.95-4.36-5.27-7.84-6.96-3.48-1.68-8-2.21-13.57-1.57l-29.21,3.33-3.24-28.42,35.57-4.05c15.63-1.78,28.35,1.23,38.17,9.04,9.81,7.81,15.58,19.26,17.3,34.36,1.1,9.67.09,18.44-3.04,26.31-3.13,7.87-8.2,14.32-15.21,19.35-7.01,5.03-15.81,8.14-26.41,9.35Z"/>
    <path class="cls-2" d="M500.2,331.25l-7.68-92.08,32.29-2.69,7.6,91.08c.37,4.38,1.42,8.24,3.17,11.58,1.75,3.33,4.02,6.12,6.82,8.36,2.8,2.24,6.04,3.85,9.73,4.81,3.69.97,7.66,1.27,11.92.91,5.71-.48,10.69-2.13,14.94-4.96,4.25-2.83,7.49-6.48,9.72-10.95,2.24-4.47,3.13-9.36,2.69-14.67l-7.6-91.08,32.29-2.69,7.68,92.08c.76,9.17-.18,17.48-2.84,24.92-2.66,7.45-6.67,13.9-12.03,19.37-5.36,5.46-11.66,9.77-18.89,12.91-7.23,3.14-15.03,5.07-23.4,5.77-8.37.7-16.39.06-24.04-1.91-7.66-1.97-14.52-5.21-20.58-9.72-6.06-4.51-11.02-10.22-14.87-17.12-3.86-6.9-6.16-14.87-6.91-23.91Z"/>
    <path class="cls-2" d="M667.72,224.56l12.3,147.49-32.29,2.69-12.3-147.49,32.29-2.69ZM703.25,320.94l-37.67,3.14-2.33-27.9,31.69-2.64c5.58-.47,9.91-1.9,12.99-4.29,3.08-2.39,5.17-5.35,6.29-8.85,1.11-3.51,1.51-7.12,1.2-10.84-.25-3.05-1.21-6.09-2.87-9.09-1.66-3-4.2-5.4-7.62-7.19-3.43-1.79-7.93-2.45-13.51-1.98l-29.3,2.44-2.38-28.5,35.68-2.98c15.68-1.31,28.3,2.09,37.88,10.19,9.57,8.1,14.99,19.72,16.25,34.87.81,9.7-.47,18.44-3.84,26.21-3.37,7.78-8.63,14.07-15.79,18.88-7.16,4.81-16.05,7.66-26.68,8.55Z"/>
    <path class="cls-2" d="M833.46,378.71l-32.33-2.06,9.43-147.7,32.33,2.06-3.76,58.88,55.09,3.52,3.76-58.88,32.53,2.08-9.43,147.7-32.53-2.08,3.84-60.08-55.09-3.52-3.84,60.08Z"/>
    <path class="cls-2" d="M981.6,239.86l-9.43,147.7-32.33-2.06,9.43-147.7,32.33,2.06Z"/>
    <path class="cls-2" d="M1032.5,243.11l-9.43,147.7-32.33-2.06,9.43-147.7,32.33,2.06ZM1053.54,343.65l-37.72-2.41,1.78-27.94,31.74,2.03c5.59.36,10.08-.42,13.48-2.35,3.39-1.92,5.9-4.53,7.51-7.84,1.61-3.3,2.54-6.82,2.78-10.54.2-3.06-.31-6.2-1.5-9.41-1.2-3.21-3.36-5.96-6.49-8.23-3.13-2.27-7.49-3.58-13.08-3.94l-29.34-1.87,1.82-28.54,35.73,2.28c15.7,1,27.69,6.21,35.98,15.62,8.28,9.42,11.94,21.71,10.97,36.87-.62,9.71-3.16,18.17-7.63,25.37-4.47,7.2-10.6,12.65-18.38,16.36-7.79,3.71-17,5.23-27.65,4.55Z"/>
    <path class="cls-2" d="M1181.73,372.36h-32.4v-148h32.4v59h55.2v-59h32.6v148h-32.6v-60.2h-55.2v60.2Z"/>
    <path class="cls-2" d="M1416.03,337.66c-6.07,11.53-14.53,20.6-25.4,27.2-10.87,6.6-23.63,9.9-38.3,9.9s-27.2-3.3-38-9.9-19.2-15.63-25.2-27.1c-6-11.47-9-24.6-9-39.4s3-27.97,9-39.5c6-11.53,14.43-20.6,25.3-27.2,10.87-6.6,23.57-9.9,38.1-9.9s27.43,3.27,38.3,9.8c10.87,6.53,19.3,15.57,25.3,27.1,6,11.53,9,24.7,9,39.5s-3.03,27.97-9.1,39.5ZM1386.33,273.96c-3.07-6.67-7.43-11.8-13.1-15.4-5.67-3.6-12.5-5.4-20.5-5.4s-14.87,1.8-20.6,5.4c-5.73,3.6-10.13,8.73-13.2,15.4-3.07,6.67-4.6,14.73-4.6,24.2s1.53,17.37,4.6,24.1c3.07,6.73,7.47,11.9,13.2,15.5,5.73,3.6,12.6,5.4,20.6,5.4s14.67-1.8,20.4-5.4c5.73-3.6,10.13-8.77,13.2-15.5,3.07-6.73,4.6-14.77,4.6-24.1s-1.53-17.53-4.6-24.2Z"/>
    <path class="cls-2" d="M1469.93,224.36v148h-32.4v-148h32.4ZM1497.33,323.36h-37.8v-28h31.8c5.6,0,10.03-1.07,13.3-3.2,3.27-2.13,5.6-4.9,7-8.3,1.4-3.4,2.1-6.97,2.1-10.7,0-3.07-.7-6.17-2.1-9.3-1.4-3.13-3.73-5.73-7-7.8-3.27-2.07-7.7-3.1-13.3-3.1h-29.4v-28.6h35.8c15.73,0,28.03,4.43,36.9,13.3,8.87,8.87,13.3,20.9,13.3,36.1,0,9.73-2,18.33-6,25.8-4,7.47-9.77,13.3-17.3,17.5-7.53,4.2-16.63,6.3-27.3,6.3Z"/>
    <path class="cls-2" d="M301.56,540.63l-57.99-1.01,2.58-147.98,57.99,1.01c13.86.24,26.14,3.63,36.83,10.14,10.69,6.52,19,15.4,24.94,26.64,5.94,11.24,8.78,24.19,8.52,38.85-.25,14.4-3.51,27.08-9.77,38.03-6.26,10.96-14.81,19.48-25.65,25.56-10.84,6.08-23.33,8.99-37.46,8.75ZM278.29,407.01l-2.07,118.78-15.13-15.67,37.79.66c8.4.15,15.66-1.59,21.79-5.22,6.13-3.62,10.89-8.71,14.27-15.25,3.38-6.54,5.15-14.08,5.3-22.61.15-8.66-1.38-16.36-4.6-23.08-3.22-6.72-7.83-12-13.83-15.84-6-3.84-13.13-5.83-21.4-5.97l-37.79-.66,15.67-15.13Z"/>
    <path class="cls-2" d="M420.72,394.69l-2.58,147.98-32.39-.57,2.58-147.98,32.39.57Z"/>
    <path class="cls-2" d="M475.91,487.47l-49.79-92.68,37.59.66,23.96,48.43c1.29,2.29,2.35,4.41,3.19,6.36.83,1.95,1.63,3.86,2.4,5.74,1.25-2.78,2.32-5.13,3.22-7.04.9-1.92,1.83-3.6,2.79-5.05l25.63-47.36,36.39.64-52.79,90.89-.98,56.19-32.6-.57.98-56.19Z"/>
    <path class="cls-2" d="M656.32,537.8l-57.91-3.31,8.45-147.76,57.91,3.31c13.84.79,25.98,4.66,36.4,11.6,10.42,6.94,18.37,16.14,23.86,27.61,5.49,11.47,7.81,24.52,6.98,39.16-.82,14.38-4.58,26.92-11.27,37.62-6.69,10.7-15.57,18.88-26.64,24.52-11.07,5.65-23.67,8.06-37.78,7.26ZM638.36,403.36l-6.78,118.61-14.5-16.25,37.74,2.16c8.39.48,15.71-.97,21.98-4.35,6.27-3.38,11.22-8.27,14.86-14.68,3.64-6.4,5.7-13.86,6.19-22.38.49-8.65-.73-16.4-3.68-23.25-2.95-6.85-7.34-12.31-13.19-16.38-5.85-4.07-12.89-6.35-21.15-6.82l-37.74-2.16,16.25-14.5Z"/>
    <path class="cls-2" d="M781.17,396.7l-8.45,147.76-32.35-1.85,8.45-147.76,32.35,1.85Z"/>
    <path class="cls-2" d="M789.3,440.23c.5-8.79,3.11-16.52,7.84-23.19,4.72-6.67,11.09-11.75,19.1-15.24,8.01-3.48,17.21-4.93,27.59-4.33s18.79,3.01,26.03,7.3c7.23,4.29,12.75,9.94,16.56,16.97,3.8,7.03,5.51,15.07,5.13,24.13l-31.75-1.81c.33-5.86-1.15-10.21-4.46-13.08-3.31-2.86-7.83-4.45-13.55-4.78-6.26-.36-11.1.8-14.52,3.48-3.43,2.68-5.27,6.28-5.53,10.8-.23,3.99.79,7.16,3.06,9.49,2.27,2.33,5.63,4.23,10.09,5.68l22.62,7.3c13.11,4.22,22.61,10.41,28.49,18.56,5.88,8.15,8.53,17.22,7.96,27.2-.51,8.92-3.29,16.64-8.34,23.16-5.05,6.52-11.84,11.44-20.38,14.76-8.54,3.32-18.33,4.66-29.38,4.03-10.78-.62-20.13-2.99-28.04-7.11-7.91-4.12-13.97-9.74-18.17-16.86-4.2-7.12-6.17-15.34-5.9-24.68l31.55,1.8c-.44,5.32,1.36,9.56,5.38,12.73,4.03,3.17,9.7,4.96,17.02,5.38,7.45.43,13.22-.65,17.31-3.22,4.09-2.57,6.26-6.18,6.53-10.84.2-3.46-.74-6.32-2.82-8.58-2.07-2.25-5.4-4.18-9.99-5.78l-22.99-7.92c-13.88-4.8-23.57-11.19-29.05-19.19-5.49-7.99-7.96-16.71-7.42-26.17Z"/>
    <path class="cls-2" d="M966.87,557.96c-14.25-.81-26.62-4.49-37.13-11.04-10.51-6.54-18.47-15.68-23.88-27.41-5.41-11.73-7.65-25.64-6.73-41.75s4.67-28.55,11.38-39.71c6.71-11.17,15.78-19.63,27.19-25.39,11.41-5.76,24.51-8.21,39.28-7.37,11.58.66,21.9,3.49,30.97,8.48,9.06,4.99,16.36,11.72,21.88,20.18,5.53,8.46,8.7,18.26,9.54,29.39l-34.14-1.95c-1.71-7.58-5.37-13.49-11-17.76-5.64-4.26-12.24-6.61-19.83-7.04-8.26-.47-15.35.99-21.29,4.39-5.94,3.4-10.6,8.41-13.98,15.03-3.38,6.62-5.33,14.45-5.85,23.5s.6,17.6,3.41,24.43c2.81,6.84,7.02,12.15,12.61,15.95,5.59,3.79,12.25,5.91,19.97,6.35,8.25.47,15.76-1.2,22.52-5.02,6.76-3.82,11.54-9.12,14.33-15.91l33.55,1.92c-2.36,10.95-6.97,20.37-13.84,28.26-6.86,7.89-15.35,13.78-25.45,17.68-10.11,3.9-21.28,5.49-33.53,4.79Z"/>
    <path class="cls-2" d="M1177.75,532.85c-6.72,11.17-15.69,19.74-26.91,25.71-11.23,5.97-24.16,8.54-38.8,7.7-14.51-.83-26.97-4.85-37.37-12.05-10.41-7.21-18.28-16.7-23.61-28.49-5.34-11.79-7.58-25.07-6.74-39.85s4.59-27.75,11.24-38.92c6.65-11.17,15.58-19.74,26.81-25.71,11.23-5.97,24.09-8.54,38.6-7.71,14.64.84,27.2,4.83,37.68,11.97,10.47,7.14,18.38,16.64,23.71,28.5,5.33,11.86,7.58,25.17,6.73,39.95-.84,14.78-4.63,27.75-11.34,38.92ZM1151.73,467.56c-2.68-6.83-6.75-12.2-12.2-16.12-5.45-3.92-12.17-6.1-20.16-6.56-7.99-.46-14.95.95-20.87,4.22-5.93,3.27-10.62,8.14-14.06,14.62-3.44,6.48-5.43,14.45-5.97,23.9-.53,9.32.54,17.43,3.22,24.32,2.68,6.9,6.77,12.31,12.29,16.23,5.52,3.92,12.27,6.11,20.26,6.57s14.74-.96,20.68-4.23c5.93-3.27,10.61-8.17,14.06-14.72,3.44-6.55,5.43-14.48,5.97-23.8.54-9.45-.53-17.59-3.21-24.42Z"/>
    <path class="cls-2" d="M1279.83,449.16l14.6,18.4c-4,1.73-7.4,3.5-10.2,5.3s-5.1,3.7-6.9,5.7c-1.8,2-3.13,4.17-4,6.5-.87,2.33-1.3,4.9-1.3,7.7,0,6.93,2.33,11.93,7,15,4.67,3.07,11.2,4.6,19.6,4.6s16.13-2.03,22-6.1c5.87-4.07,10.23-9.73,13.1-17,2.87-7.27,4.17-15.77,3.9-25.5h30.2c.53,14.93-2.2,28.07-8.2,39.4-6,11.33-14.57,20.13-25.7,26.4-11.13,6.27-24.3,9.4-39.5,9.4-11.2,0-20.93-1.8-29.2-5.4-8.27-3.6-14.67-8.6-19.2-15-4.53-6.4-6.8-13.87-6.8-22.4,0-5.87.9-11.1,2.7-15.7,1.8-4.6,4.47-8.8,8-12.6,3.53-3.8,7.8-7.23,12.8-10.3,5-3.07,10.7-5.87,17.1-8.4ZM1304.83,461.36l-14.4-17.2c6.67-3.47,11.3-7.2,13.9-11.2,2.6-4,3.9-7.53,3.9-10.6,0-2.67-.77-5.07-2.3-7.2-1.53-2.13-4.23-3.2-8.1-3.2-4.13,0-7,1.13-8.6,3.4-1.6,2.27-2.4,4.53-2.4,6.8,0,1.87.53,3.8,1.6,5.8,1.07,2,2.7,4.23,4.9,6.7,2.2,2.47,4.83,5.5,7.9,9.1l80.8,92.6h-36.4l-70-81.6c-5.2-6.13-9.1-11.27-11.7-15.4-2.6-4.13-4.33-7.7-5.2-10.7-.87-3-1.3-5.9-1.3-8.7,0-7.87,1.9-14.3,5.7-19.3,3.8-5,8.77-8.73,14.9-11.2,6.13-2.46,12.73-3.7,19.8-3.7,11.73,0,21.23,3,28.5,9,7.27,6,10.9,13.93,10.9,23.8,0,4.67-1.03,9.33-3.1,14-2.07,4.67-5.47,9.4-10.2,14.2-4.73,4.8-11.1,9.67-19.1,14.6Z"/>
    <path class="cls-2" d="M131.24,667.16h31.2c0,2.13.53,4.37,1.6,6.7,1.07,2.33,2.83,4.3,5.3,5.9,2.47,1.6,5.77,2.4,9.9,2.4,6,0,10.27-1.6,12.8-4.8,2.53-3.2,3.8-7,3.8-11.4v-11.4h32.4v13.4c0,8.4-1.97,15.97-5.9,22.7-3.93,6.73-9.53,12-16.8,15.8-7.27,3.8-15.9,5.7-25.9,5.7-10.8-.13-19.8-2.17-27-6.1-7.2-3.93-12.57-9.27-16.1-16-3.53-6.73-5.3-14.37-5.3-22.9ZM131.24,667.16v-10.4h31.2v10.4h-31.2ZM195.84,654.56v-93.2h32.4v93.2h-32.4Z"/>
    <path class="cls-2" d="M375.54,674.66c-6.07,11.53-14.53,20.6-25.4,27.2-10.87,6.6-23.63,9.9-38.3,9.9s-27.2-3.3-38-9.9c-10.8-6.6-19.2-15.63-25.2-27.1-6-11.47-9-24.6-9-39.4s3-27.97,9-39.5c6-11.53,14.43-20.6,25.3-27.2,10.87-6.6,23.57-9.9,38.1-9.9s27.43,3.27,38.3,9.8c10.87,6.53,19.3,15.57,25.3,27.1,6,11.53,9,24.7,9,39.5s-3.03,27.97-9.1,39.5ZM345.84,610.96c-3.07-6.67-7.43-11.8-13.1-15.4-5.67-3.6-12.5-5.4-20.5-5.4s-14.87,1.8-20.6,5.4c-5.73,3.6-10.13,8.73-13.2,15.4-3.07,6.67-4.6,14.73-4.6,24.2s1.53,17.37,4.6,24.1c3.07,6.73,7.47,11.9,13.2,15.5,5.73,3.6,12.6,5.4,20.6,5.4s14.67-1.8,20.4-5.4c5.73-3.6,10.13-8.77,13.2-15.5,3.07-6.73,4.6-14.77,4.6-24.1s-1.53-17.53-4.6-24.2Z"/>
    <path class="cls-2" d="M429.64,561.36v148h-32.4v-148h32.4Z"/>
    <path class="cls-2" d="M542.44,709.36h-94v-148h94v30.6h-70.6l9-9v37.2h54.6v28.6h-54.6v39l-9-8.8h70.6v30.4Z"/>
    <path class="cls-2" d="M670.5,721.84l-57.73,5.63-14.36-147.3,57.73-5.63c13.8-1.35,26.38.61,37.75,5.87,11.36,5.26,20.64,13.13,27.82,23.61,7.18,10.49,11.49,23.03,12.91,37.63s-.39,27.3-5.35,38.9c-4.97,11.61-12.49,21.04-22.56,28.32-10.08,7.28-22.15,11.6-36.21,12.97ZM632.1,591.75l11.53,118.24-16.82-13.83,37.62-3.67c8.36-.81,15.38-3.37,21.05-7.68,5.68-4.3,9.82-9.9,12.43-16.79,2.61-6.89,3.5-14.57,2.67-23.07s-3.25-16.09-7.21-22.41c-3.96-6.31-9.15-11.03-15.55-14.16-6.4-3.13-13.72-4.29-21.94-3.49l-37.62,3.67,13.83-16.82Z"/>
    <path class="cls-2" d="M847.86,704.55l-93.56,9.12-14.36-147.3,93.56-9.12,2.97,30.46-70.27,6.85,8.08-9.83,3.61,37.02,54.34-5.3,2.77,28.47-54.34,5.3,3.78,38.82-9.81-7.89,70.27-6.85,2.95,30.26Z"/>
    <path class="cls-2" d="M938.81,730.11l-65.39-144.25,35.53-2.19,31.95,72.97c2.01,4.42,3.99,9.04,5.96,13.86,1.97,4.82,3.95,10.38,5.94,16.67,1.33-6.49,2.68-12.25,4.05-17.28,1.36-5.02,2.76-9.85,4.22-14.49l22.55-76.33,34.73-2.14-46.19,151.13-33.34,2.05Z"/>
    <path class="cls-2" d="M1058.07,574.48l9.1,147.72-32.34,1.99-9.1-147.72,32.34-1.99Z"/>
    <path class="cls-2" d="M1128.85,718.4l-65.39-144.25,35.53-2.19,31.95,72.97c2.01,4.42,3.99,9.04,5.96,13.86,1.97,4.82,3.95,10.38,5.94,16.67,1.33-6.49,2.68-12.25,4.04-17.28,1.36-5.02,2.77-9.85,4.22-14.49l22.55-76.33,34.73-2.14-46.19,151.13-33.34,2.05Z"/>
    <path class="cls-2" d="M1257.2,710.5l-32.34,1.99-9.1-147.72,57.09-3.52c19.04-1.04,33.43,2.25,43.19,9.86,9.75,7.61,15.11,19.14,16.06,34.58.62,10.12-.91,18.89-4.59,26.33-3.68,7.44-9.34,13.27-16.96,17.48l29.09,55.92-36.33,2.24-24.97-50.76-24.35,1.5,3.21,52.1ZM1249.86,591.32l2.41,39.13,24.55-1.51c8.25-.51,13.92-2.83,17-6.96,3.08-4.13,4.46-8.86,4.14-14.18s-2.23-9.61-5.73-13.27c-3.5-3.66-9.37-5.23-17.62-4.73l-24.75,1.52Z"/>
    <path class="cls-2" d="M1446.04,698.86l-93.82,5.78-9.1-147.72,93.82-5.78,1.88,30.54-70.47,4.34,8.43-9.54,2.29,37.13,54.5-3.36,1.76,28.55-54.5,3.36,2.4,38.93-9.52-8.23,70.47-4.34,1.87,30.34Z"/>
  </g>
</svg>